<svg xmlns="http://www.w3.org/2000/svg" xmlns:xlink="http://www.w3.org/1999/xlink" xmlns:lucid="lucid" width="1760" height="1360"><g transform="translate(0 0)" lucid:page-tab-id="0_0"><path d="M0 0h1760v1360H0z" fill="#fff"/><path d="M720 254c0-4.42 2.75-10.3 6.15-13.12l30.9-25.76c3.4-2.83 9.73-5.12 14.15-5.12H1072c4.42 0 8 3.58 8 8v450.8c0 4.42-2.3 10.75-5.12 14.15l-25.76 30.9c-2.83 3.4-8.7 6.15-13.12 6.15H728c-4.42 0-8-3.58-8-8z" stroke="#333" fill="#fff"/><path d="M728 246c-4.42 0-5.25-2.3-1.85-5.12l30.9-25.76c3.4-2.83 9.73-5.12 14.15-5.12H1072c4.42 0 5.47 2.53 2.34 5.66l-24.68 24.68c-3.13 3.13-9.24 5.66-13.66 5.66z" stroke="#333" fill="#e6e6e6"/><path d="M1044 254c0-4.42 2.53-10.53 5.66-13.66l24.68-24.68c3.13-3.13 5.66-2.08 5.66 2.34v450.8c0 4.42-2.3 10.75-5.12 14.15l-25.76 30.9c-2.83 3.4-5.12 2.57-5.12-1.85z" stroke="#333" fill="#ccc"/><use xlink:href="#a" transform="matrix(1,0,0,1,728,254) translate(0 16.6)"/><use xlink:href="#b" transform="matrix(1,0,0,1,728,254) translate(71.95 16.6)"/><path d="M453.15 75c0-4.42 3.58-8 8-8h836.75c4.4 0 8 3.58 8 8v25.16c0 4.4-3.6 8-8 8H461.15c-4.42 0-8-3.6-8-8z" stroke="#000" stroke-opacity="0" stroke-width="2" fill="#fff" fill-opacity="0"/><use xlink:href="#c" transform="matrix(1,0,0,1,457.14655278534315,71.00000000000006) translate(253.47172839506175 25.782777777777778)"/><use xlink:href="#d" transform="matrix(1,0,0,1,457.14655278534315,71.00000000000006) translate(403.37543209876543 25.782777777777778)"/><use xlink:href="#e" transform="matrix(1,0,0,1,457.14655278534315,71.00000000000006) translate(441.17913580246915 25.782777777777778)"/><path d="M704.63 106.8h356.12M704.66 106.8h-1.03M1060.73 106.8h1.02" stroke="#b2b2b2" stroke-width="2" fill="none"/><path d="M453.15 116.16c0-4.42 3.58-8 8-8h837.7c4.42 0 8 3.58 8 8V119c0 4.42-3.58 8-8 8h-837.7c-4.42 0-8-3.58-8-8z" stroke="#000" stroke-opacity="0" stroke-width="2" fill="#fff" fill-opacity="0"/><use xlink:href="#f" transform="matrix(1,0,0,1,457.1465527853436,112.15522395678234) translate(323.71859053497946 14.917037037037037)"/><use xlink:href="#g" transform="matrix(1,0,0,1,457.1465527853436,112.15522395678234) translate(372.15686213991773 14.917037037037037)"/><use xlink:href="#h" transform="matrix(1,0,0,1,457.1465527853436,112.15522395678234) translate(418.81056584362136 14.917037037037037)"/><use xlink:href="#i" transform="matrix(1,0,0,1,457.1465527853436,112.15522395678234) translate(431.2600514403292 14.917037037037037)"/><use xlink:href="#j" transform="matrix(1,0,0,1,457.1465527853436,112.15522395678234) translate(477.9137551440329 14.917037037037037)"/><use xlink:href="#k" transform="matrix(1,0,0,1,457.1465527853436,112.15522395678234) translate(494.9096399176955 14.917037037037037)"/><path d="M222.25 232.25c0 6.77-5.48 12.25-12.25 12.25s-12.25-5.48-12.25-12.25S203.23 220 210 220s12.25 5.48 12.25 12.25z" stroke="#333" stroke-width="2" fill="#fff"/><path d="M210 244.5v26.3c0 4.42 2.18 10.84 4.86 14.35L240 318m-30-39.2L180 318m0-61.25h60" stroke="#333" stroke-width="2" fill="none"/><path d="M180 228c0-4.42 3.58-8 8-8h44c4.42 0 8 3.58 8 8v104c0 4.42-3.58 8-8 8h-44c-4.42 0-8-3.58-8-8z" fill="none"/><use xlink:href="#l" transform="matrix(1,0,0,1,100,318) translate(70.125 14.6)"/><path d="M400 224l16.8-14H580v123.2L566 350H400z" stroke="#333" fill="#fff"/><path d="M400 224l16.8-14H580l-14 14z" stroke="#333" fill="#e6e6e6"/><path d="M566 224l14-14v123.2L566 350z" stroke="#333" fill="#ccc"/><use xlink:href="#m" transform="matrix(1,0,0,1,408,232) translate(14.574999999999996 14.4)"/><use xlink:href="#n" transform="matrix(1,0,0,1,408,232) translate(44.7 36)"/><path d="M880 503.12v-66.24" stroke="#333" fill="none"/><path d="M880 517.88l-4.64-14.26h9.28zM880 422.12l4.64 14.26h-9.28z" stroke="#333" fill="#333"/><path d="M596.88 280H650v185h53.12" stroke="#333" fill="none"/><path d="M582.12 280l14.26-4.64v9.28zM717.88 465l-14.26 4.64v-9.28z" stroke="#333" fill="#333"/><path d="M760 308c0-4.42 3.58-8 8-8h244c4.42 0 8 3.58 8 8v104c0 4.42-3.58 8-8 8H768c-4.42 0-8-3.58-8-8z" stroke="#333" fill="#fff"/><path d="M740 328c0-4.42 3.58-8 8-8h24c4.42 0 8 3.58 8 8v4c0 4.42-3.58 8-8 8h-24c-4.42 0-8-3.58-8-8zM740 388c0-4.42 3.58-8 8-8h24c4.42 0 8 3.58 8 8v4c0 4.42-3.58 8-8 8h-24c-4.42 0-8-3.58-8-8z" stroke="#333" fill="#fff"/><use xlink:href="#o" transform="matrix(1,0,0,1,796,312) translate(60.574999999999996 40.8)"/><use xlink:href="#p" transform="matrix(1,0,0,1,796,312) translate(23.625 62.4)"/><path d="M760 528c0-4.42 3.58-8 8-8h244c4.42 0 8 3.58 8 8v104c0 4.42-3.58 8-8 8H768c-4.42 0-8-3.58-8-8z" stroke="#333" fill="#fff"/><path d="M740 548c0-4.42 3.58-8 8-8h24c4.42 0 8 3.58 8 8v4c0 4.42-3.58 8-8 8h-24c-4.42 0-8-3.58-8-8zM740 608c0-4.42 3.58-8 8-8h24c4.42 0 8 3.58 8 8v4c0 4.42-3.58 8-8 8h-24c-4.42 0-8-3.58-8-8z" stroke="#333" fill="#fff"/><use xlink:href="#q" transform="matrix(1,0,0,1,796.0000000000002,532) translate(1.3249999999999886 51.6)"/><use xlink:href="#r" transform="matrix(1,0,0,1,796.0000000000002,532) translate(88.07499999999999 51.6)"/><use xlink:href="#s" transform="matrix(1,0,0,1,796.0000000000002,532) translate(114.975 51.6)"/><use xlink:href="#t" transform="matrix(1,0,0,1,796.0000000000002,532) translate(171.725 51.6)"/><path d="M180 539c0-4.42 2.75-10.3 6.15-13.12l12.9-10.76c3.4-2.83 9.73-5.12 14.15-5.12H512c4.42 0 8 3.58 8 8v168.8c0 4.42-2.3 10.75-5.12 14.15l-10.76 12.9c-2.83 3.4-8.7 6.15-13.12 6.15H188c-4.42 0-8-3.58-8-8z" stroke="#333" fill="#fff"/><path d="M188 531c-4.42 0-5.25-2.3-1.85-5.12l12.9-10.76c3.4-2.83 9.73-5.12 14.15-5.12H512c4.42 0 5.47 2.53 2.34 5.66l-9.68 9.68c-3.13 3.13-9.24 5.66-13.66 5.66z" stroke="#333" fill="#e6e6e6"/><path d="M499 539c0-4.42 2.53-10.53 5.66-13.66l9.68-9.68c3.13-3.13 5.66-2.08 5.66 2.34v168.8c0 4.42-2.3 10.75-5.12 14.15l-10.76 12.9c-2.83 3.4-5.12 2.57-5.12-1.85z" stroke="#333" fill="#ccc"/><use xlink:href="#u" transform="matrix(1,0,0,1,188,539) translate(0 16.6)"/><path d="M220 588c0-4.42 3.58-8 8-8h244c4.42 0 8 3.58 8 8v104c0 4.42-3.58 8-8 8H228c-4.42 0-8-3.58-8-8z" stroke="#333" fill="#fff"/><path d="M200 608c0-4.42 3.58-8 8-8h24c4.42 0 8 3.58 8 8v4c0 4.42-3.58 8-8 8h-24c-4.42 0-8-3.58-8-8zM200 668c0-4.42 3.58-8 8-8h24c4.42 0 8 3.58 8 8v4c0 4.42-3.58 8-8 8h-24c-4.42 0-8-3.58-8-8z" stroke="#333" fill="#fff"/><use xlink:href="#v" transform="matrix(1,0,0,1,256,592) translate(15.149999999999991 40.8)"/><use xlink:href="#w" transform="matrix(1,0,0,1,256,592) translate(100.05 40.8)"/><use xlink:href="#x" transform="matrix(1,0,0,1,256,592) translate(27.625 62.4)"/><use xlink:href="#y" transform="matrix(1,0,0,1,256,592) translate(75.575 62.4)"/><path d="M276.38 280h106.74" stroke="#333" fill="none"/><path d="M261.62 280l14.26-4.64v9.28zM397.88 280l-14.26 4.64v-9.28z" stroke="#333" fill="#333"/><path d="M1340 233.5c0-4.42 2.75-10.3 6.15-13.12l14.1-11.76c3.4-2.83 9.73-5.12 14.15-5.12H1552c4.42 0 8 3.58 8 8v217.6c0 4.42-2.3 10.75-5.12 14.15l-11.76 14.1c-2.83 3.4-8.7 6.15-13.12 6.15h-182c-4.42 0-8-3.58-8-8z" stroke="#333" fill="#fff"/><path d="M1348 225.5c-4.42 0-5.25-2.3-1.85-5.12l14.1-11.76c3.4-2.83 9.73-5.12 14.15-5.12H1552c4.42 0 5.47 2.53 2.34 5.66l-10.68 10.68c-3.13 3.13-9.24 5.66-13.66 5.66z" stroke="#333" fill="#e6e6e6"/><path d="M1538 233.5c0-4.42 2.53-10.53 5.66-13.66l10.68-10.68c3.13-3.13 5.66-2.08 5.66 2.34v217.6c0 4.42-2.3 10.75-5.12 14.15l-11.76 14.1c-2.83 3.4-5.12 2.57-5.12-1.85z" stroke="#333" fill="#ccc"/><g><use xlink:href="#z" transform="matrix(1,0,0,1,1348,233.5000000000582) translate(0 16.6)"/><use xlink:href="#A" transform="matrix(1,0,0,1,1348,233.5000000000582) translate(47.95 16.6)"/><use xlink:href="#B" transform="matrix(1,0,0,1,1348,233.5000000000582) translate(73.9 16.6)"/></g><path d="M1380 311.5c0-4.42 3.58-8 8-8h124c4.42 0 8 3.58 8 8v104c0 4.42-3.58 8-8 8h-124c-4.42 0-8-3.58-8-8z" stroke="#333" fill="#fff"/><path d="M1360 331.5c0-4.42 3.58-8 8-8h24c4.42 0 8 3.58 8 8v4c0 4.42-3.58 8-8 8h-24c-4.42 0-8-3.58-8-8zM1360 391.5c0-4.42 3.58-8 8-8h24c4.42 0 8 3.58 8 8v4c0 4.42-3.58 8-8 8h-24c-4.42 0-8-3.58-8-8z" stroke="#333" fill="#fff"/><g><use xlink:href="#C" transform="matrix(1,0,0,1,1392,315.5000000000582) translate(25.049999999999997 51.6)"/></g><path d="M1036.88 360H1190v-26.7h153.12" stroke="#333" fill="none"/><path d="M1022.12 360l14.26-4.64v9.28zM1357.88 333.3l-14.26 4.65v-9.27z" stroke="#333" fill="#333"/><path d="M1036.88 580H1190V393.7h153.12" stroke="#333" fill="none"/><path d="M1022.12 580l14.26-4.64v9.28zM1357.88 393.7l-14.26 4.62v-9.27z" stroke="#333" fill="#333"/><path d="M496.88 640H600v-47.15h103.12" stroke="#333" fill="none"/><path d="M482.12 640l14.26-4.64v9.28zM717.88 592.85l-14.26 4.64v-9.28z" stroke="#333" fill="#333"/><defs><path d="M169-182c-1-43-94-46-97-3 18 66 151 10 154 114 3 95-165 93-204 36-6-8-10-19-12-30l50-8c3 46 112 56 116 5-17-69-150-10-154-114-4-87 153-88 188-35 5 8 8 18 10 28" id="D"/><path d="M185-48c-13 30-37 53-82 52C43 2 14-33 14-96s30-98 90-98c62 0 83 45 84 108H66c0 31 8 55 39 56 18 0 30-7 34-22zm-45-69c5-46-57-63-70-21-2 6-4 13-4 21h74" id="E"/><path d="M135-150c-39-12-60 13-60 57V0H25l-1-190h47c2 13-1 29 3 40 6-28 27-53 61-41v41" id="F"/><path d="M128 0H69L1-190h53L99-40l48-150h52" id="G"/><path d="M85 4C-2 5 27-109 22-190h50c7 57-23 150 33 157 60-5 35-97 40-157h50l1 190h-47c-2-12 1-28-3-38-12 25-28 42-61 42" id="H"/><g id="a"><use transform="matrix(0.05,0,0,0.05,0,0)" xlink:href="#D"/><use transform="matrix(0.05,0,0,0.05,12,0)" xlink:href="#E"/><use transform="matrix(0.05,0,0,0.05,22,0)" xlink:href="#F"/><use transform="matrix(0.05,0,0,0.05,29,0)" xlink:href="#G"/><use transform="matrix(0.05,0,0,0.05,39,0)" xlink:href="#E"/><use transform="matrix(0.05,0,0,0.05,49,0)" xlink:href="#H"/><use transform="matrix(0.05,0,0,0.05,59.95,0)" xlink:href="#F"/></g><path d="M275 0h-61l-44-196L126 0H64L0-248h53L97-49l45-199h58l43 199 44-199h52" id="I"/><path d="M135-194c52 0 70 43 70 98 0 56-19 99-73 100-30 1-46-15-58-35L72 0H24l1-261h50v104c11-23 29-37 60-37zM114-30c31 0 40-27 40-66 0-37-7-63-39-63s-41 28-41 65c0 36 8 64 40 64" id="J"/><g id="b"><use transform="matrix(0.05,0,0,0.05,0,0)" xlink:href="#I"/><use transform="matrix(0.05,0,0,0.05,16.599999999999998,0)" xlink:href="#E"/><use transform="matrix(0.05,0,0,0.05,26.599999999999994,0)" xlink:href="#J"/></g><path fill="#b2b2b2" d="M24-248c120-7 223 5 221 122C244-46 201 0 124 0H24v-248zM76-40c74 7 117-18 117-86 0-67-45-88-117-82v168" id="K"/><path fill="#b2b2b2" d="M25-224v-37h50v37H25zM25 0v-190h50V0H25" id="L"/><path fill="#b2b2b2" d="M133-34C117-15 103 5 69 4 32 3 11-16 11-54c-1-60 55-63 116-61 1-26-3-47-28-47-18 1-26 9-28 27l-52-2c7-38 36-58 82-57s74 22 75 68l1 82c-1 14 12 18 25 15v27c-30 8-71 5-69-32zm-48 3c29 0 43-24 42-57-32 0-66-3-65 30 0 17 8 27 23 27" id="M"/><path fill="#b2b2b2" d="M195-6C206 82 75 100 31 46c-4-6-6-13-8-21l49-6c3 16 16 24 34 25 40 0 42-37 40-79-11 22-30 35-61 35-53 0-70-43-70-97 0-56 18-96 73-97 30 0 46 14 59 34l2-30h47zm-90-29c32 0 41-27 41-63 0-35-9-62-40-62-32 0-39 29-40 63 0 36 9 62 39 62" id="N"/><path fill="#b2b2b2" d="M135-150c-39-12-60 13-60 57V0H25l-1-190h47c2 13-1 29 3 40 6-28 27-53 61-41v41" id="O"/><path fill="#b2b2b2" d="M220-157c-53 9-28 100-34 157h-49v-107c1-27-5-49-29-50C55-147 81-57 75 0H25l-1-190h47c2 12-1 28 3 38 10-53 101-56 108 0 13-22 24-43 59-42 82 1 51 116 57 194h-49v-107c-1-25-5-48-29-50" id="P"/><path fill="#b2b2b2" d="M185-48c-13 30-37 53-82 52C43 2 14-33 14-96s30-98 90-98c62 0 83 45 84 108H66c0 31 8 55 39 56 18 0 30-7 34-22zm-45-69c5-46-57-63-70-21-2 6-4 13-4 21h74" id="Q"/><g id="c"><use transform="matrix(0.0728395061728395,0,0,0.0728395061728395,0,0)" xlink:href="#K"/><use transform="matrix(0.0728395061728395,0,0,0.0728395061728395,18.86543209876543,0)" xlink:href="#L"/><use transform="matrix(0.0728395061728395,0,0,0.0728395061728395,26.14938271604938,0)" xlink:href="#M"/><use transform="matrix(0.0728395061728395,0,0,0.0728395061728395,40.717283950617286,0)" xlink:href="#N"/><use transform="matrix(0.0728395061728395,0,0,0.0728395061728395,56.66913580246913,0)" xlink:href="#O"/><use transform="matrix(0.0728395061728395,0,0,0.0728395061728395,66.86666666666666,0)" xlink:href="#M"/><use transform="matrix(0.0728395061728395,0,0,0.0728395061728395,81.43456790123457,0)" xlink:href="#P"/><use transform="matrix(0.0728395061728395,0,0,0.0728395061728395,104.7432098765432,0)" xlink:href="#P"/><use transform="matrix(0.0728395061728395,0,0,0.0728395061728395,128.05185185185184,0)" xlink:href="#Q"/></g><path fill="#b2b2b2" d="M88-194c31-1 46 15 58 34l-1-101h50l1 261h-48c-2-10 0-23-3-31C134-8 116 4 84 4 32 4 16-41 15-95c0-56 19-97 73-99zm17 164c33 0 40-30 41-66 1-37-9-64-41-64s-38 30-39 65c0 43 13 65 39 65" id="R"/><g id="d"><use transform="matrix(0.0728395061728395,0,0,0.0728395061728395,0,0)" xlink:href="#R"/><use transform="matrix(0.0728395061728395,0,0,0.0728395061728395,15.95185185185185,0)" xlink:href="#Q"/></g><path fill="#b2b2b2" d="M185-48c-13 30-37 53-82 52C43 2 14-33 14-96s30-98 90-98c62 0 83 45 84 108H66c0 31 8 55 39 56 18 0 30-7 34-22zm-45-69c5-46-57-63-70-21-2 6-4 13-4 21h74zm-67-91v-5l45-51h45v8l-60 48H73" id="S"/><path fill="#b2b2b2" d="M135-194c53 0 70 44 70 98 0 56-19 98-73 100-31 1-45-17-59-34 3 33 2 69 2 105H25l-1-265h48c2 10 0 23 3 31 11-24 29-35 60-35zM114-30c33 0 39-31 40-66 0-38-9-64-40-64-56 0-55 130 0 130" id="T"/><path fill="#b2b2b2" d="M25 0v-261h50V0H25" id="U"/><path fill="#b2b2b2" d="M110-194c64 0 96 36 96 99 0 64-35 99-97 99-61 0-95-36-95-99 0-62 34-99 96-99zm-1 164c35 0 45-28 45-65 0-40-10-65-43-65-34 0-45 26-45 65 0 36 10 65 43 65" id="V"/><path fill="#b2b2b2" d="M135-194c87-1 58 113 63 194h-50c-7-57 23-157-34-157-59 0-34 97-39 157H25l-1-190h47c2 12-1 28 3 38 12-26 28-41 61-42" id="W"/><path fill="#b2b2b2" d="M115-3C79 11 28 4 28-45v-112H4v-33h27l15-45h31v45h36v33H77v99c-1 23 16 31 38 25v30" id="X"/><g id="e"><use transform="matrix(0.0728395061728395,0,0,0.0728395061728395,0,0)" xlink:href="#K"/><use transform="matrix(0.0728395061728395,0,0,0.0728395061728395,18.86543209876543,0)" xlink:href="#S"/><use transform="matrix(0.0728395061728395,0,0,0.0728395061728395,33.43333333333333,0)" xlink:href="#T"/><use transform="matrix(0.0728395061728395,0,0,0.0728395061728395,49.38518518518518,0)" xlink:href="#U"/><use transform="matrix(0.0728395061728395,0,0,0.0728395061728395,56.66913580246913,0)" xlink:href="#V"/><use transform="matrix(0.0728395061728395,0,0,0.0728395061728395,72.62098765432098,0)" xlink:href="#L"/><use transform="matrix(0.0728395061728395,0,0,0.0728395061728395,79.90493827160493,0)" xlink:href="#Q"/><use transform="matrix(0.0728395061728395,0,0,0.0728395061728395,94.47283950617283,0)" xlink:href="#P"/><use transform="matrix(0.0728395061728395,0,0,0.0728395061728395,117.78148148148148,0)" xlink:href="#Q"/><use transform="matrix(0.0728395061728395,0,0,0.0728395061728395,132.34938271604938,0)" xlink:href="#W"/><use transform="matrix(0.0728395061728395,0,0,0.0728395061728395,148.30123456790122,0)" xlink:href="#X"/></g><path fill="#b2b2b2" d="M160-131c35 5 61 23 61 61C221 17 115-2 30 0v-248c76 3 177-17 177 60 0 33-19 50-47 57zm-97-11c50-1 110 9 110-42 0-47-63-36-110-37v79zm0 115c55-2 124 14 124-45 0-56-70-42-124-44v89" id="Y"/><path fill="#b2b2b2" d="M100-194c63 0 86 42 84 106H49c0 40 14 67 53 68 26 1 43-12 49-29l28 8c-11 28-37 45-77 45C44 4 14-33 15-96c1-61 26-98 85-98zm52 81c6-60-76-77-97-28-3 7-6 17-6 28h103" id="Z"/><path fill="#b2b2b2" d="M117-194c89-4 53 116 60 194h-32v-121c0-31-8-49-39-48C34-167 62-67 57 0H25l-1-190h30c1 10-1 24 2 32 11-22 29-35 61-36" id="aa"/><path fill="#b2b2b2" d="M100-194c62-1 85 37 85 99 1 63-27 99-86 99S16-35 15-95c0-66 28-99 85-99zM99-20c44 1 53-31 53-75 0-43-8-75-51-75s-53 32-53 75 10 74 51 75" id="ab"/><path fill="#b2b2b2" d="M34 0v-190h32V0H34zm35-262c12 18 30 30 39 51-31 2-38-20-57-30-20 10-27 32-59 30 9-22 29-33 41-51h36" id="ac"/><path fill="#b2b2b2" d="M59-47c-2 24 18 29 38 22v24C64 9 27 4 27-40v-127H5v-23h24l9-43h21v43h35v23H59v120" id="ad"/><g id="f"><use transform="matrix(0.04248971193415638,0,0,0.04248971193415638,0,0)" xlink:href="#Y"/><use transform="matrix(0.04248971193415638,0,0,0.04248971193415638,10.19753086419753,0)" xlink:href="#Z"/><use transform="matrix(0.04248971193415638,0,0,0.04248971193415638,18.695473251028805,0)" xlink:href="#aa"/><use transform="matrix(0.04248971193415638,0,0,0.04248971193415638,27.193415637860078,0)" xlink:href="#ab"/><use transform="matrix(0.04248971193415638,0,0,0.04248971193415638,35.691358024691354,0)" xlink:href="#ac"/><use transform="matrix(0.04248971193415638,0,0,0.04248971193415638,39.94032921810699,0)" xlink:href="#ad"/></g><path fill="#b2b2b2" d="M63-220v92h138v28H63V0H30v-248h175v28H63" id="ae"/><path fill="#b2b2b2" d="M233-177c-1 41-23 64-60 70L243 0h-38l-65-103H63V0H30v-248c88 3 205-21 203 71zM63-129c60-2 137 13 137-47 0-61-80-42-137-45v92" id="af"/><path fill="#b2b2b2" d="M205 0l-28-72H64L36 0H1l101-248h38L239 0h-34zm-38-99l-47-123c-12 45-31 82-46 123h93" id="ag"/><path fill="#b2b2b2" d="M153-248C145-148 188 4 80 4 36 3 13-21 6-62l32-5c4 25 16 42 43 43 27 0 39-20 39-49v-147H72v-28h81" id="ah"/><g id="g"><use transform="matrix(0.04248971193415638,0,0,0.04248971193415638,0,0)" xlink:href="#ae"/><use transform="matrix(0.04248971193415638,0,0,0.04248971193415638,9.305246913580246,0)" xlink:href="#af"/><use transform="matrix(0.04248971193415638,0,0,0.04248971193415638,20.31008230452675,0)" xlink:href="#ag"/><use transform="matrix(0.04248971193415638,0,0,0.04248971193415638,30.50761316872428,0)" xlink:href="#ah"/></g><path fill="#b2b2b2" d="M32 76v-337h29V76H32" id="ai"/><use transform="matrix(0.04248971193415638,0,0,0.04248971193415638,0,0)" xlink:href="#ai" id="h"/><path fill="#b2b2b2" d="M240 0l2-218c-23 76-54 145-80 218h-23L58-218 59 0H30v-248h44l77 211c21-75 51-140 76-211h43V0h-30" id="aj"/><path fill="#b2b2b2" d="M141-36C126-15 110 5 73 4 37 3 15-17 15-53c-1-64 63-63 125-63 3-35-9-54-41-54-24 1-41 7-42 31l-33-3c5-37 33-52 76-52 45 0 72 20 72 64v82c-1 20 7 32 28 27v20c-31 9-61-2-59-35zM48-53c0 20 12 33 32 33 41-3 63-29 60-74-43 2-92-5-92 41" id="ak"/><path fill="#b2b2b2" d="M114-163C36-179 61-72 57 0H25l-1-190h30c1 12-1 29 2 39 6-27 23-49 58-41v29" id="al"/><path fill="#b2b2b2" d="M96-169c-40 0-48 33-48 73s9 75 48 75c24 0 41-14 43-38l32 2c-6 37-31 61-74 61-59 0-76-41-82-99-10-93 101-131 147-64 4 7 5 14 7 22l-32 3c-4-21-16-35-41-35" id="am"/><path fill="#b2b2b2" d="M106-169C34-169 62-67 57 0H25v-261h32l-1 103c12-21 28-36 61-36 89 0 53 116 60 194h-32v-121c2-32-8-49-39-48" id="an"/><g id="i"><use transform="matrix(0.04248971193415638,0,0,0.04248971193415638,0,0)" xlink:href="#aj"/><use transform="matrix(0.04248971193415638,0,0,0.04248971193415638,12.704423868312757,0)" xlink:href="#ak"/><use transform="matrix(0.04248971193415638,0,0,0.04248971193415638,21.20236625514403,0)" xlink:href="#al"/><use transform="matrix(0.04248971193415638,0,0,0.04248971193415638,26.25864197530864,0)" xlink:href="#am"/><use transform="matrix(0.04248971193415638,0,0,0.04248971193415638,33.90679012345679,0)" xlink:href="#an"/></g><path fill="#b2b2b2" d="M101-251c82-7 93 87 43 132L82-64C71-53 59-42 53-27h129V0H18c2-99 128-94 128-182 0-28-16-43-45-43s-46 15-49 41l-32-3c6-41 34-60 81-64" id="ao"/><path fill="#b2b2b2" d="M68-38c1 34 0 65-14 84H32c9-13 17-26 17-46H33v-38h35" id="ap"/><g id="j"><use transform="matrix(0.04248971193415638,0,0,0.04248971193415638,0,0)" xlink:href="#ao"/><use transform="matrix(0.04248971193415638,0,0,0.04248971193415638,8.497942386831275,0)" xlink:href="#ap"/></g><path fill="#b2b2b2" d="M101-251c68 0 85 55 85 127S166 4 100 4C33 4 14-52 14-124c0-73 17-127 87-127zm-1 229c47 0 54-49 54-102s-4-102-53-102c-51 0-55 48-55 102 0 53 5 102 54 102" id="aq"/><g id="k"><use transform="matrix(0.04248971193415638,0,0,0.04248971193415638,0,0)" xlink:href="#ao"/><use transform="matrix(0.04248971193415638,0,0,0.04248971193415638,8.497942386831275,0)" xlink:href="#aq"/><use transform="matrix(0.04248971193415638,0,0,0.04248971193415638,16.99588477366255,0)" xlink:href="#ao"/><use transform="matrix(0.04248971193415638,0,0,0.04248971193415638,25.493827160493822,0)" xlink:href="#aq"/></g><path fill="#333" d="M232-93c-1 65-40 97-104 97C67 4 28-28 28-90v-158h33c8 89-33 224 67 224 102 0 64-133 71-224h33v155" id="ar"/><path fill="#333" d="M59-47c-2 24 18 29 38 22v24C64 9 27 4 27-40v-127H5v-23h24l9-43h21v43h35v23H59v120" id="as"/><path fill="#333" d="M24-231v-30h32v30H24zM24 0v-190h32V0H24" id="at"/><path fill="#333" d="M24 0v-261h32V0H24" id="au"/><path fill="#333" d="M135-143c-3-34-86-38-87 0 15 53 115 12 119 90S17 21 10-45l28-5c4 36 97 45 98 0-10-56-113-15-118-90-4-57 82-63 122-42 12 7 21 19 24 35" id="av"/><path fill="#333" d="M141-36C126-15 110 5 73 4 37 3 15-17 15-53c-1-64 63-63 125-63 3-35-9-54-41-54-24 1-41 7-42 31l-33-3c5-37 33-52 76-52 45 0 72 20 72 64v82c-1 20 7 32 28 27v20c-31 9-61-2-59-35zM48-53c0 20 12 33 32 33 41-3 63-29 60-74-43 2-92-5-92 41" id="aw"/><path fill="#333" d="M100-194c63 0 86 42 84 106H49c0 40 14 67 53 68 26 1 43-12 49-29l28 8c-11 28-37 45-77 45C44 4 14-33 15-96c1-61 26-98 85-98zm52 81c6-60-76-77-97-28-3 7-6 17-6 28h103" id="ax"/><path fill="#333" d="M84 4C-5 8 30-112 23-190h32v120c0 31 7 50 39 49 72-2 45-101 50-169h31l1 190h-30c-1-10 1-25-2-33-11 22-28 36-60 37" id="ay"/><path fill="#333" d="M114-163C36-179 61-72 57 0H25l-1-190h30c1 12-1 29 2 39 6-27 23-49 58-41v29" id="az"/><g id="l"><use transform="matrix(0.05,0,0,0.05,0,0)" xlink:href="#ar"/><use transform="matrix(0.05,0,0,0.05,12.950000000000001,0)" xlink:href="#as"/><use transform="matrix(0.05,0,0,0.05,17.950000000000003,0)" xlink:href="#at"/><use transform="matrix(0.05,0,0,0.05,21.900000000000002,0)" xlink:href="#au"/><use transform="matrix(0.05,0,0,0.05,25.85,0)" xlink:href="#at"/><use transform="matrix(0.05,0,0,0.05,29.8,0)" xlink:href="#av"/><use transform="matrix(0.05,0,0,0.05,38.8,0)" xlink:href="#aw"/><use transform="matrix(0.05,0,0,0.05,48.8,0)" xlink:href="#as"/><use transform="matrix(0.05,0,0,0.05,53.79999999999999,0)" xlink:href="#ax"/><use transform="matrix(0.05,0,0,0.05,63.79999999999999,0)" xlink:href="#ay"/><use transform="matrix(0.05,0,0,0.05,73.8,0)" xlink:href="#az"/></g><path fill="#333" d="M190 0L58-211 59 0H30v-248h39L202-35l-2-213h31V0h-41" id="aA"/><path fill="#333" d="M108 0H70L1-190h34L89-25l56-165h34" id="aB"/><path fill="#333" d="M177-190C167-65 218 103 67 71c-23-6-38-20-44-43l32-5c15 47 100 32 89-28v-30C133-14 115 1 83 1 29 1 15-40 15-95c0-56 16-97 71-98 29-1 48 16 59 35 1-10 0-23 2-32h30zM94-22c36 0 50-32 50-73 0-42-14-75-50-75-39 0-46 34-46 75s6 73 46 73" id="aC"/><g id="m"><use transform="matrix(0.05,0,0,0.05,0,0)" xlink:href="#aA"/><use transform="matrix(0.05,0,0,0.05,12.950000000000001,0)" xlink:href="#aw"/><use transform="matrix(0.05,0,0,0.05,22.950000000000003,0)" xlink:href="#aB"/><use transform="matrix(0.05,0,0,0.05,31.950000000000003,0)" xlink:href="#at"/><use transform="matrix(0.05,0,0,0.05,35.900000000000006,0)" xlink:href="#aC"/><use transform="matrix(0.05,0,0,0.05,45.900000000000006,0)" xlink:href="#ay"/><use transform="matrix(0.05,0,0,0.05,55.900000000000006,0)" xlink:href="#aw"/><use transform="matrix(0.05,0,0,0.05,65.9,0)" xlink:href="#as"/><use transform="matrix(0.05,0,0,0.05,70.9,0)" xlink:href="#ax"/><use transform="matrix(0.05,0,0,0.05,80.9,0)" xlink:href="#ay"/><use transform="matrix(0.05,0,0,0.05,90.9,0)" xlink:href="#az"/></g><path fill="#333" d="M266 0h-40l-56-210L115 0H75L2-248h35L96-30l15-64 43-154h32l59 218 59-218h35" id="aD"/><path fill="#333" d="M115-194c53 0 69 39 70 98 0 66-23 100-70 100C84 3 66-7 56-30L54 0H23l1-261h32v101c10-23 28-34 59-34zm-8 174c40 0 45-34 45-75 0-40-5-75-45-74-42 0-51 32-51 76 0 43 10 73 51 73" id="aE"/><g id="n"><use transform="matrix(0.05,0,0,0.05,0,0)" xlink:href="#aD"/><use transform="matrix(0.05,0,0,0.05,16.599999999999998,0)" xlink:href="#ax"/><use transform="matrix(0.05,0,0,0.05,26.599999999999994,0)" xlink:href="#aE"/></g><path d="M24 0v-248h52V0H24" id="aF"/><path d="M135-194c87-1 58 113 63 194h-50c-7-57 23-157-34-157-59 0-34 97-39 157H25l-1-190h47c2 12-1 28 3 38 12-26 28-41 61-42" id="aG"/><path d="M115-3C79 11 28 4 28-45v-112H4v-33h27l15-45h31v45h36v33H77v99c-1 23 16 31 38 25v30" id="aH"/><path d="M121-226c-27-7-43 5-38 36h38v33H83V0H34v-157H6v-33h28c-9-59 32-81 87-68v32" id="aI"/><path d="M133-34C117-15 103 5 69 4 32 3 11-16 11-54c-1-60 55-63 116-61 1-26-3-47-28-47-18 1-26 9-28 27l-52-2c7-38 36-58 82-57s74 22 75 68l1 82c-1 14 12 18 25 15v27c-30 8-71 5-69-32zm-48 3c29 0 43-24 42-57-32 0-66-3-65 30 0 17 8 27 23 27" id="aJ"/><path d="M190-63c-7 42-38 67-86 67-59 0-84-38-90-98-12-110 154-137 174-36l-49 2c-2-19-15-32-35-32-30 0-35 28-38 64-6 74 65 87 74 30" id="aK"/><g id="o"><use transform="matrix(0.05,0,0,0.05,0,0)" xlink:href="#aF"/><use transform="matrix(0.05,0,0,0.05,5,0)" xlink:href="#aG"/><use transform="matrix(0.05,0,0,0.05,15.950000000000001,0)" xlink:href="#aH"/><use transform="matrix(0.05,0,0,0.05,21.900000000000002,0)" xlink:href="#E"/><use transform="matrix(0.05,0,0,0.05,31.900000000000002,0)" xlink:href="#F"/><use transform="matrix(0.05,0,0,0.05,38.900000000000006,0)" xlink:href="#aI"/><use transform="matrix(0.05,0,0,0.05,44.85000000000001,0)" xlink:href="#aJ"/><use transform="matrix(0.05,0,0,0.05,54.85,0)" xlink:href="#aK"/><use transform="matrix(0.05,0,0,0.05,64.85000000000001,0)" xlink:href="#E"/></g><path d="M88-194c31-1 46 15 58 34l-1-101h50l1 261h-48c-2-10 0-23-3-31C134-8 116 4 84 4 32 4 16-41 15-95c0-56 19-97 73-99zm17 164c33 0 40-30 41-66 1-37-9-64-41-64s-38 30-39 65c0 43 13 65 39 65" id="aL"/><path d="M62-158H24l-5-90h48" id="aM"/><path d="M114-157C55-157 80-60 75 0H25v-261h50l-1 109c12-26 28-41 61-42 86-1 58 113 63 194h-50c-7-57 23-157-34-157" id="aN"/><path d="M25-224v-37h50v37H25zM25 0v-190h50V0H25" id="aO"/><path d="M110-194c64 0 96 36 96 99 0 64-35 99-97 99-61 0-95-36-95-99 0-62 34-99 96-99zm-1 164c35 0 45-28 45-65 0-40-10-65-43-65-34 0-45 26-45 65 0 36 10 65 43 65" id="aP"/><g id="p"><use transform="matrix(0.05,0,0,0.05,0,0)" xlink:href="#aL"/><use transform="matrix(0.05,0,0,0.05,10.950000000000001,0)" xlink:href="#aM"/><use transform="matrix(0.05,0,0,0.05,15.200000000000001,0)" xlink:href="#aJ"/><use transform="matrix(0.05,0,0,0.05,25.200000000000003,0)" xlink:href="#H"/><use transform="matrix(0.05,0,0,0.05,36.150000000000006,0)" xlink:href="#aH"/><use transform="matrix(0.05,0,0,0.05,42.10000000000001,0)" xlink:href="#aN"/><use transform="matrix(0.05,0,0,0.05,53.05000000000001,0)" xlink:href="#E"/><use transform="matrix(0.05,0,0,0.05,63.05000000000001,0)" xlink:href="#aG"/><use transform="matrix(0.05,0,0,0.05,74.00000000000001,0)" xlink:href="#aH"/><use transform="matrix(0.05,0,0,0.05,79.95000000000002,0)" xlink:href="#aO"/><use transform="matrix(0.05,0,0,0.05,84.95000000000002,0)" xlink:href="#aI"/><use transform="matrix(0.05,0,0,0.05,90.90000000000002,0)" xlink:href="#aO"/><use transform="matrix(0.05,0,0,0.05,95.90000000000002,0)" xlink:href="#aK"/><use transform="matrix(0.05,0,0,0.05,105.90000000000003,0)" xlink:href="#aJ"/><use transform="matrix(0.05,0,0,0.05,115.90000000000003,0)" xlink:href="#aH"/><use transform="matrix(0.05,0,0,0.05,121.85000000000002,0)" xlink:href="#aO"/><use transform="matrix(0.05,0,0,0.05,126.85000000000002,0)" xlink:href="#aP"/><use transform="matrix(0.05,0,0,0.05,137.8,0)" xlink:href="#aG"/></g><path d="M199 0l-22-63H83L61 0H9l90-248h61L250 0h-51zm-33-102l-36-108c-10 38-24 72-36 108h72" id="aQ"/><path d="M195-6C206 82 75 100 31 46c-4-6-6-13-8-21l49-6c3 16 16 24 34 25 40 0 42-37 40-79-11 22-30 35-61 35-53 0-70-43-70-97 0-56 18-96 73-97 30 0 46 14 59 34l2-30h47zm-90-29c32 0 41-27 41-63 0-35-9-62-40-62-32 0-39 29-40 63 0 36 9 62 39 62" id="aR"/><g id="q"><use transform="matrix(0.05,0,0,0.05,0,0)" xlink:href="#aQ"/><use transform="matrix(0.05,0,0,0.05,12.950000000000001,0)" xlink:href="#aI"/><use transform="matrix(0.05,0,0,0.05,18.900000000000002,0)" xlink:href="#aI"/><use transform="matrix(0.05,0,0,0.05,24.85,0)" xlink:href="#aO"/><use transform="matrix(0.05,0,0,0.05,29.85,0)" xlink:href="#aK"/><use transform="matrix(0.05,0,0,0.05,39.85,0)" xlink:href="#aN"/><use transform="matrix(0.05,0,0,0.05,50.800000000000004,0)" xlink:href="#aJ"/><use transform="matrix(0.05,0,0,0.05,60.800000000000004,0)" xlink:href="#aR"/><use transform="matrix(0.05,0,0,0.05,71.75,0)" xlink:href="#E"/></g><g id="r"><use transform="matrix(0.05,0,0,0.05,0,0)" xlink:href="#aL"/><use transform="matrix(0.05,0,0,0.05,10.950000000000001,0)" xlink:href="#H"/></g><path d="M240-174c0 40-23 61-54 70L253 0h-59l-57-94H76V0H24v-248c93 4 217-23 216 74zM76-134c48-2 112 12 112-38 0-48-66-32-112-35v73" id="aS"/><g id="s"><use transform="matrix(0.05,0,0,0.05,0,0)" xlink:href="#aS"/><use transform="matrix(0.05,0,0,0.05,12.950000000000001,0)" xlink:href="#aP"/><use transform="matrix(0.05,0,0,0.05,23.900000000000002,0)" xlink:href="#J"/><use transform="matrix(0.05,0,0,0.05,34.85,0)" xlink:href="#aP"/><use transform="matrix(0.05,0,0,0.05,45.800000000000004,0)" xlink:href="#aH"/></g><path d="M128-127c34 4 56 21 59 58 7 91-148 94-172 28-4-9-6-17-7-26l51-5c1 24 16 35 40 36 23 0 39-12 38-36-1-31-31-36-65-34v-40c32 2 59-3 59-33 0-20-13-33-34-33s-33 13-35 32l-50-3c6-44 37-68 86-68 50 0 83 20 83 66 0 35-22 52-53 58" id="aT"/><path d="M24-248c120-7 223 5 221 122C244-46 201 0 124 0H24v-248zM76-40c74 7 117-18 117-86 0-67-45-88-117-82v168" id="aU"/><g id="t"><use transform="matrix(0.05,0,0,0.05,0,0)" xlink:href="#aT"/><use transform="matrix(0.05,0,0,0.05,10,0)" xlink:href="#aU"/></g><g id="u"><use transform="matrix(0.05,0,0,0.05,0,0)" xlink:href="#aS"/><use transform="matrix(0.05,0,0,0.05,12.950000000000001,0)" xlink:href="#aP"/><use transform="matrix(0.05,0,0,0.05,23.900000000000002,0)" xlink:href="#J"/><use transform="matrix(0.05,0,0,0.05,34.85,0)" xlink:href="#aP"/><use transform="matrix(0.05,0,0,0.05,45.800000000000004,0)" xlink:href="#aH"/></g><path d="M24 0v-248h195v40H76v63h132v40H76v65h150V0H24" id="aV"/><path d="M220-157c-53 9-28 100-34 157h-49v-107c1-27-5-49-29-50C55-147 81-57 75 0H25l-1-190h47c2 12-1 28 3 38 10-53 101-56 108 0 13-22 24-43 59-42 82 1 51 116 57 194h-49v-107c-1-25-5-48-29-50" id="aW"/><path d="M137-138c1-29-70-34-71-4 15 46 118 7 119 86 1 83-164 76-172 9l43-7c4 19 20 25 44 25 33 8 57-30 24-41C81-84 22-81 20-136c-2-80 154-74 161-7" id="aX"/><g id="v"><use transform="matrix(0.05,0,0,0.05,0,0)" xlink:href="#aV"/><use transform="matrix(0.05,0,0,0.05,12,0)" xlink:href="#aW"/><use transform="matrix(0.05,0,0,0.05,28,0)" xlink:href="#aO"/><use transform="matrix(0.05,0,0,0.05,33,0)" xlink:href="#aX"/><use transform="matrix(0.05,0,0,0.05,43,0)" xlink:href="#aX"/><use transform="matrix(0.05,0,0,0.05,53,0)" xlink:href="#aO"/><use transform="matrix(0.05,0,0,0.05,58,0)" xlink:href="#aP"/><use transform="matrix(0.05,0,0,0.05,68.95,0)" xlink:href="#aG"/></g><path d="M24-248c93 1 206-16 204 79-1 75-69 88-152 82V0H24v-248zm52 121c47 0 100 7 100-41 0-47-54-39-100-39v80" id="aY"/><g id="w"><use transform="matrix(0.05,0,0,0.05,0,0)" xlink:href="#aY"/><use transform="matrix(0.05,0,0,0.05,12,0)" xlink:href="#aP"/><use transform="matrix(0.05,0,0,0.05,22.950000000000003,0)" xlink:href="#aX"/><use transform="matrix(0.05,0,0,0.05,32.95,0)" xlink:href="#aO"/><use transform="matrix(0.05,0,0,0.05,37.95,0)" xlink:href="#aH"/><use transform="matrix(0.05,0,0,0.05,43.900000000000006,0)" xlink:href="#aO"/><use transform="matrix(0.05,0,0,0.05,48.900000000000006,0)" xlink:href="#aP"/><use transform="matrix(0.05,0,0,0.05,59.85,0)" xlink:href="#aG"/><use transform="matrix(0.05,0,0,0.05,70.80000000000001,0)" xlink:href="#aX"/></g><path d="M144 0l-44-69L55 0H2l70-98-66-92h53l41 62 40-62h54l-67 91 71 99h-54" id="aZ"/><g id="x"><use transform="matrix(0.05,0,0,0.05,0,0)" xlink:href="#aQ"/><use transform="matrix(0.05,0,0,0.05,12.950000000000001,0)" xlink:href="#aZ"/><use transform="matrix(0.05,0,0,0.05,22.950000000000003,0)" xlink:href="#E"/><use transform="matrix(0.05,0,0,0.05,32.95,0)" xlink:href="#aX"/></g><path d="M25 0v-261h50V0H25" id="ba"/><g id="y"><use transform="matrix(0.05,0,0,0.05,0,0)" xlink:href="#aQ"/><use transform="matrix(0.05,0,0,0.05,12.950000000000001,0)" xlink:href="#aG"/><use transform="matrix(0.05,0,0,0.05,23.900000000000002,0)" xlink:href="#aR"/><use transform="matrix(0.05,0,0,0.05,34.85,0)" xlink:href="#H"/><use transform="matrix(0.05,0,0,0.05,45.800000000000004,0)" xlink:href="#ba"/><use transform="matrix(0.05,0,0,0.05,50.800000000000004,0)" xlink:href="#aJ"/><use transform="matrix(0.05,0,0,0.05,60.800000000000004,0)" xlink:href="#aO"/><use transform="matrix(0.05,0,0,0.05,65.80000000000001,0)" xlink:href="#F"/><use transform="matrix(0.05,0,0,0.05,72.80000000000001,0)" xlink:href="#E"/><use transform="matrix(0.05,0,0,0.05,82.80000000000001,0)" xlink:href="#aX"/></g><path d="M182-130c37 4 62 22 62 59C244 23 116-4 24 0v-248c84 5 203-23 205 63 0 31-19 50-47 55zM76-148c40-3 101 13 101-30 0-44-60-28-101-31v61zm0 110c48-3 116 14 116-37 0-48-69-32-116-35v72" id="bb"/><g id="z"><use transform="matrix(0.05,0,0,0.05,0,0)" xlink:href="#bb"/><use transform="matrix(0.05,0,0,0.05,12.950000000000001,0)" xlink:href="#aJ"/><use transform="matrix(0.05,0,0,0.05,22.950000000000003,0)" xlink:href="#aX"/><use transform="matrix(0.05,0,0,0.05,32.95,0)" xlink:href="#E"/></g><g id="A"><use transform="matrix(0.05,0,0,0.05,0,0)" xlink:href="#aL"/><use transform="matrix(0.05,0,0,0.05,10.950000000000001,0)" xlink:href="#E"/></g><path d="M185-48c-13 30-37 53-82 52C43 2 14-33 14-96s30-98 90-98c62 0 83 45 84 108H66c0 31 8 55 39 56 18 0 30-7 34-22zm-45-69c5-46-57-63-70-21-2 6-4 13-4 21h74zm-67-91v-5l45-51h45v8l-60 48H73" id="bc"/><g id="B"><use transform="matrix(0.05,0,0,0.05,0,0)" xlink:href="#aL"/><use transform="matrix(0.05,0,0,0.05,10.950000000000001,0)" xlink:href="#aP"/><use transform="matrix(0.05,0,0,0.05,21.900000000000002,0)" xlink:href="#aG"/><use transform="matrix(0.05,0,0,0.05,32.85,0)" xlink:href="#aG"/><use transform="matrix(0.05,0,0,0.05,43.800000000000004,0)" xlink:href="#bc"/><use transform="matrix(0.05,0,0,0.05,53.800000000000004,0)" xlink:href="#E"/><use transform="matrix(0.05,0,0,0.05,63.800000000000004,0)" xlink:href="#aX"/></g><path d="M230 0l2-204L168 0h-37L68-204 70 0H24v-248h70l56 185 57-185h69V0h-46" id="bd"/><path d="M123 10C108 53 80 86 19 72V37c35 8 53-11 59-39L3-190h52l48 148c12-52 28-100 44-148h51" id="be"/><path d="M140-251c80 0 125 45 125 126 0 70-33 111-92 124 6 28 34 38 68 31l-1 36C177 83 129 55 120 2 51-6 15-50 15-125c0-81 44-126 125-126zm-1 214c52 0 73-35 73-88 0-50-21-86-72-86-52 0-73 35-73 86s22 88 72 88" id="bf"/><path d="M24 0v-248h52v208h133V0H24" id="bg"/><g id="C"><use transform="matrix(0.05,0,0,0.05,0,0)" xlink:href="#bd"/><use transform="matrix(0.05,0,0,0.05,14.950000000000001,0)" xlink:href="#be"/><use transform="matrix(0.05,0,0,0.05,24.950000000000003,0)" xlink:href="#D"/><use transform="matrix(0.05,0,0,0.05,36.95,0)" xlink:href="#bf"/><use transform="matrix(0.05,0,0,0.05,50.95,0)" xlink:href="#bg"/></g></defs></g></svg>