<svg xmlns="http://www.w3.org/2000/svg" xmlns:xlink="http://www.w3.org/1999/xlink" xmlns:lucid="lucid" width="1780" height="1084"><g transform="translate(0 -60)" lucid:page-tab-id="0_0"><path d="M0 0h1870.4v1323.2H0z" fill="#fff"/><path d="M20 80h360v242H20z" stroke="#000" stroke-width="2" fill="#fff"/><path d="M20 117.6h360M20 198.3h360" stroke="#000" stroke-width="2" fill="none"/><use xlink:href="#a" transform="matrix(1,0,0,1,28,88) translate(146.575 14.6)"/><use xlink:href="#b" transform="matrix(1,0,0,1,32,125.6) translate(109.625 25.299999999999997)"/><use xlink:href="#c" transform="matrix(1,0,0,1,32,125.6) translate(124.625 25.299999999999997)"/><use xlink:href="#d" transform="matrix(1,0,0,1,32,125.6) translate(172.47500000000002 25.299999999999997)"/><use xlink:href="#e" transform="matrix(1,0,0,1,32,125.6) translate(182.47500000000002 25.299999999999997)"/><use xlink:href="#b" transform="matrix(1,0,0,1,32,125.6) translate(92.6 46.9)"/><use xlink:href="#f" transform="matrix(1,0,0,1,32,125.6) translate(107.6 46.9)"/><use xlink:href="#d" transform="matrix(1,0,0,1,32,125.6) translate(189.5 46.9)"/><use xlink:href="#g" transform="matrix(1,0,0,1,32,125.6) translate(199.5 46.9)"/><use xlink:href="#h" transform="matrix(1,0,0,1,32,206.3) translate(108.35 25.19999999999999)"/><use xlink:href="#i" transform="matrix(1,0,0,1,32,206.3) translate(123.85 25.19999999999999)"/><use xlink:href="#d" transform="matrix(1,0,0,1,32,206.3) translate(184.7 25.19999999999999)"/><use xlink:href="#j" transform="matrix(1,0,0,1,32,206.3) translate(194.7 25.19999999999999)"/><use xlink:href="#h" transform="matrix(1,0,0,1,32,206.3) translate(102.82499999999999 46.79999999999999)"/><use xlink:href="#k" transform="matrix(1,0,0,1,32,206.3) translate(118.32499999999999 46.79999999999999)"/><use xlink:href="#d" transform="matrix(1,0,0,1,32,206.3) translate(190.225 46.79999999999999)"/><use xlink:href="#j" transform="matrix(1,0,0,1,32,206.3) translate(200.225 46.79999999999999)"/><use xlink:href="#h" transform="matrix(1,0,0,1,32,206.3) translate(128.875 68.39999999999999)"/><use xlink:href="#l" transform="matrix(1,0,0,1,32,206.3) translate(144.375 68.39999999999999)"/><use xlink:href="#h" transform="matrix(1,0,0,1,32,206.3) translate(123.625 90)"/><use xlink:href="#m" transform="matrix(1,0,0,1,32,206.3) translate(139.125 90)"/><path d="M560 80h360v242H560z" stroke="#000" stroke-width="2" fill="#fff"/><path d="M560 117.6h360m-360 59.1h360" stroke="#000" stroke-width="2" fill="none"/><use xlink:href="#n" transform="matrix(1,0,0,1,568,88) translate(140.075 14.6)"/><use xlink:href="#h" transform="matrix(1,0,0,1,572,184.7) translate(114.32499999999999 25.39999999999999)"/><use xlink:href="#o" transform="matrix(1,0,0,1,572,184.7) translate(129.825 25.39999999999999)"/><use xlink:href="#d" transform="matrix(1,0,0,1,572,184.7) translate(178.725 25.39999999999999)"/><use xlink:href="#j" transform="matrix(1,0,0,1,572,184.7) translate(188.725 25.39999999999999)"/><use xlink:href="#h" transform="matrix(1,0,0,1,572,184.7) translate(104.375 46.99999999999999)"/><use xlink:href="#p" transform="matrix(1,0,0,1,572,184.7) translate(119.875 46.99999999999999)"/><use xlink:href="#d" transform="matrix(1,0,0,1,572,184.7) translate(188.675 46.99999999999999)"/><use xlink:href="#j" transform="matrix(1,0,0,1,572,184.7) translate(198.675 46.99999999999999)"/><use xlink:href="#h" transform="matrix(1,0,0,1,572,184.7) translate(114.85 68.6)"/><use xlink:href="#q" transform="matrix(1,0,0,1,572,184.7) translate(130.35 68.6)"/><use xlink:href="#d" transform="matrix(1,0,0,1,572,184.7) translate(178.2 68.6)"/><use xlink:href="#j" transform="matrix(1,0,0,1,572,184.7) translate(188.2 68.6)"/><use xlink:href="#h" transform="matrix(1,0,0,1,572,184.7) translate(122.375 90.20000000000002)"/><use xlink:href="#r" transform="matrix(1,0,0,1,572,184.7) translate(137.875 90.20000000000002)"/><use xlink:href="#h" transform="matrix(1,0,0,1,572,184.7) translate(117.125 111.80000000000001)"/><use xlink:href="#s" transform="matrix(1,0,0,1,572,184.7) translate(132.625 111.80000000000001)"/><path d="M558 121.35H405.48" stroke="#000" stroke-width="2" fill="none"/><path d="M559 122.35h-1.03v-2H559z"/><path d="M382.97 121.35l21.5-12.73v25.45zM520 424.1h360v421H520z" stroke="#000" stroke-width="2" fill="#fff"/><path d="M520 461.7h360M520 631.9h360" stroke="#000" stroke-width="2" fill="none"/><use xlink:href="#t" transform="matrix(1,0,0,1,528,432.0999999999999) translate(146.25 14.6)"/><use xlink:href="#u" transform="matrix(1,0,0,1,532,469.69999999999993) translate(66.6 70.3)"/><use xlink:href="#v" transform="matrix(1,0,0,1,532,469.69999999999993) translate(77.55 70.3)"/><use xlink:href="#d" transform="matrix(1,0,0,1,532,469.69999999999993) translate(145.5 70.3)"/><use xlink:href="#w" transform="matrix(1,0,0,1,532,469.69999999999993) translate(155.5 70.3)"/><use xlink:href="#u" transform="matrix(1,0,0,1,532,469.69999999999993) translate(56.57499999999999 91.9)"/><use xlink:href="#x" transform="matrix(1,0,0,1,532,469.69999999999993) translate(67.52499999999999 91.9)"/><use xlink:href="#d" transform="matrix(1,0,0,1,532,469.69999999999993) translate(175.475 91.9)"/><use xlink:href="#y" transform="matrix(1,0,0,1,532,469.69999999999993) translate(185.475 91.9)"/><use xlink:href="#h" transform="matrix(1,0,0,1,532,639.8999999999999) translate(100.05 70.19999999999999)"/><use xlink:href="#z" transform="matrix(1,0,0,1,532,639.8999999999999) translate(115.55 70.19999999999999)"/><use xlink:href="#d" transform="matrix(1,0,0,1,532,639.8999999999999) translate(193 70.19999999999999)"/><use xlink:href="#j" transform="matrix(1,0,0,1,532,639.8999999999999) translate(203 70.19999999999999)"/><use xlink:href="#h" transform="matrix(1,0,0,1,532,639.8999999999999) translate(94.89999999999999 91.8)"/><use xlink:href="#A" transform="matrix(1,0,0,1,532,639.8999999999999) translate(110.39999999999999 91.8)"/><use xlink:href="#d" transform="matrix(1,0,0,1,532,639.8999999999999) translate(198.15 91.8)"/><use xlink:href="#j" transform="matrix(1,0,0,1,532,639.8999999999999) translate(208.15 91.8)"/><use xlink:href="#h" transform="matrix(1,0,0,1,532,639.8999999999999) translate(128.55 113.4)"/><use xlink:href="#B" transform="matrix(1,0,0,1,532,639.8999999999999) translate(144.05 113.4)"/><use xlink:href="#h" transform="matrix(1,0,0,1,532,639.8999999999999) translate(123.3 135)"/><use xlink:href="#C" transform="matrix(1,0,0,1,532,639.8999999999999) translate(138.8 135)"/><path d="M1000 340h360v307h-360z" stroke="#000" stroke-width="2" fill="#fff"/><path d="M1000 377.6h360m-360 102.3h360" stroke="#000" stroke-width="2" fill="none"/><g><use xlink:href="#D" transform="matrix(1,0,0,1,1008,348) translate(125.025 14.6)"/></g><g><use xlink:href="#u" transform="matrix(1,0,0,1,1012,385.6) translate(34.67499999999998 25.5)"/><use xlink:href="#E" transform="matrix(1,0,0,1,1012,385.6) translate(45.624999999999986 25.5)"/><use xlink:href="#d" transform="matrix(1,0,0,1,1012,385.6) translate(144.52499999999998 25.5)"/><use xlink:href="#F" transform="matrix(1,0,0,1,1012,385.6) translate(154.52499999999998 25.5)"/><use xlink:href="#u" transform="matrix(1,0,0,1,1012,385.6) translate(105.14999999999999 47.1)"/><use xlink:href="#G" transform="matrix(1,0,0,1,1012,385.6) translate(116.1 47.1)"/><use xlink:href="#d" transform="matrix(1,0,0,1,1012,385.6) translate(174 47.1)"/><use xlink:href="#H" transform="matrix(1,0,0,1,1012,385.6) translate(184 47.1)"/><use xlink:href="#u" transform="matrix(1,0,0,1,1012,385.6) translate(28.75 68.7)"/><use xlink:href="#I" transform="matrix(1,0,0,1,1012,385.6) translate(39.7 68.7)"/><use xlink:href="#d" transform="matrix(1,0,0,1,1012,385.6) translate(176.45 68.7)"/><use xlink:href="#J" transform="matrix(1,0,0,1,1012,385.6) translate(186.45 68.7)"/></g><g><use xlink:href="#h" transform="matrix(1,0,0,1,1012,487.90000000000003) translate(91.85 25.6)"/><use xlink:href="#K" transform="matrix(1,0,0,1,1012,487.90000000000003) translate(107.35 25.6)"/><use xlink:href="#d" transform="matrix(1,0,0,1,1012,487.90000000000003) translate(201.2 25.6)"/><use xlink:href="#j" transform="matrix(1,0,0,1,1012,487.90000000000003) translate(211.2 25.6)"/><use xlink:href="#h" transform="matrix(1,0,0,1,1012,487.90000000000003) translate(86.42499999999998 47.2)"/><use xlink:href="#L" transform="matrix(1,0,0,1,1012,487.90000000000003) translate(101.92499999999998 47.2)"/><use xlink:href="#d" transform="matrix(1,0,0,1,1012,487.90000000000003) translate(206.625 47.2)"/><use xlink:href="#j" transform="matrix(1,0,0,1,1012,487.90000000000003) translate(216.625 47.2)"/><use xlink:href="#h" transform="matrix(1,0,0,1,1012,487.90000000000003) translate(88.92499999999998 68.80000000000001)"/><use xlink:href="#M" transform="matrix(1,0,0,1,1012,487.90000000000003) translate(104.42499999999998 68.80000000000001)"/><use xlink:href="#d" transform="matrix(1,0,0,1,1012,487.90000000000003) translate(204.125 68.80000000000001)"/><use xlink:href="#j" transform="matrix(1,0,0,1,1012,487.90000000000003) translate(214.125 68.80000000000001)"/><use xlink:href="#h" transform="matrix(1,0,0,1,1012,487.90000000000003) translate(94.35 90.40000000000002)"/><use xlink:href="#N" transform="matrix(1,0,0,1,1012,487.90000000000003) translate(109.85 90.40000000000002)"/><use xlink:href="#d" transform="matrix(1,0,0,1,1012,487.90000000000003) translate(198.7 90.40000000000002)"/><use xlink:href="#j" transform="matrix(1,0,0,1,1012,487.90000000000003) translate(208.7 90.40000000000002)"/><use xlink:href="#h" transform="matrix(1,0,0,1,1012,487.90000000000003) translate(107.32499999999999 112.00000000000001)"/><use xlink:href="#O" transform="matrix(1,0,0,1,1012,487.90000000000003) translate(122.82499999999999 112.00000000000001)"/><use xlink:href="#h" transform="matrix(1,0,0,1,1012,487.90000000000003) translate(102.07499999999999 133.6)"/><use xlink:href="#P" transform="matrix(1,0,0,1,1012,487.90000000000003) translate(117.57499999999999 133.6)"/></g><path d="M20 424.1h380v475H20z" stroke="#000" stroke-width="2" fill="#fff"/><path d="M20 461.7h380M20 712.6h380" stroke="#000" stroke-width="2" fill="none"/><g><use xlink:href="#Q" transform="matrix(1,0,0,1,28,432.0999999999999) translate(160.025 14.6)"/></g><g><use xlink:href="#h" transform="matrix(1,0,0,1,32,469.69999999999993) translate(113.8 34.70000000000001)"/><use xlink:href="#R" transform="matrix(1,0,0,1,32,469.69999999999993) translate(129.3 34.70000000000001)"/><use xlink:href="#d" transform="matrix(1,0,0,1,32,469.69999999999993) translate(178.25 34.70000000000001)"/><use xlink:href="#S" transform="matrix(1,0,0,1,32,469.69999999999993) translate(188.25 34.70000000000001)"/><use xlink:href="#h" transform="matrix(1,0,0,1,32,469.69999999999993) translate(99.35 56.30000000000001)"/><use xlink:href="#T" transform="matrix(1,0,0,1,32,469.69999999999993) translate(114.85 56.30000000000001)"/><use xlink:href="#d" transform="matrix(1,0,0,1,32,469.69999999999993) translate(192.7 56.30000000000001)"/><use xlink:href="#S" transform="matrix(1,0,0,1,32,469.69999999999993) translate(202.7 56.30000000000001)"/><use xlink:href="#U" transform="matrix(1,0,0,1,32,469.69999999999993) translate(99.32499999999999 77.90000000000002)"/><use xlink:href="#d" transform="matrix(1,0,0,1,32,469.69999999999993) translate(192.725 77.90000000000002)"/><use xlink:href="#S" transform="matrix(1,0,0,1,32,469.69999999999993) translate(202.725 77.90000000000002)"/><use xlink:href="#h" transform="matrix(1,0,0,1,32,469.69999999999993) translate(94.3 99.50000000000003)"/><use xlink:href="#V" transform="matrix(1,0,0,1,32,469.69999999999993) translate(109.8 99.50000000000003)"/><use xlink:href="#d" transform="matrix(1,0,0,1,32,469.69999999999993) translate(197.75 99.50000000000003)"/><use xlink:href="#S" transform="matrix(1,0,0,1,32,469.69999999999993) translate(207.75 99.50000000000003)"/><use xlink:href="#h" transform="matrix(1,0,0,1,32,469.69999999999993) translate(125.375 121.10000000000002)"/><use xlink:href="#W" transform="matrix(1,0,0,1,32,469.69999999999993) translate(140.875 121.10000000000002)"/><use xlink:href="#d" transform="matrix(1,0,0,1,32,469.69999999999993) translate(159.825 121.10000000000002)"/><use xlink:href="#X" transform="matrix(1,0,0,1,32,469.69999999999993) translate(169.825 121.10000000000002)"/><use xlink:href="#h" transform="matrix(1,0,0,1,32,469.69999999999993) translate(100.82499999999999 142.70000000000002)"/><use xlink:href="#Y" transform="matrix(1,0,0,1,32,469.69999999999993) translate(116.32499999999999 142.70000000000002)"/><use xlink:href="#d" transform="matrix(1,0,0,1,32,469.69999999999993) translate(191.225 142.70000000000002)"/><use xlink:href="#S" transform="matrix(1,0,0,1,32,469.69999999999993) translate(201.225 142.70000000000002)"/><use xlink:href="#h" transform="matrix(1,0,0,1,32,469.69999999999993) translate(131.275 164.3)"/><use xlink:href="#Z" transform="matrix(1,0,0,1,32,469.69999999999993) translate(146.775 164.3)"/><use xlink:href="#d" transform="matrix(1,0,0,1,32,469.69999999999993) translate(160.775 164.3)"/><use xlink:href="#S" transform="matrix(1,0,0,1,32,469.69999999999993) translate(170.775 164.3)"/><use xlink:href="#h" transform="matrix(1,0,0,1,32,469.69999999999993) translate(131.275 185.9)"/><use xlink:href="#aa" transform="matrix(1,0,0,1,32,469.69999999999993) translate(146.775 185.9)"/><use xlink:href="#d" transform="matrix(1,0,0,1,32,469.69999999999993) translate(160.775 185.9)"/><use xlink:href="#S" transform="matrix(1,0,0,1,32,469.69999999999993) translate(170.775 185.9)"/><use xlink:href="#h" transform="matrix(1,0,0,1,32,469.69999999999993) translate(131.275 207.5)"/><use xlink:href="#ab" transform="matrix(1,0,0,1,32,469.69999999999993) translate(146.775 207.5)"/><use xlink:href="#d" transform="matrix(1,0,0,1,32,469.69999999999993) translate(160.775 207.5)"/><use xlink:href="#ac" transform="matrix(1,0,0,1,32,469.69999999999993) translate(170.775 207.5)"/></g><g><use xlink:href="#h" transform="matrix(1,0,0,1,32,720.5999999999999) translate(142.325 35.1)"/><use xlink:href="#ad" transform="matrix(1,0,0,1,32,720.5999999999999) translate(157.825 35.1)"/><use xlink:href="#h" transform="matrix(1,0,0,1,32,720.5999999999999) translate(25.44999999999999 56.7)"/><use xlink:href="#ae" transform="matrix(1,0,0,1,32,720.5999999999999) translate(40.94999999999999 56.7)"/><use xlink:href="#d" transform="matrix(1,0,0,1,32,720.5999999999999) translate(168.7 56.7)"/><use xlink:href="#af" transform="matrix(1,0,0,1,32,720.5999999999999) translate(178.7 56.7)"/><use xlink:href="#ag" transform="matrix(1,0,0,1,32,720.5999999999999) translate(242.64999999999998 56.7)"/><use xlink:href="#ah" transform="matrix(1,0,0,1,32,720.5999999999999) translate(325.55 56.7)"/><use xlink:href="#af" transform="matrix(1,0,0,1,32,720.5999999999999) translate(68.12499999999999 78.30000000000001)"/><use xlink:href="#ai" transform="matrix(1,0,0,1,32,720.5999999999999) translate(132.075 78.30000000000001)"/><use xlink:href="#d" transform="matrix(1,0,0,1,32,720.5999999999999) translate(217.97500000000002 78.30000000000001)"/><use xlink:href="#aj" transform="matrix(1,0,0,1,32,720.5999999999999) translate(227.97500000000002 78.30000000000001)"/><use xlink:href="#h" transform="matrix(1,0,0,1,32,720.5999999999999) translate(103.85 99.90000000000002)"/><use xlink:href="#ak" transform="matrix(1,0,0,1,32,720.5999999999999) translate(119.35 99.90000000000002)"/><use xlink:href="#d" transform="matrix(1,0,0,1,32,720.5999999999999) translate(209.2 99.90000000000002)"/><use xlink:href="#j" transform="matrix(1,0,0,1,32,720.5999999999999) translate(219.2 99.90000000000002)"/><use xlink:href="#h" transform="matrix(1,0,0,1,32,720.5999999999999) translate(94.85 121.50000000000001)"/><use xlink:href="#al" transform="matrix(1,0,0,1,32,720.5999999999999) translate(110.35 121.50000000000001)"/><use xlink:href="#am" transform="matrix(1,0,0,1,32,720.5999999999999) translate(202.2 121.50000000000001)"/><use xlink:href="#h" transform="matrix(1,0,0,1,32,720.5999999999999) translate(137.075 143.1)"/><use xlink:href="#an" transform="matrix(1,0,0,1,32,720.5999999999999) translate(152.575 143.1)"/></g><path d="M402.82 522.46H460v5.17h28.25" stroke="#000" stroke-width="2" fill="none"/><path d="M420.18 512.28l-17.22 10.18 17.22 10.18" stroke="#000" stroke-width="2" fill="none"/><path d="M517.6 527.63l-14.86 14.85-15.15-14.85 15.14-14.85z" stroke="#000" stroke-width="2"/><path d="M1000 760h360v364h-360z" stroke="#000" stroke-width="2" fill="#fff"/><path d="M1000 797.6h360m-360 152.2h360" stroke="#000" stroke-width="2" fill="none"/><g><use xlink:href="#ao" transform="matrix(1,0,0,1,1008,768) translate(133.575 14.6)"/></g><g><use xlink:href="#u" transform="matrix(1,0,0,1,1012,805.6) translate(91.57499999999999 61.3)"/><use xlink:href="#ap" transform="matrix(1,0,0,1,1012,805.6) translate(102.52499999999999 61.3)"/><use xlink:href="#d" transform="matrix(1,0,0,1,1012,805.6) translate(180.475 61.3)"/><use xlink:href="#S" transform="matrix(1,0,0,1,1012,805.6) translate(190.475 61.3)"/><use xlink:href="#u" transform="matrix(1,0,0,1,1012,805.6) translate(77.65 82.9)"/><use xlink:href="#aq" transform="matrix(1,0,0,1,1012,805.6) translate(88.60000000000001 82.9)"/><use xlink:href="#d" transform="matrix(1,0,0,1,1012,805.6) translate(179.45 82.9)"/><use xlink:href="#ar" transform="matrix(1,0,0,1,1012,805.6) translate(189.45 82.9)"/></g><g><use xlink:href="#h" transform="matrix(1,0,0,1,1012,957.8) translate(115.875 61)"/><use xlink:href="#as" transform="matrix(1,0,0,1,1012,957.8) translate(131.375 61)"/><use xlink:href="#h" transform="matrix(1,0,0,1,1012,957.8) translate(44.925 82.60000000000001)"/><use xlink:href="#at" transform="matrix(1,0,0,1,1012,957.8) translate(60.425 82.60000000000001)"/><use xlink:href="#d" transform="matrix(1,0,0,1,1012,957.8) translate(221.175 82.60000000000001)"/><use xlink:href="#aj" transform="matrix(1,0,0,1,1012,957.8) translate(231.175 82.60000000000001)"/><use xlink:href="#h" transform="matrix(1,0,0,1,1012,957.8) translate(110.625 104.20000000000002)"/><use xlink:href="#au" transform="matrix(1,0,0,1,1012,957.8) translate(126.125 104.20000000000002)"/></g><path d="M1180 757.18v-78.43M1169.82 739.82l10.18 17.22 10.18-17.22" stroke="#000" stroke-width="2" fill="none"/><path d="M1180 649.4l14.85 14.86L1180 679.4l-14.85-15.14z" stroke="#000" stroke-width="2"/><path d="M1520 463.5h240v278h-240z" stroke="#000" stroke-width="2" fill="#fff"/><path d="M1520 501.1h240m-240 109.6h240" stroke="#000" stroke-width="2" fill="none"/><g><use xlink:href="#av" transform="matrix(1,0,0,1,1528,471.5) translate(88.575 14.6)"/></g><g><use xlink:href="#h" transform="matrix(1,0,0,1,1532,618.7) translate(70.875 50.8)"/><use xlink:href="#aw" transform="matrix(1,0,0,1,1532,618.7) translate(86.375 50.8)"/><use xlink:href="#h" transform="matrix(1,0,0,1,1532,618.7) translate(65.625 72.4)"/><use xlink:href="#ax" transform="matrix(1,0,0,1,1532,618.7) translate(81.125 72.4)"/></g><path d="M400 524.1h20v30h-20z" stroke="#000" stroke-opacity="0" stroke-width="2" fill="#fff" fill-opacity="0"/><g><use xlink:href="#ay" transform="matrix(1,0,0,1,405,529.0999999999999) translate(0 14.4)"/></g><path d="M494.67 533.43h20v39.5h-20z" stroke="#000" stroke-opacity="0" stroke-width="2" fill="#fff" fill-opacity="0"/><g><use xlink:href="#az" transform="matrix(1,0,0,1,499.66666666666663,538.4333333333332) translate(0 18.6)"/></g><path d="M1391.75 493.5H1440v109h77.18" stroke="#000" stroke-width="2" fill="none"/><path d="M1362.4 493.5l14.86-14.85 15.15 14.85-15.14 14.85z" stroke="#000" stroke-width="2" fill="#fff"/><path d="M1499.82 612.68l17.22-10.18-17.22-10.18" stroke="#000" stroke-width="2" fill="none"/><path d="M1380 160h360v177h-360z" stroke="#000" stroke-width="2" fill="#fff"/><path d="M1380 197.6h360m-360 59.1h360" stroke="#000" stroke-width="2" fill="none"/><g><use xlink:href="#aA" transform="matrix(1,0,0,1,1388,168) translate(111.6 14.6)"/></g><g><use xlink:href="#h" transform="matrix(1,0,0,1,1392,264.7) translate(93.89999999999999 25.299999999999997)"/><use xlink:href="#aB" transform="matrix(1,0,0,1,1392,264.7) translate(109.39999999999999 25.299999999999997)"/><use xlink:href="#h" transform="matrix(1,0,0,1,1392,264.7) translate(88.65 46.9)"/><use xlink:href="#aC" transform="matrix(1,0,0,1,1392,264.7) translate(104.15 46.9)"/></g><path d="M1180 308.25V248.5h197.18" stroke="#000" stroke-width="2" fill="none"/><path d="M1180 337.6l-14.85-14.86L1180 307.6l14.85 15.14z" stroke="#000" stroke-width="2" fill="#fff"/><path d="M1359.82 258.68l17.22-10.18-17.22-10.18" stroke="#000" stroke-width="2" fill="none"/><g><use xlink:href="#aD" transform="matrix(1,0,0,1,1188.700395161074,222.9) translate(0.0049999999999954525 14.4)"/></g><path d="M911.75 634.6H940V493.5h57.18" stroke="#000" stroke-width="2" fill="none"/><path d="M882.4 634.6l14.86-14.85 15.15 14.85-15.14 14.85z" stroke="#000" stroke-width="2"/><path d="M979.82 503.68l17.22-10.18-17.22-10.18" stroke="#000" stroke-width="2" fill="none"/><defs><path d="M212-179c-10-28-35-45-73-45-59 0-87 40-87 99 0 60 29 101 89 101 43 0 62-24 78-52l27 14C228-24 195 4 139 4 59 4 22-46 18-125c-6-104 99-153 187-111 19 9 31 26 39 46" id="aE"/><path d="M232-93c-1 65-40 97-104 97C67 4 28-28 28-90v-158h33c8 89-33 224 67 224 102 0 64-133 71-224h33v155" id="aF"/><path d="M135-143c-3-34-86-38-87 0 15 53 115 12 119 90S17 21 10-45l28-5c4 36 97 45 98 0-10-56-113-15-118-90-4-57 82-63 122-42 12 7 21 19 24 35" id="aG"/><path d="M100-194c63 0 86 42 84 106H49c0 40 14 67 53 68 26 1 43-12 49-29l28 8c-11 28-37 45-77 45C44 4 14-33 15-96c1-61 26-98 85-98zm52 81c6-60-76-77-97-28-3 7-6 17-6 28h103" id="aH"/><path d="M114-163C36-179 61-72 57 0H25l-1-190h30c1 12-1 29 2 39 6-27 23-49 58-41v29" id="aI"/><g id="a"><use transform="matrix(0.05,0,0,0.05,0,0)" xlink:href="#aE"/><use transform="matrix(0.05,0,0,0.05,12.950000000000001,0)" xlink:href="#aF"/><use transform="matrix(0.05,0,0,0.05,25.900000000000002,0)" xlink:href="#aG"/><use transform="matrix(0.05,0,0,0.05,34.900000000000006,0)" xlink:href="#aH"/><use transform="matrix(0.05,0,0,0.05,44.900000000000006,0)" xlink:href="#aI"/></g><path d="M158-156l-14 65h45v19h-49L124 0h-19l15-72H56L41 0H22l15-72H2v-19h39l14-65H11v-19h48l15-71h20l-16 71h64l16-71h19l-16 71h37v19h-40zm-83 0L61-91h63l14-65H75" id="aJ"/><use transform="matrix(0.05,0,0,0.05,0,0)" xlink:href="#aJ" id="b"/><path d="M210-169c-67 3-38 105-44 169h-31v-121c0-29-5-50-35-48C34-165 62-65 56 0H25l-1-190h30c1 10-1 24 2 32 10-44 99-50 107 0 11-21 27-35 58-36 85-2 47 119 55 194h-31v-121c0-29-5-49-35-48" id="aK"/><path d="M141-36C126-15 110 5 73 4 37 3 15-17 15-53c-1-64 63-63 125-63 3-35-9-54-41-54-24 1-41 7-42 31l-33-3c5-37 33-52 76-52 45 0 72 20 72 64v82c-1 20 7 32 28 27v20c-31 9-61-2-59-35zM48-53c0 20 12 33 32 33 41-3 63-29 60-74-43 2-92-5-92 41" id="aL"/><path d="M24-231v-30h32v30H24zM24 0v-190h32V0H24" id="aM"/><path d="M24 0v-261h32V0H24" id="aN"/><g id="c"><use transform="matrix(0.05,0,0,0.05,0,0)" xlink:href="#aH"/><use transform="matrix(0.05,0,0,0.05,10,0)" xlink:href="#aK"/><use transform="matrix(0.05,0,0,0.05,24.950000000000003,0)" xlink:href="#aL"/><use transform="matrix(0.05,0,0,0.05,34.95,0)" xlink:href="#aM"/><use transform="matrix(0.05,0,0,0.05,38.900000000000006,0)" xlink:href="#aN"/></g><path d="M33-154v-36h34v36H33zM33 0v-36h34V0H33" id="aO"/><use transform="matrix(0.05,0,0,0.05,0,0)" xlink:href="#aO" id="d"/><path d="M59-47c-2 24 18 29 38 22v24C64 9 27 4 27-40v-127H5v-23h24l9-43h21v43h35v23H59v120" id="aP"/><path d="M117-194c89-4 53 116 60 194h-32v-121c0-31-8-49-39-48C34-167 62-67 57 0H25l-1-190h30c1 10-1 24 2 32 11-22 29-35 61-36" id="aQ"/><path d="M177-190C167-65 218 103 67 71c-23-6-38-20-44-43l32-5c15 47 100 32 89-28v-30C133-14 115 1 83 1 29 1 15-40 15-95c0-56 16-97 71-98 29-1 48 16 59 35 1-10 0-23 2-32h30zM94-22c36 0 50-32 50-73 0-42-14-75-50-75-39 0-46 34-46 75s6 73 46 73" id="aR"/><g id="e"><use transform="matrix(0.05,0,0,0.05,0,0)" xlink:href="#aG"/><use transform="matrix(0.05,0,0,0.05,9,0)" xlink:href="#aP"/><use transform="matrix(0.05,0,0,0.05,14,0)" xlink:href="#aI"/><use transform="matrix(0.05,0,0,0.05,19.95,0)" xlink:href="#aM"/><use transform="matrix(0.05,0,0,0.05,23.9,0)" xlink:href="#aQ"/><use transform="matrix(0.05,0,0,0.05,33.9,0)" xlink:href="#aR"/></g><path d="M115-194c55 1 70 41 70 98S169 2 115 4C84 4 66-9 55-30l1 105H24l-1-265h31l2 30c10-21 28-34 59-34zm-8 174c40 0 45-34 45-75s-6-73-45-74c-42 0-51 32-51 76 0 43 10 73 51 73" id="aS"/><path d="M206 0h-36l-40-164L89 0H53L-1-190h32L70-26l43-164h34l41 164 42-164h31" id="aT"/><path d="M100-194c62-1 85 37 85 99 1 63-27 99-86 99S16-35 15-95c0-66 28-99 85-99zM99-20c44 1 53-31 53-75 0-43-8-75-51-75s-53 32-53 75 10 74 51 75" id="aU"/><path d="M85-194c31 0 48 13 60 33l-1-100h32l1 261h-30c-2-10 0-23-3-31C134-8 116 4 85 4 32 4 16-35 15-94c0-66 23-100 70-100zm9 24c-40 0-46 34-46 75 0 40 6 74 45 74 42 0 51-32 51-76 0-42-9-74-50-73" id="aV"/><g id="f"><use transform="matrix(0.05,0,0,0.05,0,0)" xlink:href="#aS"/><use transform="matrix(0.05,0,0,0.05,10,0)" xlink:href="#aL"/><use transform="matrix(0.05,0,0,0.05,20,0)" xlink:href="#aG"/><use transform="matrix(0.05,0,0,0.05,29,0)" xlink:href="#aG"/><use transform="matrix(0.05,0,0,0.05,38,0)" xlink:href="#aT"/><use transform="matrix(0.05,0,0,0.05,50.95,0)" xlink:href="#aU"/><use transform="matrix(0.05,0,0,0.05,60.95,0)" xlink:href="#aI"/><use transform="matrix(0.05,0,0,0.05,66.9,0)" xlink:href="#aV"/></g><g id="g"><use transform="matrix(0.05,0,0,0.05,0,0)" xlink:href="#aG"/><use transform="matrix(0.05,0,0,0.05,9,0)" xlink:href="#aP"/><use transform="matrix(0.05,0,0,0.05,14,0)" xlink:href="#aI"/><use transform="matrix(0.05,0,0,0.05,19.95,0)" xlink:href="#aM"/><use transform="matrix(0.05,0,0,0.05,23.9,0)" xlink:href="#aQ"/><use transform="matrix(0.05,0,0,0.05,33.9,0)" xlink:href="#aR"/></g><path d="M118-107v75H92v-75H18v-26h74v-75h26v75h74v26h-74" id="aW"/><use transform="matrix(0.05,0,0,0.05,0,0)" xlink:href="#aW" id="h"/><path d="M30 0v-248h33v221h125V0H30" id="aX"/><path d="M87 75C49 33 22-17 22-94c0-76 28-126 65-167h31c-38 41-64 92-64 168S80 34 118 75H87" id="aY"/><path d="M33-261c38 41 65 92 65 168S71 34 33 75H2C39 34 66-17 66-93S39-220 2-261h31" id="aZ"/><g id="i"><use transform="matrix(0.05,0,0,0.05,0,0)" xlink:href="#aX"/><use transform="matrix(0.05,0,0,0.05,10,0)" xlink:href="#aU"/><use transform="matrix(0.05,0,0,0.05,20,0)" xlink:href="#aR"/><use transform="matrix(0.05,0,0,0.05,30,0)" xlink:href="#aM"/><use transform="matrix(0.05,0,0,0.05,33.95,0)" xlink:href="#aQ"/><use transform="matrix(0.05,0,0,0.05,43.95,0)" xlink:href="#aY"/><use transform="matrix(0.05,0,0,0.05,49.900000000000006,0)" xlink:href="#aZ"/></g><path d="M108 0H70L1-190h34L89-25l56-165h34" id="ba"/><g id="j"><use transform="matrix(0.05,0,0,0.05,0,0)" xlink:href="#ba"/><use transform="matrix(0.05,0,0,0.05,9,0)" xlink:href="#aU"/><use transform="matrix(0.05,0,0,0.05,19,0)" xlink:href="#aM"/><use transform="matrix(0.05,0,0,0.05,22.95,0)" xlink:href="#aV"/></g><path d="M84 4C-5 8 30-112 23-190h32v120c0 31 7 50 39 49 72-2 45-101 50-169h31l1 190h-30c-1-10 1-25-2-33-11 22-28 36-60 37" id="bb"/><g id="k"><use transform="matrix(0.05,0,0,0.05,0,0)" xlink:href="#aX"/><use transform="matrix(0.05,0,0,0.05,10,0)" xlink:href="#aU"/><use transform="matrix(0.05,0,0,0.05,20,0)" xlink:href="#aR"/><use transform="matrix(0.05,0,0,0.05,30,0)" xlink:href="#aU"/><use transform="matrix(0.05,0,0,0.05,40,0)" xlink:href="#bb"/><use transform="matrix(0.05,0,0,0.05,50,0)" xlink:href="#aP"/><use transform="matrix(0.05,0,0,0.05,55,0)" xlink:href="#aY"/><use transform="matrix(0.05,0,0,0.05,60.95,0)" xlink:href="#aZ"/></g><g id="l"><use transform="matrix(0.05,0,0,0.05,0,0)" xlink:href="#aE"/><use transform="matrix(0.05,0,0,0.05,12.950000000000001,0)" xlink:href="#aF"/><use transform="matrix(0.05,0,0,0.05,25.900000000000002,0)" xlink:href="#aG"/><use transform="matrix(0.05,0,0,0.05,34.900000000000006,0)" xlink:href="#aH"/><use transform="matrix(0.05,0,0,0.05,44.900000000000006,0)" xlink:href="#aI"/><use transform="matrix(0.05,0,0,0.05,50.85000000000001,0)" xlink:href="#aY"/><use transform="matrix(0.05,0,0,0.05,56.80000000000001,0)" xlink:href="#aZ"/></g><path d="M16-127c37-31 93-2 135 6 18-1 32-8 43-16v26c-50 42-130-35-178 9v-25" id="bc"/><g id="m"><use transform="matrix(0.05,0,0,0.05,0,0)" xlink:href="#bc"/><use transform="matrix(0.05,0,0,0.05,10.5,0)" xlink:href="#aE"/><use transform="matrix(0.05,0,0,0.05,23.450000000000003,0)" xlink:href="#aF"/><use transform="matrix(0.05,0,0,0.05,36.400000000000006,0)" xlink:href="#aG"/><use transform="matrix(0.05,0,0,0.05,45.400000000000006,0)" xlink:href="#aH"/><use transform="matrix(0.05,0,0,0.05,55.400000000000006,0)" xlink:href="#aI"/><use transform="matrix(0.05,0,0,0.05,61.35,0)" xlink:href="#aY"/><use transform="matrix(0.05,0,0,0.05,67.30000000000001,0)" xlink:href="#aZ"/></g><path d="M205 0l-28-72H64L36 0H1l101-248h38L239 0h-34zm-38-99l-47-123c-12 45-31 82-46 123h93" id="bd"/><g id="n"><use transform="matrix(0.05,0,0,0.05,0,0)" xlink:href="#aE"/><use transform="matrix(0.05,0,0,0.05,12.950000000000001,0)" xlink:href="#bd"/><use transform="matrix(0.05,0,0,0.05,24.950000000000003,0)" xlink:href="#aV"/><use transform="matrix(0.05,0,0,0.05,34.95,0)" xlink:href="#aK"/><use transform="matrix(0.05,0,0,0.05,49.900000000000006,0)" xlink:href="#aM"/><use transform="matrix(0.05,0,0,0.05,53.85,0)" xlink:href="#aQ"/></g><g id="o"><use transform="matrix(0.05,0,0,0.05,0,0)" xlink:href="#bd"/><use transform="matrix(0.05,0,0,0.05,12,0)" xlink:href="#aV"/><use transform="matrix(0.05,0,0,0.05,22,0)" xlink:href="#aV"/><use transform="matrix(0.05,0,0,0.05,32,0)" xlink:href="#aY"/><use transform="matrix(0.05,0,0,0.05,37.95,0)" xlink:href="#aZ"/></g><path d="M30-248c118-7 216 8 213 122C240-48 200 0 122 0H30v-248zM63-27c89 8 146-16 146-99s-60-101-146-95v194" id="be"/><g id="p"><use transform="matrix(0.05,0,0,0.05,0,0)" xlink:href="#be"/><use transform="matrix(0.05,0,0,0.05,12.950000000000001,0)" xlink:href="#aH"/><use transform="matrix(0.05,0,0,0.05,22.950000000000003,0)" xlink:href="#aN"/><use transform="matrix(0.05,0,0,0.05,26.900000000000002,0)" xlink:href="#aH"/><use transform="matrix(0.05,0,0,0.05,36.900000000000006,0)" xlink:href="#aP"/><use transform="matrix(0.05,0,0,0.05,41.900000000000006,0)" xlink:href="#aH"/><use transform="matrix(0.05,0,0,0.05,51.900000000000006,0)" xlink:href="#aY"/><use transform="matrix(0.05,0,0,0.05,57.85,0)" xlink:href="#aZ"/></g><path d="M30 0v-248h187v28H63v79h144v27H63v87h162V0H30" id="bf"/><g id="q"><use transform="matrix(0.05,0,0,0.05,0,0)" xlink:href="#bf"/><use transform="matrix(0.05,0,0,0.05,12,0)" xlink:href="#aV"/><use transform="matrix(0.05,0,0,0.05,22,0)" xlink:href="#aM"/><use transform="matrix(0.05,0,0,0.05,25.950000000000003,0)" xlink:href="#aP"/><use transform="matrix(0.05,0,0,0.05,30.950000000000003,0)" xlink:href="#aY"/><use transform="matrix(0.05,0,0,0.05,36.9,0)" xlink:href="#aZ"/></g><g id="r"><use transform="matrix(0.05,0,0,0.05,0,0)" xlink:href="#aE"/><use transform="matrix(0.05,0,0,0.05,12.950000000000001,0)" xlink:href="#bd"/><use transform="matrix(0.05,0,0,0.05,24.950000000000003,0)" xlink:href="#aV"/><use transform="matrix(0.05,0,0,0.05,34.95,0)" xlink:href="#aK"/><use transform="matrix(0.05,0,0,0.05,49.900000000000006,0)" xlink:href="#aM"/><use transform="matrix(0.05,0,0,0.05,53.85,0)" xlink:href="#aQ"/><use transform="matrix(0.05,0,0,0.05,63.85,0)" xlink:href="#aY"/><use transform="matrix(0.05,0,0,0.05,69.80000000000001,0)" xlink:href="#aZ"/></g><g id="s"><use transform="matrix(0.05,0,0,0.05,0,0)" xlink:href="#bc"/><use transform="matrix(0.05,0,0,0.05,10.5,0)" xlink:href="#aE"/><use transform="matrix(0.05,0,0,0.05,23.450000000000003,0)" xlink:href="#bd"/><use transform="matrix(0.05,0,0,0.05,35.45,0)" xlink:href="#aV"/><use transform="matrix(0.05,0,0,0.05,45.45,0)" xlink:href="#aK"/><use transform="matrix(0.05,0,0,0.05,60.400000000000006,0)" xlink:href="#aM"/><use transform="matrix(0.05,0,0,0.05,64.35000000000001,0)" xlink:href="#aQ"/><use transform="matrix(0.05,0,0,0.05,74.35000000000001,0)" xlink:href="#aY"/><use transform="matrix(0.05,0,0,0.05,80.30000000000001,0)" xlink:href="#aZ"/></g><path d="M137 0h-34L2-248h35l83 218 83-218h36" id="bg"/><g id="t"><use transform="matrix(0.05,0,0,0.05,0,0)" xlink:href="#aE"/><use transform="matrix(0.05,0,0,0.05,12.950000000000001,0)" xlink:href="#bg"/><use transform="matrix(0.05,0,0,0.05,24.6,0)" xlink:href="#aM"/><use transform="matrix(0.05,0,0,0.05,28.55,0)" xlink:href="#aH"/><use transform="matrix(0.05,0,0,0.05,38.55,0)" xlink:href="#aT"/></g><path d="M16-82v-28h88v28H16" id="bh"/><use transform="matrix(0.05,0,0,0.05,0,0)" xlink:href="#bh" id="u"/><path d="M-5 72V49h209v23H-5" id="bi"/><path d="M141 0L90-78 38 0H4l68-98-65-92h35l48 74 47-74h35l-64 92 68 98h-35" id="bj"/><g id="v"><use transform="matrix(0.05,0,0,0.05,0,0)" xlink:href="#aK"/><use transform="matrix(0.05,0,0,0.05,14.950000000000001,0)" xlink:href="#bi"/><use transform="matrix(0.05,0,0,0.05,24.950000000000003,0)" xlink:href="#aL"/><use transform="matrix(0.05,0,0,0.05,34.95,0)" xlink:href="#bj"/><use transform="matrix(0.05,0,0,0.05,43.95,0)" xlink:href="#aH"/><use transform="matrix(0.05,0,0,0.05,53.95,0)" xlink:href="#aG"/></g><path d="M96-169c-40 0-48 33-48 73s9 75 48 75c24 0 41-14 43-38l32 2c-6 37-31 61-74 61-59 0-76-41-82-99-10-93 101-131 147-64 4 7 5 14 7 22l-32 3c-4-21-16-35-41-35" id="bk"/><path d="M18-100v-36l175-74v27L42-118l151 64v27" id="bl"/><path d="M18-27v-27l151-64-151-65v-27l175 74v36" id="bm"/><g id="w"><use transform="matrix(0.05,0,0,0.05,0,0)" xlink:href="#ba"/><use transform="matrix(0.05,0,0,0.05,9,0)" xlink:href="#aH"/><use transform="matrix(0.05,0,0,0.05,19,0)" xlink:href="#bk"/><use transform="matrix(0.05,0,0,0.05,28,0)" xlink:href="#aP"/><use transform="matrix(0.05,0,0,0.05,33,0)" xlink:href="#aU"/><use transform="matrix(0.05,0,0,0.05,43,0)" xlink:href="#aI"/><use transform="matrix(0.05,0,0,0.05,48.95,0)" xlink:href="#bl"/><use transform="matrix(0.05,0,0,0.05,59.45,0)" xlink:href="#aE"/><use transform="matrix(0.05,0,0,0.05,72.4,0)" xlink:href="#bd"/><use transform="matrix(0.05,0,0,0.05,84.4,0)" xlink:href="#bj"/><use transform="matrix(0.05,0,0,0.05,93.4,0)" xlink:href="#aH"/><use transform="matrix(0.05,0,0,0.05,103.4,0)" xlink:href="#bm"/></g><path d="M145-31C134-9 116 4 85 4 32 4 16-35 15-94c0-59 17-99 70-100 32-1 48 14 60 33 0-11-1-24 2-32h30l-1 268h-32zM93-21c41 0 51-33 51-76s-8-73-50-73c-40 0-46 35-46 75s5 74 45 74" id="bn"/><g id="x"><use transform="matrix(0.05,0,0,0.05,0,0)" xlink:href="#aK"/><use transform="matrix(0.05,0,0,0.05,14.950000000000001,0)" xlink:href="#bi"/><use transform="matrix(0.05,0,0,0.05,24.950000000000003,0)" xlink:href="#aG"/><use transform="matrix(0.05,0,0,0.05,33.95,0)" xlink:href="#aH"/><use transform="matrix(0.05,0,0,0.05,43.95,0)" xlink:href="#bn"/><use transform="matrix(0.05,0,0,0.05,53.95,0)" xlink:href="#bb"/><use transform="matrix(0.05,0,0,0.05,63.95,0)" xlink:href="#aH"/><use transform="matrix(0.05,0,0,0.05,73.95,0)" xlink:href="#aQ"/><use transform="matrix(0.05,0,0,0.05,83.95,0)" xlink:href="#bk"/><use transform="matrix(0.05,0,0,0.05,92.95,0)" xlink:href="#aH"/></g><path d="M185-189c-5-48-123-54-124 2 14 75 158 14 163 119 3 78-121 87-175 55-17-10-28-26-33-46l33-7c5 56 141 63 141-1 0-78-155-14-162-118-5-82 145-84 179-34 5 7 8 16 11 25" id="bo"/><g id="y"><use transform="matrix(0.05,0,0,0.05,0,0)" xlink:href="#aE"/><use transform="matrix(0.05,0,0,0.05,12.950000000000001,0)" xlink:href="#bo"/><use transform="matrix(0.05,0,0,0.05,24.950000000000003,0)" xlink:href="#aH"/><use transform="matrix(0.05,0,0,0.05,34.95,0)" xlink:href="#bn"/><use transform="matrix(0.05,0,0,0.05,44.95,0)" xlink:href="#bb"/><use transform="matrix(0.05,0,0,0.05,54.95,0)" xlink:href="#aH"/><use transform="matrix(0.05,0,0,0.05,64.95,0)" xlink:href="#aQ"/><use transform="matrix(0.05,0,0,0.05,74.95,0)" xlink:href="#bk"/><use transform="matrix(0.05,0,0,0.05,83.95,0)" xlink:href="#aH"/></g><path d="M101-234c-31-9-42 10-38 44h38v23H63V0H32v-167H5v-23h27c-7-52 17-82 69-68v24" id="bp"/><path d="M106-169C34-169 62-67 57 0H25v-261h32l-1 103c12-21 28-36 61-36 89 0 53 116 60 194h-32v-121c2-32-8-49-39-48" id="bq"/><g id="z"><use transform="matrix(0.05,0,0,0.05,0,0)" xlink:href="#bd"/><use transform="matrix(0.05,0,0,0.05,12,0)" xlink:href="#bp"/><use transform="matrix(0.05,0,0,0.05,16.65,0)" xlink:href="#bp"/><use transform="matrix(0.05,0,0,0.05,21.65,0)" xlink:href="#aM"/><use transform="matrix(0.05,0,0,0.05,25.599999999999998,0)" xlink:href="#bk"/><use transform="matrix(0.05,0,0,0.05,34.599999999999994,0)" xlink:href="#bq"/><use transform="matrix(0.05,0,0,0.05,44.599999999999994,0)" xlink:href="#aH"/><use transform="matrix(0.05,0,0,0.05,54.599999999999994,0)" xlink:href="#aI"/><use transform="matrix(0.05,0,0,0.05,60.54999999999999,0)" xlink:href="#aY"/><use transform="matrix(0.05,0,0,0.05,66.5,0)" xlink:href="#aZ"/></g><path d="M233-177c-1 41-23 64-60 70L243 0h-38l-65-103H63V0H30v-248c88 3 205-21 203 71zM63-129c60-2 137 13 137-47 0-61-80-42-137-45v92" id="br"/><g id="A"><use transform="matrix(0.05,0,0,0.05,0,0)" xlink:href="#br"/><use transform="matrix(0.05,0,0,0.05,12.950000000000001,0)" xlink:href="#aH"/><use transform="matrix(0.05,0,0,0.05,22.950000000000003,0)" xlink:href="#bk"/><use transform="matrix(0.05,0,0,0.05,31.950000000000003,0)" xlink:href="#aH"/><use transform="matrix(0.05,0,0,0.05,41.95,0)" xlink:href="#ba"/><use transform="matrix(0.05,0,0,0.05,50.95,0)" xlink:href="#aU"/><use transform="matrix(0.05,0,0,0.05,60.95,0)" xlink:href="#aM"/><use transform="matrix(0.05,0,0,0.05,64.9,0)" xlink:href="#aI"/><use transform="matrix(0.05,0,0,0.05,70.85000000000001,0)" xlink:href="#aY"/><use transform="matrix(0.05,0,0,0.05,76.80000000000001,0)" xlink:href="#aZ"/></g><g id="B"><use transform="matrix(0.05,0,0,0.05,0,0)" xlink:href="#aE"/><use transform="matrix(0.05,0,0,0.05,12.950000000000001,0)" xlink:href="#bg"/><use transform="matrix(0.05,0,0,0.05,24.6,0)" xlink:href="#aM"/><use transform="matrix(0.05,0,0,0.05,28.55,0)" xlink:href="#aH"/><use transform="matrix(0.05,0,0,0.05,38.55,0)" xlink:href="#aT"/><use transform="matrix(0.05,0,0,0.05,51.5,0)" xlink:href="#aY"/><use transform="matrix(0.05,0,0,0.05,57.45,0)" xlink:href="#aZ"/></g><g id="C"><use transform="matrix(0.05,0,0,0.05,0,0)" xlink:href="#bc"/><use transform="matrix(0.05,0,0,0.05,10.5,0)" xlink:href="#aE"/><use transform="matrix(0.05,0,0,0.05,23.450000000000003,0)" xlink:href="#bg"/><use transform="matrix(0.05,0,0,0.05,35.1,0)" xlink:href="#aM"/><use transform="matrix(0.05,0,0,0.05,39.050000000000004,0)" xlink:href="#aH"/><use transform="matrix(0.05,0,0,0.05,49.050000000000004,0)" xlink:href="#aT"/><use transform="matrix(0.05,0,0,0.05,62,0)" xlink:href="#aY"/><use transform="matrix(0.05,0,0,0.05,67.95,0)" xlink:href="#aZ"/></g><g id="D"><use transform="matrix(0.05,0,0,0.05,0,0)" xlink:href="#aE"/><use transform="matrix(0.05,0,0,0.05,12.950000000000001,0)" xlink:href="#bo"/><use transform="matrix(0.05,0,0,0.05,24.950000000000003,0)" xlink:href="#aH"/><use transform="matrix(0.05,0,0,0.05,34.95,0)" xlink:href="#bn"/><use transform="matrix(0.05,0,0,0.05,44.95,0)" xlink:href="#bb"/><use transform="matrix(0.05,0,0,0.05,54.95,0)" xlink:href="#aH"/><use transform="matrix(0.05,0,0,0.05,64.95,0)" xlink:href="#aQ"/><use transform="matrix(0.05,0,0,0.05,74.95,0)" xlink:href="#bk"/><use transform="matrix(0.05,0,0,0.05,83.95,0)" xlink:href="#aH"/></g><g id="E"><use transform="matrix(0.05,0,0,0.05,0,0)" xlink:href="#aK"/><use transform="matrix(0.05,0,0,0.05,14.950000000000001,0)" xlink:href="#bi"/><use transform="matrix(0.05,0,0,0.05,24.950000000000003,0)" xlink:href="#bk"/><use transform="matrix(0.05,0,0,0.05,33.95,0)" xlink:href="#aL"/><use transform="matrix(0.05,0,0,0.05,43.95,0)" xlink:href="#aS"/><use transform="matrix(0.05,0,0,0.05,53.95,0)" xlink:href="#aP"/><use transform="matrix(0.05,0,0,0.05,58.95,0)" xlink:href="#bb"/><use transform="matrix(0.05,0,0,0.05,68.95,0)" xlink:href="#aI"/><use transform="matrix(0.05,0,0,0.05,74.9,0)" xlink:href="#aH"/><use transform="matrix(0.05,0,0,0.05,84.9,0)" xlink:href="#aG"/></g><g id="F"><use transform="matrix(0.05,0,0,0.05,0,0)" xlink:href="#ba"/><use transform="matrix(0.05,0,0,0.05,9,0)" xlink:href="#aH"/><use transform="matrix(0.05,0,0,0.05,19,0)" xlink:href="#bk"/><use transform="matrix(0.05,0,0,0.05,28,0)" xlink:href="#aP"/><use transform="matrix(0.05,0,0,0.05,33,0)" xlink:href="#aU"/><use transform="matrix(0.05,0,0,0.05,43,0)" xlink:href="#aI"/><use transform="matrix(0.05,0,0,0.05,48.95,0)" xlink:href="#bl"/><use transform="matrix(0.05,0,0,0.05,59.45,0)" xlink:href="#aE"/><use transform="matrix(0.05,0,0,0.05,72.4,0)" xlink:href="#aE"/><use transform="matrix(0.05,0,0,0.05,85.35000000000001,0)" xlink:href="#aL"/><use transform="matrix(0.05,0,0,0.05,95.35000000000001,0)" xlink:href="#aS"/><use transform="matrix(0.05,0,0,0.05,105.35000000000001,0)" xlink:href="#aP"/><use transform="matrix(0.05,0,0,0.05,110.35000000000001,0)" xlink:href="#bb"/><use transform="matrix(0.05,0,0,0.05,120.35000000000001,0)" xlink:href="#aI"/><use transform="matrix(0.05,0,0,0.05,126.30000000000001,0)" xlink:href="#aH"/><use transform="matrix(0.05,0,0,0.05,136.3,0)" xlink:href="#bm"/></g><g id="G"><use transform="matrix(0.05,0,0,0.05,0,0)" xlink:href="#aK"/><use transform="matrix(0.05,0,0,0.05,14.950000000000001,0)" xlink:href="#bi"/><use transform="matrix(0.05,0,0,0.05,24.950000000000003,0)" xlink:href="#bp"/><use transform="matrix(0.05,0,0,0.05,29.950000000000003,0)" xlink:href="#aN"/><use transform="matrix(0.05,0,0,0.05,33.900000000000006,0)" xlink:href="#bb"/><use transform="matrix(0.05,0,0,0.05,43.900000000000006,0)" xlink:href="#bj"/></g><path d="M63-220v92h138v28H63V0H30v-248h175v28H63" id="bs"/><g id="H"><use transform="matrix(0.05,0,0,0.05,0,0)" xlink:href="#aE"/><use transform="matrix(0.05,0,0,0.05,12.950000000000001,0)" xlink:href="#bs"/><use transform="matrix(0.05,0,0,0.05,23.900000000000002,0)" xlink:href="#aN"/><use transform="matrix(0.05,0,0,0.05,27.85,0)" xlink:href="#bb"/><use transform="matrix(0.05,0,0,0.05,37.85,0)" xlink:href="#bj"/></g><path d="M160-131c35 5 61 23 61 61C221 17 115-2 30 0v-248c76 3 177-17 177 60 0 33-19 50-47 57zm-97-11c50-1 110 9 110-42 0-47-63-36-110-37v79zm0 115c55-2 124 14 124-45 0-56-70-42-124-44v89" id="bt"/><g id="I"><use transform="matrix(0.05,0,0,0.05,0,0)" xlink:href="#aK"/><use transform="matrix(0.05,0,0,0.05,14.950000000000001,0)" xlink:href="#bi"/><use transform="matrix(0.05,0,0,0.05,24.950000000000003,0)" xlink:href="#aM"/><use transform="matrix(0.05,0,0,0.05,28.900000000000002,0)" xlink:href="#aQ"/><use transform="matrix(0.05,0,0,0.05,38.900000000000006,0)" xlink:href="#aP"/><use transform="matrix(0.05,0,0,0.05,43.900000000000006,0)" xlink:href="#aH"/><use transform="matrix(0.05,0,0,0.05,53.900000000000006,0)" xlink:href="#aI"/><use transform="matrix(0.05,0,0,0.05,59.85,0)" xlink:href="#bp"/><use transform="matrix(0.05,0,0,0.05,64.85000000000001,0)" xlink:href="#aL"/><use transform="matrix(0.05,0,0,0.05,74.85000000000001,0)" xlink:href="#bk"/><use transform="matrix(0.05,0,0,0.05,83.85000000000001,0)" xlink:href="#aH"/><use transform="matrix(0.05,0,0,0.05,93.85000000000001,0)" xlink:href="#bt"/><use transform="matrix(0.05,0,0,0.05,105.85000000000001,0)" xlink:href="#be"/><use transform="matrix(0.05,0,0,0.05,118.80000000000001,0)" xlink:href="#be"/></g><path d="M33 0v-248h34V0H33" id="bu"/><g id="J"><use transform="matrix(0.05,0,0,0.05,0,0)" xlink:href="#aE"/><use transform="matrix(0.05,0,0,0.05,12.950000000000001,0)" xlink:href="#bu"/><use transform="matrix(0.05,0,0,0.05,17.950000000000003,0)" xlink:href="#aQ"/><use transform="matrix(0.05,0,0,0.05,27.950000000000003,0)" xlink:href="#aP"/><use transform="matrix(0.05,0,0,0.05,32.95,0)" xlink:href="#aH"/><use transform="matrix(0.05,0,0,0.05,42.95,0)" xlink:href="#aI"/><use transform="matrix(0.05,0,0,0.05,48.900000000000006,0)" xlink:href="#bp"/><use transform="matrix(0.05,0,0,0.05,53.900000000000006,0)" xlink:href="#aL"/><use transform="matrix(0.05,0,0,0.05,63.900000000000006,0)" xlink:href="#bk"/><use transform="matrix(0.05,0,0,0.05,72.9,0)" xlink:href="#aH"/><use transform="matrix(0.05,0,0,0.05,82.9,0)" xlink:href="#bt"/><use transform="matrix(0.05,0,0,0.05,94.9,0)" xlink:href="#be"/><use transform="matrix(0.05,0,0,0.05,107.85000000000001,0)" xlink:href="#be"/></g><path d="M153-248C145-148 188 4 80 4 36 3 13-21 6-62l32-5c4 25 16 42 43 43 27 0 39-20 39-49v-147H72v-28h81" id="bv"/><g id="K"><use transform="matrix(0.05,0,0,0.05,0,0)" xlink:href="#bv"/><use transform="matrix(0.05,0,0,0.05,9,0)" xlink:href="#aU"/><use transform="matrix(0.05,0,0,0.05,19,0)" xlink:href="#bb"/><use transform="matrix(0.05,0,0,0.05,29,0)" xlink:href="#aH"/><use transform="matrix(0.05,0,0,0.05,39,0)" xlink:href="#aI"/><use transform="matrix(0.05,0,0,0.05,44.95,0)" xlink:href="#bo"/><use transform="matrix(0.05,0,0,0.05,56.95,0)" xlink:href="#aH"/><use transform="matrix(0.05,0,0,0.05,66.95,0)" xlink:href="#bn"/><use transform="matrix(0.05,0,0,0.05,76.95,0)" xlink:href="#aY"/><use transform="matrix(0.05,0,0,0.05,82.9,0)" xlink:href="#aZ"/></g><g id="L"><use transform="matrix(0.05,0,0,0.05,0,0)" xlink:href="#bf"/><use transform="matrix(0.05,0,0,0.05,12,0)" xlink:href="#aQ"/><use transform="matrix(0.05,0,0,0.05,22,0)" xlink:href="#aI"/><use transform="matrix(0.05,0,0,0.05,27.950000000000003,0)" xlink:href="#aH"/><use transform="matrix(0.05,0,0,0.05,37.95,0)" xlink:href="#aR"/><use transform="matrix(0.05,0,0,0.05,47.95,0)" xlink:href="#aM"/><use transform="matrix(0.05,0,0,0.05,51.900000000000006,0)" xlink:href="#aG"/><use transform="matrix(0.05,0,0,0.05,60.900000000000006,0)" xlink:href="#aP"/><use transform="matrix(0.05,0,0,0.05,65.9,0)" xlink:href="#aI"/><use transform="matrix(0.05,0,0,0.05,71.85000000000001,0)" xlink:href="#aH"/><use transform="matrix(0.05,0,0,0.05,81.85000000000001,0)" xlink:href="#aI"/><use transform="matrix(0.05,0,0,0.05,87.80000000000001,0)" xlink:href="#aY"/><use transform="matrix(0.05,0,0,0.05,93.75000000000001,0)" xlink:href="#aZ"/></g><g id="M"><use transform="matrix(0.05,0,0,0.05,0,0)" xlink:href="#bo"/><use transform="matrix(0.05,0,0,0.05,12,0)" xlink:href="#bb"/><use transform="matrix(0.05,0,0,0.05,22,0)" xlink:href="#aS"/><use transform="matrix(0.05,0,0,0.05,32,0)" xlink:href="#aS"/><use transform="matrix(0.05,0,0,0.05,42,0)" xlink:href="#aI"/><use transform="matrix(0.05,0,0,0.05,47.95,0)" xlink:href="#aM"/><use transform="matrix(0.05,0,0,0.05,51.900000000000006,0)" xlink:href="#aK"/><use transform="matrix(0.05,0,0,0.05,66.85000000000001,0)" xlink:href="#aH"/><use transform="matrix(0.05,0,0,0.05,76.85000000000001,0)" xlink:href="#aI"/><use transform="matrix(0.05,0,0,0.05,82.80000000000001,0)" xlink:href="#aY"/><use transform="matrix(0.05,0,0,0.05,88.75000000000001,0)" xlink:href="#aZ"/></g><path d="M240 0l2-218c-23 76-54 145-80 218h-23L58-218 59 0H30v-248h44l77 211c21-75 51-140 76-211h43V0h-30" id="bw"/><g id="N"><use transform="matrix(0.05,0,0,0.05,0,0)" xlink:href="#bo"/><use transform="matrix(0.05,0,0,0.05,12,0)" xlink:href="#aH"/><use transform="matrix(0.05,0,0,0.05,22,0)" xlink:href="#aP"/><use transform="matrix(0.05,0,0,0.05,27,0)" xlink:href="#bw"/><use transform="matrix(0.05,0,0,0.05,41.95,0)" xlink:href="#aU"/><use transform="matrix(0.05,0,0,0.05,51.95,0)" xlink:href="#aV"/><use transform="matrix(0.05,0,0,0.05,61.95,0)" xlink:href="#aH"/><use transform="matrix(0.05,0,0,0.05,71.95,0)" xlink:href="#aY"/><use transform="matrix(0.05,0,0,0.05,77.9,0)" xlink:href="#aZ"/></g><g id="O"><use transform="matrix(0.05,0,0,0.05,0,0)" xlink:href="#aE"/><use transform="matrix(0.05,0,0,0.05,12.950000000000001,0)" xlink:href="#bo"/><use transform="matrix(0.05,0,0,0.05,24.950000000000003,0)" xlink:href="#aH"/><use transform="matrix(0.05,0,0,0.05,34.95,0)" xlink:href="#bn"/><use transform="matrix(0.05,0,0,0.05,44.95,0)" xlink:href="#bb"/><use transform="matrix(0.05,0,0,0.05,54.95,0)" xlink:href="#aH"/><use transform="matrix(0.05,0,0,0.05,64.95,0)" xlink:href="#aQ"/><use transform="matrix(0.05,0,0,0.05,74.95,0)" xlink:href="#bk"/><use transform="matrix(0.05,0,0,0.05,83.95,0)" xlink:href="#aH"/><use transform="matrix(0.05,0,0,0.05,93.95,0)" xlink:href="#aY"/><use transform="matrix(0.05,0,0,0.05,99.9,0)" xlink:href="#aZ"/></g><g id="P"><use transform="matrix(0.05,0,0,0.05,0,0)" xlink:href="#bc"/><use transform="matrix(0.05,0,0,0.05,10.5,0)" xlink:href="#aE"/><use transform="matrix(0.05,0,0,0.05,23.450000000000003,0)" xlink:href="#bo"/><use transform="matrix(0.05,0,0,0.05,35.45,0)" xlink:href="#aH"/><use transform="matrix(0.05,0,0,0.05,45.45,0)" xlink:href="#bn"/><use transform="matrix(0.05,0,0,0.05,55.45,0)" xlink:href="#bb"/><use transform="matrix(0.05,0,0,0.05,65.45,0)" xlink:href="#aH"/><use transform="matrix(0.05,0,0,0.05,75.45,0)" xlink:href="#aQ"/><use transform="matrix(0.05,0,0,0.05,85.45,0)" xlink:href="#bk"/><use transform="matrix(0.05,0,0,0.05,94.45,0)" xlink:href="#aH"/><use transform="matrix(0.05,0,0,0.05,104.45,0)" xlink:href="#aY"/><use transform="matrix(0.05,0,0,0.05,110.4,0)" xlink:href="#aZ"/></g><g id="Q"><use transform="matrix(0.05,0,0,0.05,0,0)" xlink:href="#aE"/><use transform="matrix(0.05,0,0,0.05,12.950000000000001,0)" xlink:href="#bd"/><use transform="matrix(0.05,0,0,0.05,24.950000000000003,0)" xlink:href="#bj"/><use transform="matrix(0.05,0,0,0.05,33.95,0)" xlink:href="#aH"/></g><g id="R"><use transform="matrix(0.05,0,0,0.05,0,0)" xlink:href="#aL"/><use transform="matrix(0.05,0,0,0.05,10,0)" xlink:href="#aQ"/><use transform="matrix(0.05,0,0,0.05,20,0)" xlink:href="#aR"/><use transform="matrix(0.05,0,0,0.05,30,0)" xlink:href="#aN"/><use transform="matrix(0.05,0,0,0.05,33.95,0)" xlink:href="#aH"/></g><path d="M115-194c53 0 69 39 70 98 0 66-23 100-70 100C84 3 66-7 56-30L54 0H23l1-261h32v101c10-23 28-34 59-34zm-8 174c40 0 45-34 45-75 0-40-5-75-45-74-42 0-51 32-51 76 0 43 10 73 51 73" id="bx"/><g id="S"><use transform="matrix(0.05,0,0,0.05,0,0)" xlink:href="#aV"/><use transform="matrix(0.05,0,0,0.05,10,0)" xlink:href="#aU"/><use transform="matrix(0.05,0,0,0.05,20,0)" xlink:href="#bb"/><use transform="matrix(0.05,0,0,0.05,30,0)" xlink:href="#bx"/><use transform="matrix(0.05,0,0,0.05,40,0)" xlink:href="#aN"/><use transform="matrix(0.05,0,0,0.05,43.95,0)" xlink:href="#aH"/></g><g id="T"><use transform="matrix(0.05,0,0,0.05,0,0)" xlink:href="#aL"/><use transform="matrix(0.05,0,0,0.05,10,0)" xlink:href="#aQ"/><use transform="matrix(0.05,0,0,0.05,20,0)" xlink:href="#aR"/><use transform="matrix(0.05,0,0,0.05,30,0)" xlink:href="#aN"/><use transform="matrix(0.05,0,0,0.05,33.95,0)" xlink:href="#aH"/><use transform="matrix(0.05,0,0,0.05,43.95,0)" xlink:href="#bw"/><use transform="matrix(0.05,0,0,0.05,58.900000000000006,0)" xlink:href="#aM"/><use transform="matrix(0.05,0,0,0.05,62.85,0)" xlink:href="#aQ"/></g><g id="U"><use transform="matrix(0.05,0,0,0.05,0,0)" xlink:href="#aW"/><use transform="matrix(0.05,0,0,0.05,10.5,0)" xlink:href="#aL"/><use transform="matrix(0.05,0,0,0.05,20.5,0)" xlink:href="#aQ"/><use transform="matrix(0.05,0,0,0.05,30.5,0)" xlink:href="#aR"/><use transform="matrix(0.05,0,0,0.05,40.5,0)" xlink:href="#aN"/><use transform="matrix(0.05,0,0,0.05,44.45,0)" xlink:href="#aH"/><use transform="matrix(0.05,0,0,0.05,54.45,0)" xlink:href="#bw"/><use transform="matrix(0.05,0,0,0.05,69.4,0)" xlink:href="#aL"/><use transform="matrix(0.05,0,0,0.05,79.4,0)" xlink:href="#bj"/></g><g id="V"><use transform="matrix(0.05,0,0,0.05,0,0)" xlink:href="#aG"/><use transform="matrix(0.05,0,0,0.05,9,0)" xlink:href="#aS"/><use transform="matrix(0.05,0,0,0.05,19,0)" xlink:href="#aH"/><use transform="matrix(0.05,0,0,0.05,29,0)" xlink:href="#aH"/><use transform="matrix(0.05,0,0,0.05,39,0)" xlink:href="#aV"/><use transform="matrix(0.05,0,0,0.05,49,0)" xlink:href="#bw"/><use transform="matrix(0.05,0,0,0.05,63.95,0)" xlink:href="#aL"/><use transform="matrix(0.05,0,0,0.05,73.95,0)" xlink:href="#bj"/></g><g id="W"><use transform="matrix(0.05,0,0,0.05,0,0)" xlink:href="#aM"/><use transform="matrix(0.05,0,0,0.05,3.95,0)" xlink:href="#aV"/></g><g id="X"><use transform="matrix(0.05,0,0,0.05,0,0)" xlink:href="#aG"/><use transform="matrix(0.05,0,0,0.05,9,0)" xlink:href="#aK"/><use transform="matrix(0.05,0,0,0.05,23.950000000000003,0)" xlink:href="#aL"/><use transform="matrix(0.05,0,0,0.05,33.95,0)" xlink:href="#aN"/><use transform="matrix(0.05,0,0,0.05,37.900000000000006,0)" xlink:href="#aN"/><use transform="matrix(0.05,0,0,0.05,41.85000000000001,0)" xlink:href="#aM"/><use transform="matrix(0.05,0,0,0.05,45.80000000000001,0)" xlink:href="#aQ"/><use transform="matrix(0.05,0,0,0.05,55.80000000000001,0)" xlink:href="#aP"/></g><g id="Y"><use transform="matrix(0.05,0,0,0.05,0,0)" xlink:href="#aN"/><use transform="matrix(0.05,0,0,0.05,3.95,0)" xlink:href="#aU"/><use transform="matrix(0.05,0,0,0.05,13.949999999999998,0)" xlink:href="#aQ"/><use transform="matrix(0.05,0,0,0.05,23.95,0)" xlink:href="#aR"/><use transform="matrix(0.05,0,0,0.05,33.95,0)" xlink:href="#bb"/><use transform="matrix(0.05,0,0,0.05,43.95,0)" xlink:href="#aH"/><use transform="matrix(0.05,0,0,0.05,53.95,0)" xlink:href="#bb"/><use transform="matrix(0.05,0,0,0.05,63.95,0)" xlink:href="#aI"/></g><use transform="matrix(0.05,0,0,0.05,0,0)" xlink:href="#bj" id="Z"/><path d="M179-190L93 31C79 59 56 82 12 73V49c39 6 53-20 64-50L1-190h34L92-34l54-156h33" id="by"/><use transform="matrix(0.05,0,0,0.05,0,0)" xlink:href="#by" id="aa"/><path d="M9 0v-24l116-142H16v-24h144v24L44-24h123V0H9" id="bz"/><use transform="matrix(0.05,0,0,0.05,0,0)" xlink:href="#bz" id="ab"/><g id="ac"><use transform="matrix(0.05,0,0,0.05,0,0)" xlink:href="#aV"/><use transform="matrix(0.05,0,0,0.05,10,0)" xlink:href="#aU"/><use transform="matrix(0.05,0,0,0.05,20,0)" xlink:href="#bb"/><use transform="matrix(0.05,0,0,0.05,30,0)" xlink:href="#bx"/><use transform="matrix(0.05,0,0,0.05,40,0)" xlink:href="#aN"/><use transform="matrix(0.05,0,0,0.05,43.95,0)" xlink:href="#aH"/></g><g id="ad"><use transform="matrix(0.05,0,0,0.05,0,0)" xlink:href="#aE"/><use transform="matrix(0.05,0,0,0.05,12.950000000000001,0)" xlink:href="#bd"/><use transform="matrix(0.05,0,0,0.05,24.950000000000003,0)" xlink:href="#bj"/><use transform="matrix(0.05,0,0,0.05,33.95,0)" xlink:href="#aH"/><use transform="matrix(0.05,0,0,0.05,43.95,0)" xlink:href="#aY"/><use transform="matrix(0.05,0,0,0.05,49.900000000000006,0)" xlink:href="#aZ"/></g><g id="ae"><use transform="matrix(0.05,0,0,0.05,0,0)" xlink:href="#aE"/><use transform="matrix(0.05,0,0,0.05,12.950000000000001,0)" xlink:href="#bd"/><use transform="matrix(0.05,0,0,0.05,24.950000000000003,0)" xlink:href="#bj"/><use transform="matrix(0.05,0,0,0.05,33.95,0)" xlink:href="#aH"/><use transform="matrix(0.05,0,0,0.05,43.95,0)" xlink:href="#aY"/><use transform="matrix(0.05,0,0,0.05,49.900000000000006,0)" xlink:href="#aL"/><use transform="matrix(0.05,0,0,0.05,59.900000000000006,0)" xlink:href="#aQ"/><use transform="matrix(0.05,0,0,0.05,69.9,0)" xlink:href="#aR"/><use transform="matrix(0.05,0,0,0.05,79.9,0)" xlink:href="#aN"/><use transform="matrix(0.05,0,0,0.05,83.85000000000001,0)" xlink:href="#aH"/><use transform="matrix(0.05,0,0,0.05,93.85000000000001,0)" xlink:href="#bw"/><use transform="matrix(0.05,0,0,0.05,108.80000000000001,0)" xlink:href="#aM"/><use transform="matrix(0.05,0,0,0.05,112.75,0)" xlink:href="#aQ"/></g><path d="M68-38c1 34 0 65-14 84H32c9-13 17-26 17-46H33v-38h35" id="bA"/><g id="af"><use transform="matrix(0.05,0,0,0.05,0,0)" xlink:href="#aV"/><use transform="matrix(0.05,0,0,0.05,10,0)" xlink:href="#aU"/><use transform="matrix(0.05,0,0,0.05,20,0)" xlink:href="#bb"/><use transform="matrix(0.05,0,0,0.05,30,0)" xlink:href="#bx"/><use transform="matrix(0.05,0,0,0.05,40,0)" xlink:href="#aN"/><use transform="matrix(0.05,0,0,0.05,43.95,0)" xlink:href="#aH"/><use transform="matrix(0.05,0,0,0.05,53.95,0)" xlink:href="#bA"/></g><g id="ag"><use transform="matrix(0.05,0,0,0.05,0,0)" xlink:href="#aL"/><use transform="matrix(0.05,0,0,0.05,10,0)" xlink:href="#aQ"/><use transform="matrix(0.05,0,0,0.05,20,0)" xlink:href="#aR"/><use transform="matrix(0.05,0,0,0.05,30,0)" xlink:href="#aN"/><use transform="matrix(0.05,0,0,0.05,33.95,0)" xlink:href="#aH"/><use transform="matrix(0.05,0,0,0.05,43.95,0)" xlink:href="#bw"/><use transform="matrix(0.05,0,0,0.05,58.900000000000006,0)" xlink:href="#aL"/><use transform="matrix(0.05,0,0,0.05,68.9,0)" xlink:href="#bj"/></g><use transform="matrix(0.05,0,0,0.05,0,0)" xlink:href="#aO" id="ah"/><g id="ai"><use transform="matrix(0.05,0,0,0.05,0,0)" xlink:href="#aG"/><use transform="matrix(0.05,0,0,0.05,9,0)" xlink:href="#aP"/><use transform="matrix(0.05,0,0,0.05,14,0)" xlink:href="#aL"/><use transform="matrix(0.05,0,0,0.05,24,0)" xlink:href="#aI"/><use transform="matrix(0.05,0,0,0.05,29.950000000000003,0)" xlink:href="#aP"/><use transform="matrix(0.05,0,0,0.05,34.95,0)" xlink:href="#bd"/><use transform="matrix(0.05,0,0,0.05,46.95,0)" xlink:href="#aQ"/><use transform="matrix(0.05,0,0,0.05,56.95,0)" xlink:href="#aR"/><use transform="matrix(0.05,0,0,0.05,66.95,0)" xlink:href="#aN"/><use transform="matrix(0.05,0,0,0.05,70.9,0)" xlink:href="#aH"/></g><g id="aj"><use transform="matrix(0.05,0,0,0.05,0,0)" xlink:href="#aV"/><use transform="matrix(0.05,0,0,0.05,10,0)" xlink:href="#aU"/><use transform="matrix(0.05,0,0,0.05,20,0)" xlink:href="#bb"/><use transform="matrix(0.05,0,0,0.05,30,0)" xlink:href="#bx"/><use transform="matrix(0.05,0,0,0.05,40,0)" xlink:href="#aN"/><use transform="matrix(0.05,0,0,0.05,43.95,0)" xlink:href="#aH"/><use transform="matrix(0.05,0,0,0.05,53.95,0)" xlink:href="#aZ"/></g><g id="ak"><use transform="matrix(0.05,0,0,0.05,0,0)" xlink:href="#bo"/><use transform="matrix(0.05,0,0,0.05,12,0)" xlink:href="#aH"/><use transform="matrix(0.05,0,0,0.05,22,0)" xlink:href="#aP"/><use transform="matrix(0.05,0,0,0.05,27,0)" xlink:href="#bd"/><use transform="matrix(0.05,0,0,0.05,39,0)" xlink:href="#aQ"/><use transform="matrix(0.05,0,0,0.05,49,0)" xlink:href="#aR"/><use transform="matrix(0.05,0,0,0.05,59,0)" xlink:href="#aN"/><use transform="matrix(0.05,0,0,0.05,62.95,0)" xlink:href="#aH"/><use transform="matrix(0.05,0,0,0.05,72.95,0)" xlink:href="#aY"/><use transform="matrix(0.05,0,0,0.05,78.9,0)" xlink:href="#aZ"/></g><path d="M143 4C61 4 22-44 18-125c-5-107 100-154 193-111 17 8 29 25 37 43l-32 9c-13-25-37-40-76-40-61 0-88 39-88 99 0 61 29 100 91 101 35 0 62-11 79-27v-45h-74v-28h105v86C228-13 192 4 143 4" id="bB"/><g id="al"><use transform="matrix(0.05,0,0,0.05,0,0)" xlink:href="#bB"/><use transform="matrix(0.05,0,0,0.05,14,0)" xlink:href="#aH"/><use transform="matrix(0.05,0,0,0.05,24,0)" xlink:href="#aP"/><use transform="matrix(0.05,0,0,0.05,29,0)" xlink:href="#bd"/><use transform="matrix(0.05,0,0,0.05,41,0)" xlink:href="#aQ"/><use transform="matrix(0.05,0,0,0.05,51,0)" xlink:href="#aR"/><use transform="matrix(0.05,0,0,0.05,61,0)" xlink:href="#aN"/><use transform="matrix(0.05,0,0,0.05,64.95,0)" xlink:href="#aH"/><use transform="matrix(0.05,0,0,0.05,74.95,0)" xlink:href="#aY"/><use transform="matrix(0.05,0,0,0.05,80.9,0)" xlink:href="#aZ"/></g><g id="am"><use transform="matrix(0.05,0,0,0.05,0,0)" xlink:href="#aO"/><use transform="matrix(0.05,0,0,0.05,5,0)" xlink:href="#aV"/><use transform="matrix(0.05,0,0,0.05,15,0)" xlink:href="#aU"/><use transform="matrix(0.05,0,0,0.05,25,0)" xlink:href="#bb"/><use transform="matrix(0.05,0,0,0.05,35,0)" xlink:href="#bx"/><use transform="matrix(0.05,0,0,0.05,45,0)" xlink:href="#aN"/><use transform="matrix(0.05,0,0,0.05,48.95,0)" xlink:href="#aH"/></g><g id="an"><use transform="matrix(0.05,0,0,0.05,0,0)" xlink:href="#bc"/><use transform="matrix(0.05,0,0,0.05,10.5,0)" xlink:href="#aE"/><use transform="matrix(0.05,0,0,0.05,23.450000000000003,0)" xlink:href="#bd"/><use transform="matrix(0.05,0,0,0.05,35.45,0)" xlink:href="#bj"/><use transform="matrix(0.05,0,0,0.05,44.45,0)" xlink:href="#aH"/><use transform="matrix(0.05,0,0,0.05,54.45,0)" xlink:href="#aY"/><use transform="matrix(0.05,0,0,0.05,60.400000000000006,0)" xlink:href="#aZ"/></g><g id="ao"><use transform="matrix(0.05,0,0,0.05,0,0)" xlink:href="#aE"/><use transform="matrix(0.05,0,0,0.05,12.950000000000001,0)" xlink:href="#aE"/><use transform="matrix(0.05,0,0,0.05,25.900000000000002,0)" xlink:href="#aL"/><use transform="matrix(0.05,0,0,0.05,35.900000000000006,0)" xlink:href="#aS"/><use transform="matrix(0.05,0,0,0.05,45.900000000000006,0)" xlink:href="#aP"/><use transform="matrix(0.05,0,0,0.05,50.900000000000006,0)" xlink:href="#bb"/><use transform="matrix(0.05,0,0,0.05,60.900000000000006,0)" xlink:href="#aI"/><use transform="matrix(0.05,0,0,0.05,66.85000000000001,0)" xlink:href="#aH"/></g><path d="M26 75v-336h71v23H56V52h41v23H26" id="bC"/><path d="M110-160c48 1 74 30 74 79 0 53-28 85-80 85-65 0-83-55-86-122-5-90 50-162 133-122 14 7 22 21 27 39l-31 6c-5-40-67-38-82-6-9 19-15 44-15 74 11-20 30-34 60-33zm-7 138c34 0 49-23 49-58s-16-56-50-56c-29 0-50 16-49 49 1 36 15 65 50 65" id="bD"/><path d="M3 75V52h41v-290H3v-23h71V75H3" id="bE"/><g id="ap"><use transform="matrix(0.05,0,0,0.05,0,0)" xlink:href="#aL"/><use transform="matrix(0.05,0,0,0.05,10,0)" xlink:href="#aQ"/><use transform="matrix(0.05,0,0,0.05,20,0)" xlink:href="#aR"/><use transform="matrix(0.05,0,0,0.05,30,0)" xlink:href="#aN"/><use transform="matrix(0.05,0,0,0.05,33.95,0)" xlink:href="#aH"/><use transform="matrix(0.05,0,0,0.05,43.95,0)" xlink:href="#aG"/><use transform="matrix(0.05,0,0,0.05,52.95,0)" xlink:href="#bC"/><use transform="matrix(0.05,0,0,0.05,57.95,0)" xlink:href="#bD"/><use transform="matrix(0.05,0,0,0.05,67.95,0)" xlink:href="#bE"/></g><g id="aq"><use transform="matrix(0.05,0,0,0.05,0,0)" xlink:href="#aP"/><use transform="matrix(0.05,0,0,0.05,5,0)" xlink:href="#aM"/><use transform="matrix(0.05,0,0,0.05,8.95,0)" xlink:href="#aK"/><use transform="matrix(0.05,0,0,0.05,23.9,0)" xlink:href="#aH"/><use transform="matrix(0.05,0,0,0.05,33.9,0)" xlink:href="#bo"/><use transform="matrix(0.05,0,0,0.05,45.9,0)" xlink:href="#aP"/><use transform="matrix(0.05,0,0,0.05,50.9,0)" xlink:href="#aL"/><use transform="matrix(0.05,0,0,0.05,60.900000000000006,0)" xlink:href="#aK"/><use transform="matrix(0.05,0,0,0.05,75.85,0)" xlink:href="#aS"/></g><g id="ar"><use transform="matrix(0.05,0,0,0.05,0,0)" xlink:href="#aV"/><use transform="matrix(0.05,0,0,0.05,10,0)" xlink:href="#aL"/><use transform="matrix(0.05,0,0,0.05,20,0)" xlink:href="#aP"/><use transform="matrix(0.05,0,0,0.05,25,0)" xlink:href="#aH"/><use transform="matrix(0.05,0,0,0.05,35,0)" xlink:href="#aP"/><use transform="matrix(0.05,0,0,0.05,40,0)" xlink:href="#aM"/><use transform="matrix(0.05,0,0,0.05,43.95,0)" xlink:href="#aK"/><use transform="matrix(0.05,0,0,0.05,58.900000000000006,0)" xlink:href="#aH"/></g><g id="as"><use transform="matrix(0.05,0,0,0.05,0,0)" xlink:href="#aE"/><use transform="matrix(0.05,0,0,0.05,12.950000000000001,0)" xlink:href="#aE"/><use transform="matrix(0.05,0,0,0.05,25.900000000000002,0)" xlink:href="#aL"/><use transform="matrix(0.05,0,0,0.05,35.900000000000006,0)" xlink:href="#aS"/><use transform="matrix(0.05,0,0,0.05,45.900000000000006,0)" xlink:href="#aP"/><use transform="matrix(0.05,0,0,0.05,50.900000000000006,0)" xlink:href="#bb"/><use transform="matrix(0.05,0,0,0.05,60.900000000000006,0)" xlink:href="#aI"/><use transform="matrix(0.05,0,0,0.05,66.85000000000001,0)" xlink:href="#aH"/><use transform="matrix(0.05,0,0,0.05,76.85000000000001,0)" xlink:href="#aY"/><use transform="matrix(0.05,0,0,0.05,82.80000000000001,0)" xlink:href="#aZ"/></g><g id="at"><use transform="matrix(0.05,0,0,0.05,0,0)" xlink:href="#aE"/><use transform="matrix(0.05,0,0,0.05,12.950000000000001,0)" xlink:href="#aE"/><use transform="matrix(0.05,0,0,0.05,25.900000000000002,0)" xlink:href="#aL"/><use transform="matrix(0.05,0,0,0.05,35.900000000000006,0)" xlink:href="#aS"/><use transform="matrix(0.05,0,0,0.05,45.900000000000006,0)" xlink:href="#aP"/><use transform="matrix(0.05,0,0,0.05,50.900000000000006,0)" xlink:href="#bb"/><use transform="matrix(0.05,0,0,0.05,60.900000000000006,0)" xlink:href="#aI"/><use transform="matrix(0.05,0,0,0.05,66.85000000000001,0)" xlink:href="#aH"/><use transform="matrix(0.05,0,0,0.05,76.85000000000001,0)" xlink:href="#aY"/><use transform="matrix(0.05,0,0,0.05,82.80000000000001,0)" xlink:href="#aL"/><use transform="matrix(0.05,0,0,0.05,92.80000000000001,0)" xlink:href="#aQ"/><use transform="matrix(0.05,0,0,0.05,102.80000000000001,0)" xlink:href="#aR"/><use transform="matrix(0.05,0,0,0.05,112.80000000000001,0)" xlink:href="#aN"/><use transform="matrix(0.05,0,0,0.05,116.75,0)" xlink:href="#aH"/><use transform="matrix(0.05,0,0,0.05,126.75,0)" xlink:href="#aG"/><use transform="matrix(0.05,0,0,0.05,135.75,0)" xlink:href="#bC"/><use transform="matrix(0.05,0,0,0.05,140.75,0)" xlink:href="#bD"/><use transform="matrix(0.05,0,0,0.05,150.75,0)" xlink:href="#bE"/></g><g id="au"><use transform="matrix(0.05,0,0,0.05,0,0)" xlink:href="#bc"/><use transform="matrix(0.05,0,0,0.05,10.5,0)" xlink:href="#aE"/><use transform="matrix(0.05,0,0,0.05,23.450000000000003,0)" xlink:href="#aE"/><use transform="matrix(0.05,0,0,0.05,36.400000000000006,0)" xlink:href="#aL"/><use transform="matrix(0.05,0,0,0.05,46.400000000000006,0)" xlink:href="#aS"/><use transform="matrix(0.05,0,0,0.05,56.400000000000006,0)" xlink:href="#aP"/><use transform="matrix(0.05,0,0,0.05,61.400000000000006,0)" xlink:href="#bb"/><use transform="matrix(0.05,0,0,0.05,71.4,0)" xlink:href="#aI"/><use transform="matrix(0.05,0,0,0.05,77.35000000000001,0)" xlink:href="#aH"/><use transform="matrix(0.05,0,0,0.05,87.35000000000001,0)" xlink:href="#aY"/><use transform="matrix(0.05,0,0,0.05,93.30000000000001,0)" xlink:href="#aZ"/></g><g id="av"><use transform="matrix(0.05,0,0,0.05,0,0)" xlink:href="#aE"/><use transform="matrix(0.05,0,0,0.05,12.950000000000001,0)" xlink:href="#bs"/><use transform="matrix(0.05,0,0,0.05,23.900000000000002,0)" xlink:href="#aN"/><use transform="matrix(0.05,0,0,0.05,27.85,0)" xlink:href="#bb"/><use transform="matrix(0.05,0,0,0.05,37.85,0)" xlink:href="#bj"/></g><g id="aw"><use transform="matrix(0.05,0,0,0.05,0,0)" xlink:href="#aE"/><use transform="matrix(0.05,0,0,0.05,12.950000000000001,0)" xlink:href="#bs"/><use transform="matrix(0.05,0,0,0.05,23.900000000000002,0)" xlink:href="#aN"/><use transform="matrix(0.05,0,0,0.05,27.85,0)" xlink:href="#bb"/><use transform="matrix(0.05,0,0,0.05,37.85,0)" xlink:href="#bj"/><use transform="matrix(0.05,0,0,0.05,46.85,0)" xlink:href="#aY"/><use transform="matrix(0.05,0,0,0.05,52.800000000000004,0)" xlink:href="#aZ"/></g><g id="ax"><use transform="matrix(0.05,0,0,0.05,0,0)" xlink:href="#bc"/><use transform="matrix(0.05,0,0,0.05,10.5,0)" xlink:href="#aE"/><use transform="matrix(0.05,0,0,0.05,23.450000000000003,0)" xlink:href="#bs"/><use transform="matrix(0.05,0,0,0.05,34.400000000000006,0)" xlink:href="#aN"/><use transform="matrix(0.05,0,0,0.05,38.35000000000001,0)" xlink:href="#bb"/><use transform="matrix(0.05,0,0,0.05,48.35000000000001,0)" xlink:href="#bj"/><use transform="matrix(0.05,0,0,0.05,57.35,0)" xlink:href="#aY"/><use transform="matrix(0.05,0,0,0.05,63.30000000000001,0)" xlink:href="#aZ"/></g><use transform="matrix(0.05,0,0,0.05,0,0)" xlink:href="#aQ" id="ay"/><path d="M27 0v-27h64v-190l-56 39v-29l58-41h29v221h61V0H27" id="bF"/><use transform="matrix(0.05,0,0,0.05,0,0)" xlink:href="#bF" id="az"/><g id="aA"><use transform="matrix(0.05,0,0,0.05,0,0)" xlink:href="#aE"/><use transform="matrix(0.05,0,0,0.05,12.950000000000001,0)" xlink:href="#bu"/><use transform="matrix(0.05,0,0,0.05,17.950000000000003,0)" xlink:href="#aQ"/><use transform="matrix(0.05,0,0,0.05,27.950000000000003,0)" xlink:href="#aP"/><use transform="matrix(0.05,0,0,0.05,32.95,0)" xlink:href="#aH"/><use transform="matrix(0.05,0,0,0.05,42.95,0)" xlink:href="#aI"/><use transform="matrix(0.05,0,0,0.05,48.900000000000006,0)" xlink:href="#bp"/><use transform="matrix(0.05,0,0,0.05,53.900000000000006,0)" xlink:href="#aL"/><use transform="matrix(0.05,0,0,0.05,63.900000000000006,0)" xlink:href="#bk"/><use transform="matrix(0.05,0,0,0.05,72.9,0)" xlink:href="#aH"/><use transform="matrix(0.05,0,0,0.05,82.9,0)" xlink:href="#bt"/><use transform="matrix(0.05,0,0,0.05,94.9,0)" xlink:href="#be"/><use transform="matrix(0.05,0,0,0.05,107.85000000000001,0)" xlink:href="#be"/></g><g id="aB"><use transform="matrix(0.05,0,0,0.05,0,0)" xlink:href="#aE"/><use transform="matrix(0.05,0,0,0.05,12.950000000000001,0)" xlink:href="#bu"/><use transform="matrix(0.05,0,0,0.05,17.950000000000003,0)" xlink:href="#aQ"/><use transform="matrix(0.05,0,0,0.05,27.950000000000003,0)" xlink:href="#aP"/><use transform="matrix(0.05,0,0,0.05,32.95,0)" xlink:href="#aH"/><use transform="matrix(0.05,0,0,0.05,42.95,0)" xlink:href="#aI"/><use transform="matrix(0.05,0,0,0.05,48.900000000000006,0)" xlink:href="#bp"/><use transform="matrix(0.05,0,0,0.05,53.900000000000006,0)" xlink:href="#aL"/><use transform="matrix(0.05,0,0,0.05,63.900000000000006,0)" xlink:href="#bk"/><use transform="matrix(0.05,0,0,0.05,72.9,0)" xlink:href="#aH"/><use transform="matrix(0.05,0,0,0.05,82.9,0)" xlink:href="#bt"/><use transform="matrix(0.05,0,0,0.05,94.9,0)" xlink:href="#be"/><use transform="matrix(0.05,0,0,0.05,107.85000000000001,0)" xlink:href="#be"/><use transform="matrix(0.05,0,0,0.05,120.80000000000001,0)" xlink:href="#aY"/><use transform="matrix(0.05,0,0,0.05,126.75,0)" xlink:href="#aZ"/></g><g id="aC"><use transform="matrix(0.05,0,0,0.05,0,0)" xlink:href="#bc"/><use transform="matrix(0.05,0,0,0.05,10.5,0)" xlink:href="#aE"/><use transform="matrix(0.05,0,0,0.05,23.450000000000003,0)" xlink:href="#bu"/><use transform="matrix(0.05,0,0,0.05,28.450000000000003,0)" xlink:href="#aQ"/><use transform="matrix(0.05,0,0,0.05,38.45,0)" xlink:href="#aP"/><use transform="matrix(0.05,0,0,0.05,43.45,0)" xlink:href="#aH"/><use transform="matrix(0.05,0,0,0.05,53.45,0)" xlink:href="#aI"/><use transform="matrix(0.05,0,0,0.05,59.400000000000006,0)" xlink:href="#bp"/><use transform="matrix(0.05,0,0,0.05,64.4,0)" xlink:href="#aL"/><use transform="matrix(0.05,0,0,0.05,74.4,0)" xlink:href="#bk"/><use transform="matrix(0.05,0,0,0.05,83.4,0)" xlink:href="#aH"/><use transform="matrix(0.05,0,0,0.05,93.4,0)" xlink:href="#bt"/><use transform="matrix(0.05,0,0,0.05,105.4,0)" xlink:href="#be"/><use transform="matrix(0.05,0,0,0.05,118.35000000000001,0)" xlink:href="#be"/><use transform="matrix(0.05,0,0,0.05,131.3,0)" xlink:href="#aY"/><use transform="matrix(0.05,0,0,0.05,137.25,0)" xlink:href="#aZ"/></g><g id="aD"><use transform="matrix(0.05,0,0,0.05,0,0)" xlink:href="#aK"/><use transform="matrix(0.05,0,0,0.05,14.950000000000001,0)" xlink:href="#bi"/><use transform="matrix(0.05,0,0,0.05,24.950000000000003,0)" xlink:href="#bu"/><use transform="matrix(0.05,0,0,0.05,29.950000000000003,0)" xlink:href="#aQ"/><use transform="matrix(0.05,0,0,0.05,39.95,0)" xlink:href="#aP"/><use transform="matrix(0.05,0,0,0.05,44.95,0)" xlink:href="#aH"/><use transform="matrix(0.05,0,0,0.05,54.95,0)" xlink:href="#aI"/><use transform="matrix(0.05,0,0,0.05,60.900000000000006,0)" xlink:href="#bp"/><use transform="matrix(0.05,0,0,0.05,65.9,0)" xlink:href="#aL"/><use transform="matrix(0.05,0,0,0.05,75.9,0)" xlink:href="#bk"/><use transform="matrix(0.05,0,0,0.05,84.9,0)" xlink:href="#aH"/><use transform="matrix(0.05,0,0,0.05,94.9,0)" xlink:href="#bt"/><use transform="matrix(0.05,0,0,0.05,106.9,0)" xlink:href="#be"/><use transform="matrix(0.05,0,0,0.05,119.85000000000001,0)" xlink:href="#be"/></g></defs></g></svg>