<svg xmlns="http://www.w3.org/2000/svg" xmlns:xlink="http://www.w3.org/1999/xlink" xmlns:lucid="lucid" width="1858.4" height="1175.67"><g transform="translate(0 -49)" lucid:page-tab-id="0_0"><path d="M0 0h1870.4v1323.2H0z" fill="#fff"/><path d="M545.33 69h360v264h-360z" stroke="#000" stroke-width="2" fill="#fff"/><path d="M545.33 106.6h360m-360 102.3h360" stroke="#000" stroke-width="2" fill="none"/><use xlink:href="#a" transform="matrix(1,0,0,1,553.3333333333334,77) translate(146.575 14.6)"/><use xlink:href="#b" transform="matrix(1,0,0,1,557.3333333333334,114.6) translate(91.1 25.5)"/><use xlink:href="#c" transform="matrix(1,0,0,1,557.3333333333334,114.6) translate(106.1 25.5)"/><use xlink:href="#d" transform="matrix(1,0,0,1,557.3333333333334,114.6) translate(191 25.5)"/><use xlink:href="#e" transform="matrix(1,0,0,1,557.3333333333334,114.6) translate(201 25.5)"/><use xlink:href="#b" transform="matrix(1,0,0,1,557.3333333333334,114.6) translate(92.6 47.1)"/><use xlink:href="#f" transform="matrix(1,0,0,1,557.3333333333334,114.6) translate(107.6 47.1)"/><use xlink:href="#d" transform="matrix(1,0,0,1,557.3333333333334,114.6) translate(189.5 47.1)"/><use xlink:href="#e" transform="matrix(1,0,0,1,557.3333333333334,114.6) translate(199.5 47.1)"/><use xlink:href="#g" transform="matrix(1,0,0,1,557.3333333333334,114.6) translate(28.75 68.7)"/><use xlink:href="#h" transform="matrix(1,0,0,1,557.3333333333334,114.6) translate(39.7 68.7)"/><use xlink:href="#d" transform="matrix(1,0,0,1,557.3333333333334,114.6) translate(176.45 68.7)"/><use xlink:href="#i" transform="matrix(1,0,0,1,557.3333333333334,114.6) translate(186.45 68.7)"/><use xlink:href="#j" transform="matrix(1,0,0,1,557.3333333333334,216.89999999999998) translate(108.35 25.19999999999999)"/><use xlink:href="#k" transform="matrix(1,0,0,1,557.3333333333334,216.89999999999998) translate(123.85 25.19999999999999)"/><use xlink:href="#d" transform="matrix(1,0,0,1,557.3333333333334,216.89999999999998) translate(184.7 25.19999999999999)"/><use xlink:href="#l" transform="matrix(1,0,0,1,557.3333333333334,216.89999999999998) translate(194.7 25.19999999999999)"/><use xlink:href="#j" transform="matrix(1,0,0,1,557.3333333333334,216.89999999999998) translate(102.82499999999999 46.79999999999999)"/><use xlink:href="#m" transform="matrix(1,0,0,1,557.3333333333334,216.89999999999998) translate(118.32499999999999 46.79999999999999)"/><use xlink:href="#d" transform="matrix(1,0,0,1,557.3333333333334,216.89999999999998) translate(190.225 46.79999999999999)"/><use xlink:href="#l" transform="matrix(1,0,0,1,557.3333333333334,216.89999999999998) translate(200.225 46.79999999999999)"/><use xlink:href="#j" transform="matrix(1,0,0,1,557.3333333333334,216.89999999999998) translate(128.875 68.39999999999999)"/><use xlink:href="#n" transform="matrix(1,0,0,1,557.3333333333334,216.89999999999998) translate(144.375 68.39999999999999)"/><use xlink:href="#j" transform="matrix(1,0,0,1,557.3333333333334,216.89999999999998) translate(123.625 90)"/><use xlink:href="#o" transform="matrix(1,0,0,1,557.3333333333334,216.89999999999998) translate(139.125 90)"/><path d="M20 80h360v242H20z" stroke="#000" stroke-width="2" fill="#fff"/><path d="M20 117.6h360M20 176.7h360" stroke="#000" stroke-width="2" fill="none"/><use xlink:href="#p" transform="matrix(1,0,0,1,28,88) translate(140.075 14.6)"/><use xlink:href="#j" transform="matrix(1,0,0,1,32,184.7) translate(101.875 25.39999999999999)"/><use xlink:href="#q" transform="matrix(1,0,0,1,32,184.7) translate(117.375 25.39999999999999)"/><use xlink:href="#d" transform="matrix(1,0,0,1,32,184.7) translate(191.175 25.39999999999999)"/><use xlink:href="#l" transform="matrix(1,0,0,1,32,184.7) translate(201.175 25.39999999999999)"/><use xlink:href="#j" transform="matrix(1,0,0,1,32,184.7) translate(88.92499999999998 46.99999999999999)"/><use xlink:href="#r" transform="matrix(1,0,0,1,32,184.7) translate(104.42499999999998 46.99999999999999)"/><use xlink:href="#d" transform="matrix(1,0,0,1,32,184.7) translate(204.125 46.99999999999999)"/><use xlink:href="#l" transform="matrix(1,0,0,1,32,184.7) translate(214.125 46.99999999999999)"/><use xlink:href="#j" transform="matrix(1,0,0,1,32,184.7) translate(114.85 68.6)"/><use xlink:href="#s" transform="matrix(1,0,0,1,32,184.7) translate(130.35 68.6)"/><use xlink:href="#d" transform="matrix(1,0,0,1,32,184.7) translate(178.2 68.6)"/><use xlink:href="#l" transform="matrix(1,0,0,1,32,184.7) translate(188.2 68.6)"/><use xlink:href="#j" transform="matrix(1,0,0,1,32,184.7) translate(122.375 90.20000000000002)"/><use xlink:href="#t" transform="matrix(1,0,0,1,32,184.7) translate(137.875 90.20000000000002)"/><use xlink:href="#j" transform="matrix(1,0,0,1,32,184.7) translate(117.125 111.80000000000001)"/><use xlink:href="#u" transform="matrix(1,0,0,1,32,184.7) translate(132.625 111.80000000000001)"/><path d="M382 201h137.85" stroke="#000" stroke-width="2" fill="none"/><path d="M382.03 202H381v-2h1.03z"/><path d="M542.37 201l-21.52 12.73v-25.46zM540 424.1h360v421H540z" stroke="#000" stroke-width="2" fill="#fff"/><path d="M540 461.7h360M540 631.9h360" stroke="#000" stroke-width="2" fill="none"/><use xlink:href="#v" transform="matrix(1,0,0,1,548,432.0999999999999) translate(146.25 14.6)"/><use xlink:href="#g" transform="matrix(1,0,0,1,552,469.69999999999993) translate(66.6 70.3)"/><use xlink:href="#w" transform="matrix(1,0,0,1,552,469.69999999999993) translate(77.55 70.3)"/><use xlink:href="#d" transform="matrix(1,0,0,1,552,469.69999999999993) translate(145.5 70.3)"/><use xlink:href="#x" transform="matrix(1,0,0,1,552,469.69999999999993) translate(155.5 70.3)"/><use xlink:href="#g" transform="matrix(1,0,0,1,552,469.69999999999993) translate(56.57499999999999 91.9)"/><use xlink:href="#y" transform="matrix(1,0,0,1,552,469.69999999999993) translate(67.52499999999999 91.9)"/><use xlink:href="#d" transform="matrix(1,0,0,1,552,469.69999999999993) translate(175.475 91.9)"/><use xlink:href="#z" transform="matrix(1,0,0,1,552,469.69999999999993) translate(185.475 91.9)"/><use xlink:href="#j" transform="matrix(1,0,0,1,552,639.8999999999999) translate(100.05 70.19999999999999)"/><use xlink:href="#A" transform="matrix(1,0,0,1,552,639.8999999999999) translate(115.55 70.19999999999999)"/><use xlink:href="#d" transform="matrix(1,0,0,1,552,639.8999999999999) translate(193 70.19999999999999)"/><use xlink:href="#l" transform="matrix(1,0,0,1,552,639.8999999999999) translate(203 70.19999999999999)"/><use xlink:href="#j" transform="matrix(1,0,0,1,552,639.8999999999999) translate(94.89999999999999 91.8)"/><use xlink:href="#B" transform="matrix(1,0,0,1,552,639.8999999999999) translate(110.39999999999999 91.8)"/><use xlink:href="#d" transform="matrix(1,0,0,1,552,639.8999999999999) translate(198.15 91.8)"/><use xlink:href="#l" transform="matrix(1,0,0,1,552,639.8999999999999) translate(208.15 91.8)"/><use xlink:href="#j" transform="matrix(1,0,0,1,552,639.8999999999999) translate(128.55 113.4)"/><use xlink:href="#C" transform="matrix(1,0,0,1,552,639.8999999999999) translate(144.05 113.4)"/><use xlink:href="#j" transform="matrix(1,0,0,1,552,639.8999999999999) translate(123.3 135)"/><use xlink:href="#D" transform="matrix(1,0,0,1,552,639.8999999999999) translate(138.8 135)"/><path d="M1059.2 340h360v307h-360z" stroke="#000" stroke-width="2" fill="#fff"/><path d="M1059.2 377.6h360m-360 102.3h360" stroke="#000" stroke-width="2" fill="none"/><use xlink:href="#E" transform="matrix(1,0,0,1,1067.1999999999998,348) translate(125.025 14.6)"/><use xlink:href="#g" transform="matrix(1,0,0,1,1071.1999999999998,385.6) translate(34.67499999999998 25.5)"/><use xlink:href="#F" transform="matrix(1,0,0,1,1071.1999999999998,385.6) translate(45.624999999999986 25.5)"/><use xlink:href="#d" transform="matrix(1,0,0,1,1071.1999999999998,385.6) translate(144.52499999999998 25.5)"/><use xlink:href="#G" transform="matrix(1,0,0,1,1071.1999999999998,385.6) translate(154.52499999999998 25.5)"/><use xlink:href="#g" transform="matrix(1,0,0,1,1071.1999999999998,385.6) translate(105.14999999999999 47.1)"/><use xlink:href="#H" transform="matrix(1,0,0,1,1071.1999999999998,385.6) translate(116.1 47.1)"/><use xlink:href="#d" transform="matrix(1,0,0,1,1071.1999999999998,385.6) translate(174 47.1)"/><use xlink:href="#I" transform="matrix(1,0,0,1,1071.1999999999998,385.6) translate(184 47.1)"/><use xlink:href="#g" transform="matrix(1,0,0,1,1071.1999999999998,385.6) translate(28.75 68.7)"/><use xlink:href="#h" transform="matrix(1,0,0,1,1071.1999999999998,385.6) translate(39.7 68.7)"/><use xlink:href="#d" transform="matrix(1,0,0,1,1071.1999999999998,385.6) translate(176.45 68.7)"/><use xlink:href="#i" transform="matrix(1,0,0,1,1071.1999999999998,385.6) translate(186.45 68.7)"/><use xlink:href="#j" transform="matrix(1,0,0,1,1071.1999999999998,487.90000000000003) translate(91.85 25.6)"/><use xlink:href="#J" transform="matrix(1,0,0,1,1071.1999999999998,487.90000000000003) translate(107.35 25.6)"/><use xlink:href="#d" transform="matrix(1,0,0,1,1071.1999999999998,487.90000000000003) translate(201.2 25.6)"/><use xlink:href="#l" transform="matrix(1,0,0,1,1071.1999999999998,487.90000000000003) translate(211.2 25.6)"/><use xlink:href="#j" transform="matrix(1,0,0,1,1071.1999999999998,487.90000000000003) translate(86.42499999999998 47.2)"/><use xlink:href="#K" transform="matrix(1,0,0,1,1071.1999999999998,487.90000000000003) translate(101.92499999999998 47.2)"/><use xlink:href="#d" transform="matrix(1,0,0,1,1071.1999999999998,487.90000000000003) translate(206.625 47.2)"/><use xlink:href="#l" transform="matrix(1,0,0,1,1071.1999999999998,487.90000000000003) translate(216.625 47.2)"/><use xlink:href="#j" transform="matrix(1,0,0,1,1071.1999999999998,487.90000000000003) translate(88.92499999999998 68.80000000000001)"/><use xlink:href="#r" transform="matrix(1,0,0,1,1071.1999999999998,487.90000000000003) translate(104.42499999999998 68.80000000000001)"/><use xlink:href="#d" transform="matrix(1,0,0,1,1071.1999999999998,487.90000000000003) translate(204.125 68.80000000000001)"/><use xlink:href="#l" transform="matrix(1,0,0,1,1071.1999999999998,487.90000000000003) translate(214.125 68.80000000000001)"/><use xlink:href="#j" transform="matrix(1,0,0,1,1071.1999999999998,487.90000000000003) translate(94.35 90.40000000000002)"/><use xlink:href="#L" transform="matrix(1,0,0,1,1071.1999999999998,487.90000000000003) translate(109.85 90.40000000000002)"/><use xlink:href="#d" transform="matrix(1,0,0,1,1071.1999999999998,487.90000000000003) translate(198.7 90.40000000000002)"/><use xlink:href="#l" transform="matrix(1,0,0,1,1071.1999999999998,487.90000000000003) translate(208.7 90.40000000000002)"/><use xlink:href="#j" transform="matrix(1,0,0,1,1071.1999999999998,487.90000000000003) translate(107.32499999999999 112.00000000000001)"/><use xlink:href="#M" transform="matrix(1,0,0,1,1071.1999999999998,487.90000000000003) translate(122.82499999999999 112.00000000000001)"/><use xlink:href="#j" transform="matrix(1,0,0,1,1071.1999999999998,487.90000000000003) translate(102.07499999999999 133.6)"/><use xlink:href="#N" transform="matrix(1,0,0,1,1071.1999999999998,487.90000000000003) translate(117.57499999999999 133.6)"/><path d="M20 424.1h380v475H20z" stroke="#000" stroke-width="2" fill="#fff"/><path d="M20 461.7h380M20 712.6h380" stroke="#000" stroke-width="2" fill="none"/><g><use xlink:href="#O" transform="matrix(1,0,0,1,28,432.0999999999999) translate(160.025 14.6)"/></g><g><use xlink:href="#j" transform="matrix(1,0,0,1,32,469.69999999999993) translate(113.8 34.70000000000001)"/><use xlink:href="#P" transform="matrix(1,0,0,1,32,469.69999999999993) translate(129.3 34.70000000000001)"/><use xlink:href="#d" transform="matrix(1,0,0,1,32,469.69999999999993) translate(178.25 34.70000000000001)"/><use xlink:href="#Q" transform="matrix(1,0,0,1,32,469.69999999999993) translate(188.25 34.70000000000001)"/><use xlink:href="#j" transform="matrix(1,0,0,1,32,469.69999999999993) translate(99.35 56.30000000000001)"/><use xlink:href="#R" transform="matrix(1,0,0,1,32,469.69999999999993) translate(114.85 56.30000000000001)"/><use xlink:href="#d" transform="matrix(1,0,0,1,32,469.69999999999993) translate(192.7 56.30000000000001)"/><use xlink:href="#Q" transform="matrix(1,0,0,1,32,469.69999999999993) translate(202.7 56.30000000000001)"/><use xlink:href="#S" transform="matrix(1,0,0,1,32,469.69999999999993) translate(99.32499999999999 77.90000000000002)"/><use xlink:href="#d" transform="matrix(1,0,0,1,32,469.69999999999993) translate(192.725 77.90000000000002)"/><use xlink:href="#Q" transform="matrix(1,0,0,1,32,469.69999999999993) translate(202.725 77.90000000000002)"/><use xlink:href="#j" transform="matrix(1,0,0,1,32,469.69999999999993) translate(94.3 99.50000000000003)"/><use xlink:href="#T" transform="matrix(1,0,0,1,32,469.69999999999993) translate(109.8 99.50000000000003)"/><use xlink:href="#d" transform="matrix(1,0,0,1,32,469.69999999999993) translate(197.75 99.50000000000003)"/><use xlink:href="#Q" transform="matrix(1,0,0,1,32,469.69999999999993) translate(207.75 99.50000000000003)"/><use xlink:href="#j" transform="matrix(1,0,0,1,32,469.69999999999993) translate(125.375 121.10000000000002)"/><use xlink:href="#U" transform="matrix(1,0,0,1,32,469.69999999999993) translate(140.875 121.10000000000002)"/><use xlink:href="#d" transform="matrix(1,0,0,1,32,469.69999999999993) translate(159.825 121.10000000000002)"/><use xlink:href="#V" transform="matrix(1,0,0,1,32,469.69999999999993) translate(169.825 121.10000000000002)"/><use xlink:href="#j" transform="matrix(1,0,0,1,32,469.69999999999993) translate(100.82499999999999 142.70000000000002)"/><use xlink:href="#W" transform="matrix(1,0,0,1,32,469.69999999999993) translate(116.32499999999999 142.70000000000002)"/><use xlink:href="#d" transform="matrix(1,0,0,1,32,469.69999999999993) translate(191.225 142.70000000000002)"/><use xlink:href="#Q" transform="matrix(1,0,0,1,32,469.69999999999993) translate(201.225 142.70000000000002)"/><use xlink:href="#j" transform="matrix(1,0,0,1,32,469.69999999999993) translate(131.275 164.3)"/><use xlink:href="#X" transform="matrix(1,0,0,1,32,469.69999999999993) translate(146.775 164.3)"/><use xlink:href="#d" transform="matrix(1,0,0,1,32,469.69999999999993) translate(160.775 164.3)"/><use xlink:href="#Q" transform="matrix(1,0,0,1,32,469.69999999999993) translate(170.775 164.3)"/><use xlink:href="#j" transform="matrix(1,0,0,1,32,469.69999999999993) translate(131.275 185.9)"/><use xlink:href="#Y" transform="matrix(1,0,0,1,32,469.69999999999993) translate(146.775 185.9)"/><use xlink:href="#d" transform="matrix(1,0,0,1,32,469.69999999999993) translate(160.775 185.9)"/><use xlink:href="#Q" transform="matrix(1,0,0,1,32,469.69999999999993) translate(170.775 185.9)"/><use xlink:href="#j" transform="matrix(1,0,0,1,32,469.69999999999993) translate(131.275 207.5)"/><use xlink:href="#Z" transform="matrix(1,0,0,1,32,469.69999999999993) translate(146.775 207.5)"/><use xlink:href="#d" transform="matrix(1,0,0,1,32,469.69999999999993) translate(160.775 207.5)"/><use xlink:href="#aa" transform="matrix(1,0,0,1,32,469.69999999999993) translate(170.775 207.5)"/></g><g><use xlink:href="#j" transform="matrix(1,0,0,1,32,720.5999999999999) translate(142.325 35.1)"/><use xlink:href="#ab" transform="matrix(1,0,0,1,32,720.5999999999999) translate(157.825 35.1)"/><use xlink:href="#j" transform="matrix(1,0,0,1,32,720.5999999999999) translate(25.44999999999999 56.7)"/><use xlink:href="#ac" transform="matrix(1,0,0,1,32,720.5999999999999) translate(40.94999999999999 56.7)"/><use xlink:href="#d" transform="matrix(1,0,0,1,32,720.5999999999999) translate(168.7 56.7)"/><use xlink:href="#ad" transform="matrix(1,0,0,1,32,720.5999999999999) translate(178.7 56.7)"/><use xlink:href="#ae" transform="matrix(1,0,0,1,32,720.5999999999999) translate(242.64999999999998 56.7)"/><use xlink:href="#af" transform="matrix(1,0,0,1,32,720.5999999999999) translate(325.55 56.7)"/><use xlink:href="#ad" transform="matrix(1,0,0,1,32,720.5999999999999) translate(68.12499999999999 78.30000000000001)"/><use xlink:href="#ag" transform="matrix(1,0,0,1,32,720.5999999999999) translate(132.075 78.30000000000001)"/><use xlink:href="#d" transform="matrix(1,0,0,1,32,720.5999999999999) translate(217.97500000000002 78.30000000000001)"/><use xlink:href="#ah" transform="matrix(1,0,0,1,32,720.5999999999999) translate(227.97500000000002 78.30000000000001)"/><use xlink:href="#j" transform="matrix(1,0,0,1,32,720.5999999999999) translate(103.85 99.90000000000002)"/><use xlink:href="#ai" transform="matrix(1,0,0,1,32,720.5999999999999) translate(119.35 99.90000000000002)"/><use xlink:href="#d" transform="matrix(1,0,0,1,32,720.5999999999999) translate(209.2 99.90000000000002)"/><use xlink:href="#l" transform="matrix(1,0,0,1,32,720.5999999999999) translate(219.2 99.90000000000002)"/><use xlink:href="#j" transform="matrix(1,0,0,1,32,720.5999999999999) translate(94.85 121.50000000000001)"/><use xlink:href="#aj" transform="matrix(1,0,0,1,32,720.5999999999999) translate(110.35 121.50000000000001)"/><use xlink:href="#ak" transform="matrix(1,0,0,1,32,720.5999999999999) translate(202.2 121.50000000000001)"/><use xlink:href="#j" transform="matrix(1,0,0,1,32,720.5999999999999) translate(137.075 143.1)"/><use xlink:href="#al" transform="matrix(1,0,0,1,32,720.5999999999999) translate(152.575 143.1)"/></g><path d="M402.82 522.46h105.43M420.18 512.28l-17.22 10.18 17.22 10.18" stroke="#000" stroke-width="2" fill="none"/><path d="M537.6 522.46l-14.86 14.85-15.15-14.84 15.14-14.85z" stroke="#000" stroke-width="2"/><g><use xlink:href="#am" transform="matrix(1,0,0,1,431.1916666666667,496.86308255942737) translate(0.004999999999999005 14.4)"/></g><path d="M1059.2 840.67h360v364h-360z" stroke="#000" stroke-width="2" fill="#fff"/><path d="M1059.2 878.27h360m-360 152.2h360" stroke="#000" stroke-width="2" fill="none"/><g><use xlink:href="#an" transform="matrix(1,0,0,1,1067.1999999999998,848.6666666666666) translate(133.575 14.6)"/></g><g><use xlink:href="#ao" transform="matrix(1,0,0,1,1071.1999999999998,886.2666666666667) translate(54.125 61.3)"/><use xlink:href="#ap" transform="matrix(1,0,0,1,1071.1999999999998,886.2666666666667) translate(65.075 61.3)"/><use xlink:href="#aq" transform="matrix(1,0,0,1,1071.1999999999998,886.2666666666667) translate(147.97500000000002 61.3)"/><use xlink:href="#ar" transform="matrix(1,0,0,1,1071.1999999999998,886.2666666666667) translate(157.97500000000002 61.3)"/><use xlink:href="#g" transform="matrix(1,0,0,1,1071.1999999999998,886.2666666666667) translate(77.65 82.9)"/><use xlink:href="#as" transform="matrix(1,0,0,1,1071.1999999999998,886.2666666666667) translate(88.60000000000001 82.9)"/><use xlink:href="#d" transform="matrix(1,0,0,1,1071.1999999999998,886.2666666666667) translate(179.45 82.9)"/><use xlink:href="#at" transform="matrix(1,0,0,1,1071.1999999999998,886.2666666666667) translate(189.45 82.9)"/></g><g><use xlink:href="#j" transform="matrix(1,0,0,1,1071.1999999999998,1038.4666666666667) translate(115.875 61)"/><use xlink:href="#au" transform="matrix(1,0,0,1,1071.1999999999998,1038.4666666666667) translate(131.375 61)"/><use xlink:href="#av" transform="matrix(1,0,0,1,1071.1999999999998,1038.4666666666667) translate(1.4750000000000227 82.60000000000001)"/><use xlink:href="#aw" transform="matrix(1,0,0,1,1071.1999999999998,1038.4666666666667) translate(16.975000000000023 82.60000000000001)"/><use xlink:href="#aq" transform="matrix(1,0,0,1,1071.1999999999998,1038.4666666666667) translate(182.675 82.60000000000001)"/><use xlink:href="#ax" transform="matrix(1,0,0,1,1071.1999999999998,1038.4666666666667) translate(192.675 82.60000000000001)"/><use xlink:href="#j" transform="matrix(1,0,0,1,1071.1999999999998,1038.4666666666667) translate(110.625 104.20000000000002)"/><use xlink:href="#ay" transform="matrix(1,0,0,1,1071.1999999999998,1038.4666666666667) translate(126.125 104.20000000000002)"/></g><path d="M1239.2 837.85v-159.1M1229.02 820.5l10.18 17.2 10.18-17.2" stroke="#000" stroke-width="2" fill="none"/><path d="M1239.2 649.4l14.85 14.86-14.85 15.15-14.85-15.14z" stroke="#000" stroke-width="2"/><g><use xlink:href="#az" transform="matrix(1,0,0,1,1247.1999999999998,746.2459569517162) translate(0.005000000000002558 14.4)"/></g><path d="M1598.4 400.1h240v278h-240z" stroke="#000" stroke-width="2" fill="#fff"/><path d="M1598.4 437.7h240m-240 109.6h240" stroke="#000" stroke-width="2" fill="none"/><g><use xlink:href="#aA" transform="matrix(1,0,0,1,1606.3999999999999,408.0999999999999) translate(88.575 14.6)"/></g><g><use xlink:href="#j" transform="matrix(1,0,0,1,1610.3999999999999,555.3) translate(70.875 50.8)"/><use xlink:href="#aB" transform="matrix(1,0,0,1,1610.3999999999999,555.3) translate(86.375 50.8)"/><use xlink:href="#j" transform="matrix(1,0,0,1,1610.3999999999999,555.3) translate(65.625 72.4)"/><use xlink:href="#aC" transform="matrix(1,0,0,1,1610.3999999999999,555.3) translate(81.125 72.4)"/></g><path d="M400 538.08h40v30h-40z" stroke="#000" stroke-opacity="0" stroke-width="2" fill="#fff" fill-opacity="0"/><g><use xlink:href="#aD" transform="matrix(1,0,0,1,405,543.0833333333333) translate(0 14.4)"/></g><path d="M513.33 533.33h20v39.5h-20z" stroke="#000" stroke-opacity="0" stroke-width="2" fill="#fff" fill-opacity="0"/><g><use xlink:href="#aE" transform="matrix(1,0,0,1,518.3333333333334,538.3333333333333) translate(0 18.6)"/></g><path d="M1450.95 493.5h144.63" stroke="#000" stroke-width="2" fill="none"/><path d="M1421.6 493.5l14.86-14.85 15.15 14.85-15.14 14.85z" stroke="#000" stroke-width="2" fill="#fff"/><path d="M1578.22 503.68l17.22-10.18-17.22-10.18" stroke="#000" stroke-width="2" fill="none"/><g><use xlink:href="#aF" transform="matrix(1,0,0,1,1482.3499999999997,467.90000000000003) translate(0.004999999999999005 14.4)"/></g><path d="M1478.4 160h360v199h-360z" stroke="#000" stroke-width="2" fill="#fff"/><path d="M1478.4 197.6h360m-360 80.7h360" stroke="#000" stroke-width="2" fill="none"/><g><use xlink:href="#aG" transform="matrix(1,0,0,1,1486.3999999999999,168) translate(111.6 14.6)"/></g><g><use xlink:href="#g" transform="matrix(1,0,0,1,1490.3999999999999,205.6) translate(106.125 25.299999999999997)"/><use xlink:href="#aH" transform="matrix(1,0,0,1,1490.3999999999999,205.6) translate(117.075 25.299999999999997)"/><use xlink:href="#d" transform="matrix(1,0,0,1,1490.3999999999999,205.6) translate(181.97500000000002 25.299999999999997)"/><use xlink:href="#aI" transform="matrix(1,0,0,1,1490.3999999999999,205.6) translate(191.97500000000002 25.299999999999997)"/><use xlink:href="#g" transform="matrix(1,0,0,1,1490.3999999999999,205.6) translate(63.05 46.9)"/><use xlink:href="#y" transform="matrix(1,0,0,1,1490.3999999999999,205.6) translate(74 46.9)"/><use xlink:href="#d" transform="matrix(1,0,0,1,1490.3999999999999,205.6) translate(181.95 46.9)"/><use xlink:href="#aJ" transform="matrix(1,0,0,1,1490.3999999999999,205.6) translate(191.95 46.9)"/></g><g><use xlink:href="#j" transform="matrix(1,0,0,1,1490.3999999999999,286.3) translate(93.89999999999999 25.299999999999997)"/><use xlink:href="#aK" transform="matrix(1,0,0,1,1490.3999999999999,286.3) translate(109.39999999999999 25.299999999999997)"/><use xlink:href="#j" transform="matrix(1,0,0,1,1490.3999999999999,286.3) translate(88.65 46.9)"/><use xlink:href="#aL" transform="matrix(1,0,0,1,1490.3999999999999,286.3) translate(104.15 46.9)"/></g><path d="M1239.2 308.25V259.5h236.38" stroke="#000" stroke-width="2" fill="none"/><path d="M1239.2 337.6l-14.85-14.86 14.85-15.15 14.85 15.14z" stroke="#000" stroke-width="2" fill="#fff"/><path d="M1458.22 269.68l17.22-10.18-17.22-10.18" stroke="#000" stroke-width="2" fill="none"/><g><use xlink:href="#aM" transform="matrix(1,0,0,1,1278.2629592189637,233.89999999999998) translate(0.0049999999999954525 14.4)"/></g><path d="M931.75 493.5h124.63" stroke="#000" stroke-width="2" fill="none"/><path d="M902.4 493.5l14.86-14.85 15.15 14.85-15.14 14.85z" stroke="#000" stroke-width="2"/><path d="M1039.02 503.68l17.22-10.18-17.22-10.18" stroke="#000" stroke-width="2" fill="none"/><g><use xlink:href="#aN" transform="matrix(1,0,0,1,928.1249999999999,467.90000000000003) translate(0.005000000000002558 14.4)"/></g><path d="M905.33 506.67h20v39.5h-20z" stroke="#000" stroke-opacity="0" stroke-width="2" fill="#fff" fill-opacity="0"/><g><use xlink:href="#aE" transform="matrix(1,0,0,1,910.3333333333334,511.66666666666674) translate(0 18.6)"/></g><path d="M1039.2 503.33h20v30h-20z" stroke="#000" stroke-opacity="0" stroke-width="2" fill="#fff" fill-opacity="0"/><g><use xlink:href="#aO" transform="matrix(1,0,0,1,1044.1999999999998,508.33333333333326) translate(0 14.4)"/></g><path d="M1182.67 800h40v40h-40z" stroke="#000" stroke-opacity="0" stroke-width="2" fill="#fff" fill-opacity="0"/><g><use xlink:href="#aD" transform="matrix(1,0,0,1,1187.6666666666665,805) translate(0 18.6)"/></g><path d="M1200 641.85h20v39.5h-20z" stroke="#000" stroke-opacity="0" stroke-width="2" fill="#fff" fill-opacity="0"/><g><use xlink:href="#aE" transform="matrix(1,0,0,1,1205,646.8499999999999) translate(0 18.6)"/></g><path d="M1419.2 499.82h52.93v53.2h-52.93z" stroke="#000" stroke-opacity="0" stroke-width="2" fill="#fff" fill-opacity="0"/><g><use xlink:href="#aE" transform="matrix(1,0,0,1,1424.1999999999998,504.8166666666667) translate(16.5 25.4)"/></g><path d="M1578.4 498.58h20v39.5h-20z" stroke="#000" stroke-opacity="0" stroke-width="2" fill="#fff" fill-opacity="0"/><g><use xlink:href="#aE" transform="matrix(1,0,0,1,1583.3999999999999,503.58333333333326) translate(0 18.6)"/></g><path d="M1458.4 210.67h20v39.5h-20z" stroke="#000" stroke-opacity="0" stroke-width="2" fill="#fff" fill-opacity="0"/><g><use xlink:href="#aE" transform="matrix(1,0,0,1,1463.3999999999999,215.66666666666666) translate(0 18.6)"/></g><path d="M1202.67 308h20v30h-20z" stroke="#000" stroke-opacity="0" stroke-width="2" fill="#fff" fill-opacity="0"/><g><use xlink:href="#aO" transform="matrix(1,0,0,1,1207.6666666666665,313) translate(0 14.4)"/></g><path d="M937.08 201h9.25v-82h712.07v38.18" stroke="#000" stroke-width="2" fill="none"/><path d="M907.75 201l14.85-14.85L937.75 201l-15.15 14.85z" stroke="#000" stroke-width="2" fill="#fff"/><path d="M1648.22 139.82l10.18 17.22 10.18-17.22" stroke="#000" stroke-width="2" fill="none"/><g><use xlink:href="#aM" transform="matrix(1,0,0,1,1204.2700714022103,93.4) translate(0.0049999999999954525 14.4)"/></g><path d="M909.2 215.42h20v30h-20z" stroke="#000" stroke-opacity="0" stroke-width="2" fill="#fff" fill-opacity="0"/><g><use xlink:href="#aO" transform="matrix(1,0,0,1,914.1999999999999,220.41666666666666) translate(0 14.4)"/></g><path d="M1624 125.33h20v39.5h-20z" stroke="#000" stroke-opacity="0" stroke-width="2" fill="#fff" fill-opacity="0"/><g><use xlink:href="#aE" transform="matrix(1,0,0,1,1629,130.33333333333334) translate(0 18.6)"/></g><defs><path d="M212-179c-10-28-35-45-73-45-59 0-87 40-87 99 0 60 29 101 89 101 43 0 62-24 78-52l27 14C228-24 195 4 139 4 59 4 22-46 18-125c-6-104 99-153 187-111 19 9 31 26 39 46" id="aP"/><path d="M232-93c-1 65-40 97-104 97C67 4 28-28 28-90v-158h33c8 89-33 224 67 224 102 0 64-133 71-224h33v155" id="aQ"/><path d="M135-143c-3-34-86-38-87 0 15 53 115 12 119 90S17 21 10-45l28-5c4 36 97 45 98 0-10-56-113-15-118-90-4-57 82-63 122-42 12 7 21 19 24 35" id="aR"/><path d="M100-194c63 0 86 42 84 106H49c0 40 14 67 53 68 26 1 43-12 49-29l28 8c-11 28-37 45-77 45C44 4 14-33 15-96c1-61 26-98 85-98zm52 81c6-60-76-77-97-28-3 7-6 17-6 28h103" id="aS"/><path d="M114-163C36-179 61-72 57 0H25l-1-190h30c1 12-1 29 2 39 6-27 23-49 58-41v29" id="aT"/><g id="a"><use transform="matrix(0.05,0,0,0.05,0,0)" xlink:href="#aP"/><use transform="matrix(0.05,0,0,0.05,12.950000000000001,0)" xlink:href="#aQ"/><use transform="matrix(0.05,0,0,0.05,25.900000000000002,0)" xlink:href="#aR"/><use transform="matrix(0.05,0,0,0.05,34.900000000000006,0)" xlink:href="#aS"/><use transform="matrix(0.05,0,0,0.05,44.900000000000006,0)" xlink:href="#aT"/></g><path d="M158-156l-14 65h45v19h-49L124 0h-19l15-72H56L41 0H22l15-72H2v-19h39l14-65H11v-19h48l15-71h20l-16 71h64l16-71h19l-16 71h37v19h-40zm-83 0L61-91h63l14-65H75" id="aU"/><use transform="matrix(0.05,0,0,0.05,0,0)" xlink:href="#aU" id="b"/><path d="M84 4C-5 8 30-112 23-190h32v120c0 31 7 50 39 49 72-2 45-101 50-169h31l1 190h-30c-1-10 1-25-2-33-11 22-28 36-60 37" id="aV"/><path d="M117-194c89-4 53 116 60 194h-32v-121c0-31-8-49-39-48C34-167 62-67 57 0H25l-1-190h30c1 10-1 24 2 32 11-22 29-35 61-36" id="aW"/><path d="M141-36C126-15 110 5 73 4 37 3 15-17 15-53c-1-64 63-63 125-63 3-35-9-54-41-54-24 1-41 7-42 31l-33-3c5-37 33-52 76-52 45 0 72 20 72 64v82c-1 20 7 32 28 27v20c-31 9-61-2-59-35zM48-53c0 20 12 33 32 33 41-3 63-29 60-74-43 2-92-5-92 41" id="aX"/><path d="M210-169c-67 3-38 105-44 169h-31v-121c0-29-5-50-35-48C34-165 62-65 56 0H25l-1-190h30c1 10-1 24 2 32 10-44 99-50 107 0 11-21 27-35 58-36 85-2 47 119 55 194h-31v-121c0-29-5-49-35-48" id="aY"/><g id="c"><use transform="matrix(0.05,0,0,0.05,0,0)" xlink:href="#aV"/><use transform="matrix(0.05,0,0,0.05,10,0)" xlink:href="#aR"/><use transform="matrix(0.05,0,0,0.05,19,0)" xlink:href="#aS"/><use transform="matrix(0.05,0,0,0.05,29,0)" xlink:href="#aT"/><use transform="matrix(0.05,0,0,0.05,34.95,0)" xlink:href="#aW"/><use transform="matrix(0.05,0,0,0.05,44.95,0)" xlink:href="#aX"/><use transform="matrix(0.05,0,0,0.05,54.95,0)" xlink:href="#aY"/><use transform="matrix(0.05,0,0,0.05,69.9,0)" xlink:href="#aS"/></g><path d="M33-154v-36h34v36H33zM33 0v-36h34V0H33" id="aZ"/><use transform="matrix(0.05,0,0,0.05,0,0)" xlink:href="#aZ" id="d"/><path d="M59-47c-2 24 18 29 38 22v24C64 9 27 4 27-40v-127H5v-23h24l9-43h21v43h35v23H59v120" id="ba"/><path d="M24-231v-30h32v30H24zM24 0v-190h32V0H24" id="bb"/><path d="M177-190C167-65 218 103 67 71c-23-6-38-20-44-43l32-5c15 47 100 32 89-28v-30C133-14 115 1 83 1 29 1 15-40 15-95c0-56 16-97 71-98 29-1 48 16 59 35 1-10 0-23 2-32h30zM94-22c36 0 50-32 50-73 0-42-14-75-50-75-39 0-46 34-46 75s6 73 46 73" id="bc"/><g id="e"><use transform="matrix(0.05,0,0,0.05,0,0)" xlink:href="#aR"/><use transform="matrix(0.05,0,0,0.05,9,0)" xlink:href="#ba"/><use transform="matrix(0.05,0,0,0.05,14,0)" xlink:href="#aT"/><use transform="matrix(0.05,0,0,0.05,19.95,0)" xlink:href="#bb"/><use transform="matrix(0.05,0,0,0.05,23.9,0)" xlink:href="#aW"/><use transform="matrix(0.05,0,0,0.05,33.9,0)" xlink:href="#bc"/></g><path d="M115-194c55 1 70 41 70 98S169 2 115 4C84 4 66-9 55-30l1 105H24l-1-265h31l2 30c10-21 28-34 59-34zm-8 174c40 0 45-34 45-75s-6-73-45-74c-42 0-51 32-51 76 0 43 10 73 51 73" id="bd"/><path d="M206 0h-36l-40-164L89 0H53L-1-190h32L70-26l43-164h34l41 164 42-164h31" id="be"/><path d="M100-194c62-1 85 37 85 99 1 63-27 99-86 99S16-35 15-95c0-66 28-99 85-99zM99-20c44 1 53-31 53-75 0-43-8-75-51-75s-53 32-53 75 10 74 51 75" id="bf"/><path d="M85-194c31 0 48 13 60 33l-1-100h32l1 261h-30c-2-10 0-23-3-31C134-8 116 4 85 4 32 4 16-35 15-94c0-66 23-100 70-100zm9 24c-40 0-46 34-46 75 0 40 6 74 45 74 42 0 51-32 51-76 0-42-9-74-50-73" id="bg"/><g id="f"><use transform="matrix(0.05,0,0,0.05,0,0)" xlink:href="#bd"/><use transform="matrix(0.05,0,0,0.05,10,0)" xlink:href="#aX"/><use transform="matrix(0.05,0,0,0.05,20,0)" xlink:href="#aR"/><use transform="matrix(0.05,0,0,0.05,29,0)" xlink:href="#aR"/><use transform="matrix(0.05,0,0,0.05,38,0)" xlink:href="#be"/><use transform="matrix(0.05,0,0,0.05,50.95,0)" xlink:href="#bf"/><use transform="matrix(0.05,0,0,0.05,60.95,0)" xlink:href="#aT"/><use transform="matrix(0.05,0,0,0.05,66.9,0)" xlink:href="#bg"/></g><path d="M16-82v-28h88v28H16" id="bh"/><use transform="matrix(0.05,0,0,0.05,0,0)" xlink:href="#bh" id="g"/><path d="M-5 72V49h209v23H-5" id="bi"/><path d="M101-234c-31-9-42 10-38 44h38v23H63V0H32v-167H5v-23h27c-7-52 17-82 69-68v24" id="bj"/><path d="M96-169c-40 0-48 33-48 73s9 75 48 75c24 0 41-14 43-38l32 2c-6 37-31 61-74 61-59 0-76-41-82-99-10-93 101-131 147-64 4 7 5 14 7 22l-32 3c-4-21-16-35-41-35" id="bk"/><path d="M160-131c35 5 61 23 61 61C221 17 115-2 30 0v-248c76 3 177-17 177 60 0 33-19 50-47 57zm-97-11c50-1 110 9 110-42 0-47-63-36-110-37v79zm0 115c55-2 124 14 124-45 0-56-70-42-124-44v89" id="bl"/><path d="M30-248c118-7 216 8 213 122C240-48 200 0 122 0H30v-248zM63-27c89 8 146-16 146-99s-60-101-146-95v194" id="bm"/><g id="h"><use transform="matrix(0.05,0,0,0.05,0,0)" xlink:href="#aY"/><use transform="matrix(0.05,0,0,0.05,14.950000000000001,0)" xlink:href="#bi"/><use transform="matrix(0.05,0,0,0.05,24.950000000000003,0)" xlink:href="#bb"/><use transform="matrix(0.05,0,0,0.05,28.900000000000002,0)" xlink:href="#aW"/><use transform="matrix(0.05,0,0,0.05,38.900000000000006,0)" xlink:href="#ba"/><use transform="matrix(0.05,0,0,0.05,43.900000000000006,0)" xlink:href="#aS"/><use transform="matrix(0.05,0,0,0.05,53.900000000000006,0)" xlink:href="#aT"/><use transform="matrix(0.05,0,0,0.05,59.85,0)" xlink:href="#bj"/><use transform="matrix(0.05,0,0,0.05,64.85000000000001,0)" xlink:href="#aX"/><use transform="matrix(0.05,0,0,0.05,74.85000000000001,0)" xlink:href="#bk"/><use transform="matrix(0.05,0,0,0.05,83.85000000000001,0)" xlink:href="#aS"/><use transform="matrix(0.05,0,0,0.05,93.85000000000001,0)" xlink:href="#bl"/><use transform="matrix(0.05,0,0,0.05,105.85000000000001,0)" xlink:href="#bm"/><use transform="matrix(0.05,0,0,0.05,118.80000000000001,0)" xlink:href="#bm"/></g><path d="M33 0v-248h34V0H33" id="bn"/><g id="i"><use transform="matrix(0.05,0,0,0.05,0,0)" xlink:href="#aP"/><use transform="matrix(0.05,0,0,0.05,12.950000000000001,0)" xlink:href="#bn"/><use transform="matrix(0.05,0,0,0.05,17.950000000000003,0)" xlink:href="#aW"/><use transform="matrix(0.05,0,0,0.05,27.950000000000003,0)" xlink:href="#ba"/><use transform="matrix(0.05,0,0,0.05,32.95,0)" xlink:href="#aS"/><use transform="matrix(0.05,0,0,0.05,42.95,0)" xlink:href="#aT"/><use transform="matrix(0.05,0,0,0.05,48.900000000000006,0)" xlink:href="#bj"/><use transform="matrix(0.05,0,0,0.05,53.900000000000006,0)" xlink:href="#aX"/><use transform="matrix(0.05,0,0,0.05,63.900000000000006,0)" xlink:href="#bk"/><use transform="matrix(0.05,0,0,0.05,72.9,0)" xlink:href="#aS"/><use transform="matrix(0.05,0,0,0.05,82.9,0)" xlink:href="#bl"/><use transform="matrix(0.05,0,0,0.05,94.9,0)" xlink:href="#bm"/><use transform="matrix(0.05,0,0,0.05,107.85000000000001,0)" xlink:href="#bm"/></g><path d="M118-107v75H92v-75H18v-26h74v-75h26v75h74v26h-74" id="bo"/><use transform="matrix(0.05,0,0,0.05,0,0)" xlink:href="#bo" id="j"/><path d="M30 0v-248h33v221h125V0H30" id="bp"/><path d="M87 75C49 33 22-17 22-94c0-76 28-126 65-167h31c-38 41-64 92-64 168S80 34 118 75H87" id="bq"/><path d="M33-261c38 41 65 92 65 168S71 34 33 75H2C39 34 66-17 66-93S39-220 2-261h31" id="br"/><g id="k"><use transform="matrix(0.05,0,0,0.05,0,0)" xlink:href="#bp"/><use transform="matrix(0.05,0,0,0.05,10,0)" xlink:href="#bf"/><use transform="matrix(0.05,0,0,0.05,20,0)" xlink:href="#bc"/><use transform="matrix(0.05,0,0,0.05,30,0)" xlink:href="#bb"/><use transform="matrix(0.05,0,0,0.05,33.95,0)" xlink:href="#aW"/><use transform="matrix(0.05,0,0,0.05,43.95,0)" xlink:href="#bq"/><use transform="matrix(0.05,0,0,0.05,49.900000000000006,0)" xlink:href="#br"/></g><path d="M108 0H70L1-190h34L89-25l56-165h34" id="bs"/><g id="l"><use transform="matrix(0.05,0,0,0.05,0,0)" xlink:href="#bs"/><use transform="matrix(0.05,0,0,0.05,9,0)" xlink:href="#bf"/><use transform="matrix(0.05,0,0,0.05,19,0)" xlink:href="#bb"/><use transform="matrix(0.05,0,0,0.05,22.95,0)" xlink:href="#bg"/></g><g id="m"><use transform="matrix(0.05,0,0,0.05,0,0)" xlink:href="#bp"/><use transform="matrix(0.05,0,0,0.05,10,0)" xlink:href="#bf"/><use transform="matrix(0.05,0,0,0.05,20,0)" xlink:href="#bc"/><use transform="matrix(0.05,0,0,0.05,30,0)" xlink:href="#bf"/><use transform="matrix(0.05,0,0,0.05,40,0)" xlink:href="#aV"/><use transform="matrix(0.05,0,0,0.05,50,0)" xlink:href="#ba"/><use transform="matrix(0.05,0,0,0.05,55,0)" xlink:href="#bq"/><use transform="matrix(0.05,0,0,0.05,60.95,0)" xlink:href="#br"/></g><g id="n"><use transform="matrix(0.05,0,0,0.05,0,0)" xlink:href="#aP"/><use transform="matrix(0.05,0,0,0.05,12.950000000000001,0)" xlink:href="#aQ"/><use transform="matrix(0.05,0,0,0.05,25.900000000000002,0)" xlink:href="#aR"/><use transform="matrix(0.05,0,0,0.05,34.900000000000006,0)" xlink:href="#aS"/><use transform="matrix(0.05,0,0,0.05,44.900000000000006,0)" xlink:href="#aT"/><use transform="matrix(0.05,0,0,0.05,50.85000000000001,0)" xlink:href="#bq"/><use transform="matrix(0.05,0,0,0.05,56.80000000000001,0)" xlink:href="#br"/></g><path d="M16-127c37-31 93-2 135 6 18-1 32-8 43-16v26c-50 42-130-35-178 9v-25" id="bt"/><g id="o"><use transform="matrix(0.05,0,0,0.05,0,0)" xlink:href="#bt"/><use transform="matrix(0.05,0,0,0.05,10.5,0)" xlink:href="#aP"/><use transform="matrix(0.05,0,0,0.05,23.450000000000003,0)" xlink:href="#aQ"/><use transform="matrix(0.05,0,0,0.05,36.400000000000006,0)" xlink:href="#aR"/><use transform="matrix(0.05,0,0,0.05,45.400000000000006,0)" xlink:href="#aS"/><use transform="matrix(0.05,0,0,0.05,55.400000000000006,0)" xlink:href="#aT"/><use transform="matrix(0.05,0,0,0.05,61.35,0)" xlink:href="#bq"/><use transform="matrix(0.05,0,0,0.05,67.30000000000001,0)" xlink:href="#br"/></g><path d="M205 0l-28-72H64L36 0H1l101-248h38L239 0h-34zm-38-99l-47-123c-12 45-31 82-46 123h93" id="bu"/><g id="p"><use transform="matrix(0.05,0,0,0.05,0,0)" xlink:href="#aP"/><use transform="matrix(0.05,0,0,0.05,12.950000000000001,0)" xlink:href="#bu"/><use transform="matrix(0.05,0,0,0.05,24.950000000000003,0)" xlink:href="#bg"/><use transform="matrix(0.05,0,0,0.05,34.95,0)" xlink:href="#aY"/><use transform="matrix(0.05,0,0,0.05,49.900000000000006,0)" xlink:href="#bb"/><use transform="matrix(0.05,0,0,0.05,53.85,0)" xlink:href="#aW"/></g><path d="M24-231v-30h32v30H24zM-9 49c24 4 33-6 33-30v-209h32V24c2 40-23 58-65 49V49" id="bv"/><g id="q"><use transform="matrix(0.05,0,0,0.05,0,0)" xlink:href="#bu"/><use transform="matrix(0.05,0,0,0.05,12,0)" xlink:href="#bv"/><use transform="matrix(0.05,0,0,0.05,15.949999999999998,0)" xlink:href="#bf"/><use transform="matrix(0.05,0,0,0.05,25.950000000000003,0)" xlink:href="#aV"/><use transform="matrix(0.05,0,0,0.05,35.95,0)" xlink:href="#ba"/><use transform="matrix(0.05,0,0,0.05,40.95,0)" xlink:href="#aS"/><use transform="matrix(0.05,0,0,0.05,50.95,0)" xlink:href="#aT"/><use transform="matrix(0.05,0,0,0.05,56.900000000000006,0)" xlink:href="#bq"/><use transform="matrix(0.05,0,0,0.05,62.85,0)" xlink:href="#br"/></g><path d="M185-189c-5-48-123-54-124 2 14 75 158 14 163 119 3 78-121 87-175 55-17-10-28-26-33-46l33-7c5 56 141 63 141-1 0-78-155-14-162-118-5-82 145-84 179-34 5 7 8 16 11 25" id="bw"/><g id="r"><use transform="matrix(0.05,0,0,0.05,0,0)" xlink:href="#bw"/><use transform="matrix(0.05,0,0,0.05,12,0)" xlink:href="#aV"/><use transform="matrix(0.05,0,0,0.05,22,0)" xlink:href="#bd"/><use transform="matrix(0.05,0,0,0.05,32,0)" xlink:href="#bd"/><use transform="matrix(0.05,0,0,0.05,42,0)" xlink:href="#aT"/><use transform="matrix(0.05,0,0,0.05,47.95,0)" xlink:href="#bb"/><use transform="matrix(0.05,0,0,0.05,51.900000000000006,0)" xlink:href="#aY"/><use transform="matrix(0.05,0,0,0.05,66.85000000000001,0)" xlink:href="#aS"/><use transform="matrix(0.05,0,0,0.05,76.85000000000001,0)" xlink:href="#aT"/><use transform="matrix(0.05,0,0,0.05,82.80000000000001,0)" xlink:href="#bq"/><use transform="matrix(0.05,0,0,0.05,88.75000000000001,0)" xlink:href="#br"/></g><path d="M30 0v-248h187v28H63v79h144v27H63v87h162V0H30" id="bx"/><g id="s"><use transform="matrix(0.05,0,0,0.05,0,0)" xlink:href="#bx"/><use transform="matrix(0.05,0,0,0.05,12,0)" xlink:href="#bg"/><use transform="matrix(0.05,0,0,0.05,22,0)" xlink:href="#bb"/><use transform="matrix(0.05,0,0,0.05,25.950000000000003,0)" xlink:href="#ba"/><use transform="matrix(0.05,0,0,0.05,30.950000000000003,0)" xlink:href="#bq"/><use transform="matrix(0.05,0,0,0.05,36.9,0)" xlink:href="#br"/></g><g id="t"><use transform="matrix(0.05,0,0,0.05,0,0)" xlink:href="#aP"/><use transform="matrix(0.05,0,0,0.05,12.950000000000001,0)" xlink:href="#bu"/><use transform="matrix(0.05,0,0,0.05,24.950000000000003,0)" xlink:href="#bg"/><use transform="matrix(0.05,0,0,0.05,34.95,0)" xlink:href="#aY"/><use transform="matrix(0.05,0,0,0.05,49.900000000000006,0)" xlink:href="#bb"/><use transform="matrix(0.05,0,0,0.05,53.85,0)" xlink:href="#aW"/><use transform="matrix(0.05,0,0,0.05,63.85,0)" xlink:href="#bq"/><use transform="matrix(0.05,0,0,0.05,69.80000000000001,0)" xlink:href="#br"/></g><g id="u"><use transform="matrix(0.05,0,0,0.05,0,0)" xlink:href="#bt"/><use transform="matrix(0.05,0,0,0.05,10.5,0)" xlink:href="#aP"/><use transform="matrix(0.05,0,0,0.05,23.450000000000003,0)" xlink:href="#bu"/><use transform="matrix(0.05,0,0,0.05,35.45,0)" xlink:href="#bg"/><use transform="matrix(0.05,0,0,0.05,45.45,0)" xlink:href="#aY"/><use transform="matrix(0.05,0,0,0.05,60.400000000000006,0)" xlink:href="#bb"/><use transform="matrix(0.05,0,0,0.05,64.35000000000001,0)" xlink:href="#aW"/><use transform="matrix(0.05,0,0,0.05,74.35000000000001,0)" xlink:href="#bq"/><use transform="matrix(0.05,0,0,0.05,80.30000000000001,0)" xlink:href="#br"/></g><path d="M137 0h-34L2-248h35l83 218 83-218h36" id="by"/><g id="v"><use transform="matrix(0.05,0,0,0.05,0,0)" xlink:href="#aP"/><use transform="matrix(0.05,0,0,0.05,12.950000000000001,0)" xlink:href="#by"/><use transform="matrix(0.05,0,0,0.05,24.6,0)" xlink:href="#bb"/><use transform="matrix(0.05,0,0,0.05,28.55,0)" xlink:href="#aS"/><use transform="matrix(0.05,0,0,0.05,38.55,0)" xlink:href="#be"/></g><path d="M141 0L90-78 38 0H4l68-98-65-92h35l48 74 47-74h35l-64 92 68 98h-35" id="bz"/><g id="w"><use transform="matrix(0.05,0,0,0.05,0,0)" xlink:href="#aY"/><use transform="matrix(0.05,0,0,0.05,14.950000000000001,0)" xlink:href="#bi"/><use transform="matrix(0.05,0,0,0.05,24.950000000000003,0)" xlink:href="#aX"/><use transform="matrix(0.05,0,0,0.05,34.95,0)" xlink:href="#bz"/><use transform="matrix(0.05,0,0,0.05,43.95,0)" xlink:href="#aS"/><use transform="matrix(0.05,0,0,0.05,53.95,0)" xlink:href="#aR"/></g><path d="M18-100v-36l175-74v27L42-118l151 64v27" id="bA"/><path d="M18-27v-27l151-64-151-65v-27l175 74v36" id="bB"/><g id="x"><use transform="matrix(0.05,0,0,0.05,0,0)" xlink:href="#bs"/><use transform="matrix(0.05,0,0,0.05,9,0)" xlink:href="#aS"/><use transform="matrix(0.05,0,0,0.05,19,0)" xlink:href="#bk"/><use transform="matrix(0.05,0,0,0.05,28,0)" xlink:href="#ba"/><use transform="matrix(0.05,0,0,0.05,33,0)" xlink:href="#bf"/><use transform="matrix(0.05,0,0,0.05,43,0)" xlink:href="#aT"/><use transform="matrix(0.05,0,0,0.05,48.95,0)" xlink:href="#bA"/><use transform="matrix(0.05,0,0,0.05,59.45,0)" xlink:href="#aP"/><use transform="matrix(0.05,0,0,0.05,72.4,0)" xlink:href="#bu"/><use transform="matrix(0.05,0,0,0.05,84.4,0)" xlink:href="#bz"/><use transform="matrix(0.05,0,0,0.05,93.4,0)" xlink:href="#aS"/><use transform="matrix(0.05,0,0,0.05,103.4,0)" xlink:href="#bB"/></g><path d="M145-31C134-9 116 4 85 4 32 4 16-35 15-94c0-59 17-99 70-100 32-1 48 14 60 33 0-11-1-24 2-32h30l-1 268h-32zM93-21c41 0 51-33 51-76s-8-73-50-73c-40 0-46 35-46 75s5 74 45 74" id="bC"/><g id="y"><use transform="matrix(0.05,0,0,0.05,0,0)" xlink:href="#aY"/><use transform="matrix(0.05,0,0,0.05,14.950000000000001,0)" xlink:href="#bi"/><use transform="matrix(0.05,0,0,0.05,24.950000000000003,0)" xlink:href="#aR"/><use transform="matrix(0.05,0,0,0.05,33.95,0)" xlink:href="#aS"/><use transform="matrix(0.05,0,0,0.05,43.95,0)" xlink:href="#bC"/><use transform="matrix(0.05,0,0,0.05,53.95,0)" xlink:href="#aV"/><use transform="matrix(0.05,0,0,0.05,63.95,0)" xlink:href="#aS"/><use transform="matrix(0.05,0,0,0.05,73.95,0)" xlink:href="#aW"/><use transform="matrix(0.05,0,0,0.05,83.95,0)" xlink:href="#bk"/><use transform="matrix(0.05,0,0,0.05,92.95,0)" xlink:href="#aS"/></g><g id="z"><use transform="matrix(0.05,0,0,0.05,0,0)" xlink:href="#aP"/><use transform="matrix(0.05,0,0,0.05,12.950000000000001,0)" xlink:href="#bw"/><use transform="matrix(0.05,0,0,0.05,24.950000000000003,0)" xlink:href="#aS"/><use transform="matrix(0.05,0,0,0.05,34.95,0)" xlink:href="#bC"/><use transform="matrix(0.05,0,0,0.05,44.95,0)" xlink:href="#aV"/><use transform="matrix(0.05,0,0,0.05,54.95,0)" xlink:href="#aS"/><use transform="matrix(0.05,0,0,0.05,64.95,0)" xlink:href="#aW"/><use transform="matrix(0.05,0,0,0.05,74.95,0)" xlink:href="#bk"/><use transform="matrix(0.05,0,0,0.05,83.95,0)" xlink:href="#aS"/></g><path d="M106-169C34-169 62-67 57 0H25v-261h32l-1 103c12-21 28-36 61-36 89 0 53 116 60 194h-32v-121c2-32-8-49-39-48" id="bD"/><g id="A"><use transform="matrix(0.05,0,0,0.05,0,0)" xlink:href="#bu"/><use transform="matrix(0.05,0,0,0.05,12,0)" xlink:href="#bj"/><use transform="matrix(0.05,0,0,0.05,16.65,0)" xlink:href="#bj"/><use transform="matrix(0.05,0,0,0.05,21.65,0)" xlink:href="#bb"/><use transform="matrix(0.05,0,0,0.05,25.599999999999998,0)" xlink:href="#bk"/><use transform="matrix(0.05,0,0,0.05,34.599999999999994,0)" xlink:href="#bD"/><use transform="matrix(0.05,0,0,0.05,44.599999999999994,0)" xlink:href="#aS"/><use transform="matrix(0.05,0,0,0.05,54.599999999999994,0)" xlink:href="#aT"/><use transform="matrix(0.05,0,0,0.05,60.54999999999999,0)" xlink:href="#bq"/><use transform="matrix(0.05,0,0,0.05,66.5,0)" xlink:href="#br"/></g><path d="M233-177c-1 41-23 64-60 70L243 0h-38l-65-103H63V0H30v-248c88 3 205-21 203 71zM63-129c60-2 137 13 137-47 0-61-80-42-137-45v92" id="bE"/><g id="B"><use transform="matrix(0.05,0,0,0.05,0,0)" xlink:href="#bE"/><use transform="matrix(0.05,0,0,0.05,12.950000000000001,0)" xlink:href="#aS"/><use transform="matrix(0.05,0,0,0.05,22.950000000000003,0)" xlink:href="#bk"/><use transform="matrix(0.05,0,0,0.05,31.950000000000003,0)" xlink:href="#aS"/><use transform="matrix(0.05,0,0,0.05,41.95,0)" xlink:href="#bs"/><use transform="matrix(0.05,0,0,0.05,50.95,0)" xlink:href="#bf"/><use transform="matrix(0.05,0,0,0.05,60.95,0)" xlink:href="#bb"/><use transform="matrix(0.05,0,0,0.05,64.9,0)" xlink:href="#aT"/><use transform="matrix(0.05,0,0,0.05,70.85000000000001,0)" xlink:href="#bq"/><use transform="matrix(0.05,0,0,0.05,76.80000000000001,0)" xlink:href="#br"/></g><g id="C"><use transform="matrix(0.05,0,0,0.05,0,0)" xlink:href="#aP"/><use transform="matrix(0.05,0,0,0.05,12.950000000000001,0)" xlink:href="#by"/><use transform="matrix(0.05,0,0,0.05,24.6,0)" xlink:href="#bb"/><use transform="matrix(0.05,0,0,0.05,28.55,0)" xlink:href="#aS"/><use transform="matrix(0.05,0,0,0.05,38.55,0)" xlink:href="#be"/><use transform="matrix(0.05,0,0,0.05,51.5,0)" xlink:href="#bq"/><use transform="matrix(0.05,0,0,0.05,57.45,0)" xlink:href="#br"/></g><g id="D"><use transform="matrix(0.05,0,0,0.05,0,0)" xlink:href="#bt"/><use transform="matrix(0.05,0,0,0.05,10.5,0)" xlink:href="#aP"/><use transform="matrix(0.05,0,0,0.05,23.450000000000003,0)" xlink:href="#by"/><use transform="matrix(0.05,0,0,0.05,35.1,0)" xlink:href="#bb"/><use transform="matrix(0.05,0,0,0.05,39.050000000000004,0)" xlink:href="#aS"/><use transform="matrix(0.05,0,0,0.05,49.050000000000004,0)" xlink:href="#be"/><use transform="matrix(0.05,0,0,0.05,62,0)" xlink:href="#bq"/><use transform="matrix(0.05,0,0,0.05,67.95,0)" xlink:href="#br"/></g><g id="E"><use transform="matrix(0.05,0,0,0.05,0,0)" xlink:href="#aP"/><use transform="matrix(0.05,0,0,0.05,12.950000000000001,0)" xlink:href="#bw"/><use transform="matrix(0.05,0,0,0.05,24.950000000000003,0)" xlink:href="#aS"/><use transform="matrix(0.05,0,0,0.05,34.95,0)" xlink:href="#bC"/><use transform="matrix(0.05,0,0,0.05,44.95,0)" xlink:href="#aV"/><use transform="matrix(0.05,0,0,0.05,54.95,0)" xlink:href="#aS"/><use transform="matrix(0.05,0,0,0.05,64.95,0)" xlink:href="#aW"/><use transform="matrix(0.05,0,0,0.05,74.95,0)" xlink:href="#bk"/><use transform="matrix(0.05,0,0,0.05,83.95,0)" xlink:href="#aS"/></g><g id="F"><use transform="matrix(0.05,0,0,0.05,0,0)" xlink:href="#aY"/><use transform="matrix(0.05,0,0,0.05,14.950000000000001,0)" xlink:href="#bi"/><use transform="matrix(0.05,0,0,0.05,24.950000000000003,0)" xlink:href="#bk"/><use transform="matrix(0.05,0,0,0.05,33.95,0)" xlink:href="#aX"/><use transform="matrix(0.05,0,0,0.05,43.95,0)" xlink:href="#bd"/><use transform="matrix(0.05,0,0,0.05,53.95,0)" xlink:href="#ba"/><use transform="matrix(0.05,0,0,0.05,58.95,0)" xlink:href="#aV"/><use transform="matrix(0.05,0,0,0.05,68.95,0)" xlink:href="#aT"/><use transform="matrix(0.05,0,0,0.05,74.9,0)" xlink:href="#aS"/><use transform="matrix(0.05,0,0,0.05,84.9,0)" xlink:href="#aR"/></g><g id="G"><use transform="matrix(0.05,0,0,0.05,0,0)" xlink:href="#bs"/><use transform="matrix(0.05,0,0,0.05,9,0)" xlink:href="#aS"/><use transform="matrix(0.05,0,0,0.05,19,0)" xlink:href="#bk"/><use transform="matrix(0.05,0,0,0.05,28,0)" xlink:href="#ba"/><use transform="matrix(0.05,0,0,0.05,33,0)" xlink:href="#bf"/><use transform="matrix(0.05,0,0,0.05,43,0)" xlink:href="#aT"/><use transform="matrix(0.05,0,0,0.05,48.95,0)" xlink:href="#bA"/><use transform="matrix(0.05,0,0,0.05,59.45,0)" xlink:href="#aP"/><use transform="matrix(0.05,0,0,0.05,72.4,0)" xlink:href="#aP"/><use transform="matrix(0.05,0,0,0.05,85.35000000000001,0)" xlink:href="#aX"/><use transform="matrix(0.05,0,0,0.05,95.35000000000001,0)" xlink:href="#bd"/><use transform="matrix(0.05,0,0,0.05,105.35000000000001,0)" xlink:href="#ba"/><use transform="matrix(0.05,0,0,0.05,110.35000000000001,0)" xlink:href="#aV"/><use transform="matrix(0.05,0,0,0.05,120.35000000000001,0)" xlink:href="#aT"/><use transform="matrix(0.05,0,0,0.05,126.30000000000001,0)" xlink:href="#aS"/><use transform="matrix(0.05,0,0,0.05,136.3,0)" xlink:href="#bB"/></g><path d="M24 0v-261h32V0H24" id="bF"/><g id="H"><use transform="matrix(0.05,0,0,0.05,0,0)" xlink:href="#aY"/><use transform="matrix(0.05,0,0,0.05,14.950000000000001,0)" xlink:href="#bi"/><use transform="matrix(0.05,0,0,0.05,24.950000000000003,0)" xlink:href="#bj"/><use transform="matrix(0.05,0,0,0.05,29.950000000000003,0)" xlink:href="#bF"/><use transform="matrix(0.05,0,0,0.05,33.900000000000006,0)" xlink:href="#aV"/><use transform="matrix(0.05,0,0,0.05,43.900000000000006,0)" xlink:href="#bz"/></g><path d="M63-220v92h138v28H63V0H30v-248h175v28H63" id="bG"/><g id="I"><use transform="matrix(0.05,0,0,0.05,0,0)" xlink:href="#aP"/><use transform="matrix(0.05,0,0,0.05,12.950000000000001,0)" xlink:href="#bG"/><use transform="matrix(0.05,0,0,0.05,23.900000000000002,0)" xlink:href="#bF"/><use transform="matrix(0.05,0,0,0.05,27.85,0)" xlink:href="#aV"/><use transform="matrix(0.05,0,0,0.05,37.85,0)" xlink:href="#bz"/></g><path d="M153-248C145-148 188 4 80 4 36 3 13-21 6-62l32-5c4 25 16 42 43 43 27 0 39-20 39-49v-147H72v-28h81" id="bH"/><g id="J"><use transform="matrix(0.05,0,0,0.05,0,0)" xlink:href="#bH"/><use transform="matrix(0.05,0,0,0.05,9,0)" xlink:href="#bf"/><use transform="matrix(0.05,0,0,0.05,19,0)" xlink:href="#aV"/><use transform="matrix(0.05,0,0,0.05,29,0)" xlink:href="#aS"/><use transform="matrix(0.05,0,0,0.05,39,0)" xlink:href="#aT"/><use transform="matrix(0.05,0,0,0.05,44.95,0)" xlink:href="#bw"/><use transform="matrix(0.05,0,0,0.05,56.95,0)" xlink:href="#aS"/><use transform="matrix(0.05,0,0,0.05,66.95,0)" xlink:href="#bC"/><use transform="matrix(0.05,0,0,0.05,76.95,0)" xlink:href="#bq"/><use transform="matrix(0.05,0,0,0.05,82.9,0)" xlink:href="#br"/></g><g id="K"><use transform="matrix(0.05,0,0,0.05,0,0)" xlink:href="#bx"/><use transform="matrix(0.05,0,0,0.05,12,0)" xlink:href="#aW"/><use transform="matrix(0.05,0,0,0.05,22,0)" xlink:href="#aT"/><use transform="matrix(0.05,0,0,0.05,27.950000000000003,0)" xlink:href="#aS"/><use transform="matrix(0.05,0,0,0.05,37.95,0)" xlink:href="#bc"/><use transform="matrix(0.05,0,0,0.05,47.95,0)" xlink:href="#bb"/><use transform="matrix(0.05,0,0,0.05,51.900000000000006,0)" xlink:href="#aR"/><use transform="matrix(0.05,0,0,0.05,60.900000000000006,0)" xlink:href="#ba"/><use transform="matrix(0.05,0,0,0.05,65.9,0)" xlink:href="#aT"/><use transform="matrix(0.05,0,0,0.05,71.85000000000001,0)" xlink:href="#aS"/><use transform="matrix(0.05,0,0,0.05,81.85000000000001,0)" xlink:href="#aT"/><use transform="matrix(0.05,0,0,0.05,87.80000000000001,0)" xlink:href="#bq"/><use transform="matrix(0.05,0,0,0.05,93.75000000000001,0)" xlink:href="#br"/></g><path d="M240 0l2-218c-23 76-54 145-80 218h-23L58-218 59 0H30v-248h44l77 211c21-75 51-140 76-211h43V0h-30" id="bI"/><g id="L"><use transform="matrix(0.05,0,0,0.05,0,0)" xlink:href="#bw"/><use transform="matrix(0.05,0,0,0.05,12,0)" xlink:href="#aS"/><use transform="matrix(0.05,0,0,0.05,22,0)" xlink:href="#ba"/><use transform="matrix(0.05,0,0,0.05,27,0)" xlink:href="#bI"/><use transform="matrix(0.05,0,0,0.05,41.95,0)" xlink:href="#bf"/><use transform="matrix(0.05,0,0,0.05,51.95,0)" xlink:href="#bg"/><use transform="matrix(0.05,0,0,0.05,61.95,0)" xlink:href="#aS"/><use transform="matrix(0.05,0,0,0.05,71.95,0)" xlink:href="#bq"/><use transform="matrix(0.05,0,0,0.05,77.9,0)" xlink:href="#br"/></g><g id="M"><use transform="matrix(0.05,0,0,0.05,0,0)" xlink:href="#aP"/><use transform="matrix(0.05,0,0,0.05,12.950000000000001,0)" xlink:href="#bw"/><use transform="matrix(0.05,0,0,0.05,24.950000000000003,0)" xlink:href="#aS"/><use transform="matrix(0.05,0,0,0.05,34.95,0)" xlink:href="#bC"/><use transform="matrix(0.05,0,0,0.05,44.95,0)" xlink:href="#aV"/><use transform="matrix(0.05,0,0,0.05,54.95,0)" xlink:href="#aS"/><use transform="matrix(0.05,0,0,0.05,64.95,0)" xlink:href="#aW"/><use transform="matrix(0.05,0,0,0.05,74.95,0)" xlink:href="#bk"/><use transform="matrix(0.05,0,0,0.05,83.95,0)" xlink:href="#aS"/><use transform="matrix(0.05,0,0,0.05,93.95,0)" xlink:href="#bq"/><use transform="matrix(0.05,0,0,0.05,99.9,0)" xlink:href="#br"/></g><g id="N"><use transform="matrix(0.05,0,0,0.05,0,0)" xlink:href="#bt"/><use transform="matrix(0.05,0,0,0.05,10.5,0)" xlink:href="#aP"/><use transform="matrix(0.05,0,0,0.05,23.450000000000003,0)" xlink:href="#bw"/><use transform="matrix(0.05,0,0,0.05,35.45,0)" xlink:href="#aS"/><use transform="matrix(0.05,0,0,0.05,45.45,0)" xlink:href="#bC"/><use transform="matrix(0.05,0,0,0.05,55.45,0)" xlink:href="#aV"/><use transform="matrix(0.05,0,0,0.05,65.45,0)" xlink:href="#aS"/><use transform="matrix(0.05,0,0,0.05,75.45,0)" xlink:href="#aW"/><use transform="matrix(0.05,0,0,0.05,85.45,0)" xlink:href="#bk"/><use transform="matrix(0.05,0,0,0.05,94.45,0)" xlink:href="#aS"/><use transform="matrix(0.05,0,0,0.05,104.45,0)" xlink:href="#bq"/><use transform="matrix(0.05,0,0,0.05,110.4,0)" xlink:href="#br"/></g><g id="O"><use transform="matrix(0.05,0,0,0.05,0,0)" xlink:href="#aP"/><use transform="matrix(0.05,0,0,0.05,12.950000000000001,0)" xlink:href="#bu"/><use transform="matrix(0.05,0,0,0.05,24.950000000000003,0)" xlink:href="#bz"/><use transform="matrix(0.05,0,0,0.05,33.95,0)" xlink:href="#aS"/></g><g id="P"><use transform="matrix(0.05,0,0,0.05,0,0)" xlink:href="#aX"/><use transform="matrix(0.05,0,0,0.05,10,0)" xlink:href="#aW"/><use transform="matrix(0.05,0,0,0.05,20,0)" xlink:href="#bc"/><use transform="matrix(0.05,0,0,0.05,30,0)" xlink:href="#bF"/><use transform="matrix(0.05,0,0,0.05,33.95,0)" xlink:href="#aS"/></g><path d="M115-194c53 0 69 39 70 98 0 66-23 100-70 100C84 3 66-7 56-30L54 0H23l1-261h32v101c10-23 28-34 59-34zm-8 174c40 0 45-34 45-75 0-40-5-75-45-74-42 0-51 32-51 76 0 43 10 73 51 73" id="bJ"/><g id="Q"><use transform="matrix(0.05,0,0,0.05,0,0)" xlink:href="#bg"/><use transform="matrix(0.05,0,0,0.05,10,0)" xlink:href="#bf"/><use transform="matrix(0.05,0,0,0.05,20,0)" xlink:href="#aV"/><use transform="matrix(0.05,0,0,0.05,30,0)" xlink:href="#bJ"/><use transform="matrix(0.05,0,0,0.05,40,0)" xlink:href="#bF"/><use transform="matrix(0.05,0,0,0.05,43.95,0)" xlink:href="#aS"/></g><g id="R"><use transform="matrix(0.05,0,0,0.05,0,0)" xlink:href="#aX"/><use transform="matrix(0.05,0,0,0.05,10,0)" xlink:href="#aW"/><use transform="matrix(0.05,0,0,0.05,20,0)" xlink:href="#bc"/><use transform="matrix(0.05,0,0,0.05,30,0)" xlink:href="#bF"/><use transform="matrix(0.05,0,0,0.05,33.95,0)" xlink:href="#aS"/><use transform="matrix(0.05,0,0,0.05,43.95,0)" xlink:href="#bI"/><use transform="matrix(0.05,0,0,0.05,58.900000000000006,0)" xlink:href="#bb"/><use transform="matrix(0.05,0,0,0.05,62.85,0)" xlink:href="#aW"/></g><g id="S"><use transform="matrix(0.05,0,0,0.05,0,0)" xlink:href="#bo"/><use transform="matrix(0.05,0,0,0.05,10.5,0)" xlink:href="#aX"/><use transform="matrix(0.05,0,0,0.05,20.5,0)" xlink:href="#aW"/><use transform="matrix(0.05,0,0,0.05,30.5,0)" xlink:href="#bc"/><use transform="matrix(0.05,0,0,0.05,40.5,0)" xlink:href="#bF"/><use transform="matrix(0.05,0,0,0.05,44.45,0)" xlink:href="#aS"/><use transform="matrix(0.05,0,0,0.05,54.45,0)" xlink:href="#bI"/><use transform="matrix(0.05,0,0,0.05,69.4,0)" xlink:href="#aX"/><use transform="matrix(0.05,0,0,0.05,79.4,0)" xlink:href="#bz"/></g><g id="T"><use transform="matrix(0.05,0,0,0.05,0,0)" xlink:href="#aR"/><use transform="matrix(0.05,0,0,0.05,9,0)" xlink:href="#bd"/><use transform="matrix(0.05,0,0,0.05,19,0)" xlink:href="#aS"/><use transform="matrix(0.05,0,0,0.05,29,0)" xlink:href="#aS"/><use transform="matrix(0.05,0,0,0.05,39,0)" xlink:href="#bg"/><use transform="matrix(0.05,0,0,0.05,49,0)" xlink:href="#bI"/><use transform="matrix(0.05,0,0,0.05,63.95,0)" xlink:href="#aX"/><use transform="matrix(0.05,0,0,0.05,73.95,0)" xlink:href="#bz"/></g><g id="U"><use transform="matrix(0.05,0,0,0.05,0,0)" xlink:href="#bb"/><use transform="matrix(0.05,0,0,0.05,3.95,0)" xlink:href="#bg"/></g><g id="V"><use transform="matrix(0.05,0,0,0.05,0,0)" xlink:href="#aR"/><use transform="matrix(0.05,0,0,0.05,9,0)" xlink:href="#aY"/><use transform="matrix(0.05,0,0,0.05,23.950000000000003,0)" xlink:href="#aX"/><use transform="matrix(0.05,0,0,0.05,33.95,0)" xlink:href="#bF"/><use transform="matrix(0.05,0,0,0.05,37.900000000000006,0)" xlink:href="#bF"/><use transform="matrix(0.05,0,0,0.05,41.85000000000001,0)" xlink:href="#bb"/><use transform="matrix(0.05,0,0,0.05,45.80000000000001,0)" xlink:href="#aW"/><use transform="matrix(0.05,0,0,0.05,55.80000000000001,0)" xlink:href="#ba"/></g><g id="W"><use transform="matrix(0.05,0,0,0.05,0,0)" xlink:href="#bF"/><use transform="matrix(0.05,0,0,0.05,3.95,0)" xlink:href="#bf"/><use transform="matrix(0.05,0,0,0.05,13.949999999999998,0)" xlink:href="#aW"/><use transform="matrix(0.05,0,0,0.05,23.95,0)" xlink:href="#bc"/><use transform="matrix(0.05,0,0,0.05,33.95,0)" xlink:href="#aV"/><use transform="matrix(0.05,0,0,0.05,43.95,0)" xlink:href="#aS"/><use transform="matrix(0.05,0,0,0.05,53.95,0)" xlink:href="#aV"/><use transform="matrix(0.05,0,0,0.05,63.95,0)" xlink:href="#aT"/></g><use transform="matrix(0.05,0,0,0.05,0,0)" xlink:href="#bz" id="X"/><path d="M179-190L93 31C79 59 56 82 12 73V49c39 6 53-20 64-50L1-190h34L92-34l54-156h33" id="bK"/><use transform="matrix(0.05,0,0,0.05,0,0)" xlink:href="#bK" id="Y"/><path d="M9 0v-24l116-142H16v-24h144v24L44-24h123V0H9" id="bL"/><use transform="matrix(0.05,0,0,0.05,0,0)" xlink:href="#bL" id="Z"/><g id="aa"><use transform="matrix(0.05,0,0,0.05,0,0)" xlink:href="#bg"/><use transform="matrix(0.05,0,0,0.05,10,0)" xlink:href="#bf"/><use transform="matrix(0.05,0,0,0.05,20,0)" xlink:href="#aV"/><use transform="matrix(0.05,0,0,0.05,30,0)" xlink:href="#bJ"/><use transform="matrix(0.05,0,0,0.05,40,0)" xlink:href="#bF"/><use transform="matrix(0.05,0,0,0.05,43.95,0)" xlink:href="#aS"/></g><g id="ab"><use transform="matrix(0.05,0,0,0.05,0,0)" xlink:href="#aP"/><use transform="matrix(0.05,0,0,0.05,12.950000000000001,0)" xlink:href="#bu"/><use transform="matrix(0.05,0,0,0.05,24.950000000000003,0)" xlink:href="#bz"/><use transform="matrix(0.05,0,0,0.05,33.95,0)" xlink:href="#aS"/><use transform="matrix(0.05,0,0,0.05,43.95,0)" xlink:href="#bq"/><use transform="matrix(0.05,0,0,0.05,49.900000000000006,0)" xlink:href="#br"/></g><g id="ac"><use transform="matrix(0.05,0,0,0.05,0,0)" xlink:href="#aP"/><use transform="matrix(0.05,0,0,0.05,12.950000000000001,0)" xlink:href="#bu"/><use transform="matrix(0.05,0,0,0.05,24.950000000000003,0)" xlink:href="#bz"/><use transform="matrix(0.05,0,0,0.05,33.95,0)" xlink:href="#aS"/><use transform="matrix(0.05,0,0,0.05,43.95,0)" xlink:href="#bq"/><use transform="matrix(0.05,0,0,0.05,49.900000000000006,0)" xlink:href="#aX"/><use transform="matrix(0.05,0,0,0.05,59.900000000000006,0)" xlink:href="#aW"/><use transform="matrix(0.05,0,0,0.05,69.9,0)" xlink:href="#bc"/><use transform="matrix(0.05,0,0,0.05,79.9,0)" xlink:href="#bF"/><use transform="matrix(0.05,0,0,0.05,83.85000000000001,0)" xlink:href="#aS"/><use transform="matrix(0.05,0,0,0.05,93.85000000000001,0)" xlink:href="#bI"/><use transform="matrix(0.05,0,0,0.05,108.80000000000001,0)" xlink:href="#bb"/><use transform="matrix(0.05,0,0,0.05,112.75,0)" xlink:href="#aW"/></g><path d="M68-38c1 34 0 65-14 84H32c9-13 17-26 17-46H33v-38h35" id="bM"/><g id="ad"><use transform="matrix(0.05,0,0,0.05,0,0)" xlink:href="#bg"/><use transform="matrix(0.05,0,0,0.05,10,0)" xlink:href="#bf"/><use transform="matrix(0.05,0,0,0.05,20,0)" xlink:href="#aV"/><use transform="matrix(0.05,0,0,0.05,30,0)" xlink:href="#bJ"/><use transform="matrix(0.05,0,0,0.05,40,0)" xlink:href="#bF"/><use transform="matrix(0.05,0,0,0.05,43.95,0)" xlink:href="#aS"/><use transform="matrix(0.05,0,0,0.05,53.95,0)" xlink:href="#bM"/></g><g id="ae"><use transform="matrix(0.05,0,0,0.05,0,0)" xlink:href="#aX"/><use transform="matrix(0.05,0,0,0.05,10,0)" xlink:href="#aW"/><use transform="matrix(0.05,0,0,0.05,20,0)" xlink:href="#bc"/><use transform="matrix(0.05,0,0,0.05,30,0)" xlink:href="#bF"/><use transform="matrix(0.05,0,0,0.05,33.95,0)" xlink:href="#aS"/><use transform="matrix(0.05,0,0,0.05,43.95,0)" xlink:href="#bI"/><use transform="matrix(0.05,0,0,0.05,58.900000000000006,0)" xlink:href="#aX"/><use transform="matrix(0.05,0,0,0.05,68.9,0)" xlink:href="#bz"/></g><use transform="matrix(0.05,0,0,0.05,0,0)" xlink:href="#aZ" id="af"/><g id="ag"><use transform="matrix(0.05,0,0,0.05,0,0)" xlink:href="#aR"/><use transform="matrix(0.05,0,0,0.05,9,0)" xlink:href="#ba"/><use transform="matrix(0.05,0,0,0.05,14,0)" xlink:href="#aX"/><use transform="matrix(0.05,0,0,0.05,24,0)" xlink:href="#aT"/><use transform="matrix(0.05,0,0,0.05,29.950000000000003,0)" xlink:href="#ba"/><use transform="matrix(0.05,0,0,0.05,34.95,0)" xlink:href="#bu"/><use transform="matrix(0.05,0,0,0.05,46.95,0)" xlink:href="#aW"/><use transform="matrix(0.05,0,0,0.05,56.95,0)" xlink:href="#bc"/><use transform="matrix(0.05,0,0,0.05,66.95,0)" xlink:href="#bF"/><use transform="matrix(0.05,0,0,0.05,70.9,0)" xlink:href="#aS"/></g><g id="ah"><use transform="matrix(0.05,0,0,0.05,0,0)" xlink:href="#bg"/><use transform="matrix(0.05,0,0,0.05,10,0)" xlink:href="#bf"/><use transform="matrix(0.05,0,0,0.05,20,0)" xlink:href="#aV"/><use transform="matrix(0.05,0,0,0.05,30,0)" xlink:href="#bJ"/><use transform="matrix(0.05,0,0,0.05,40,0)" xlink:href="#bF"/><use transform="matrix(0.05,0,0,0.05,43.95,0)" xlink:href="#aS"/><use transform="matrix(0.05,0,0,0.05,53.95,0)" xlink:href="#br"/></g><g id="ai"><use transform="matrix(0.05,0,0,0.05,0,0)" xlink:href="#bw"/><use transform="matrix(0.05,0,0,0.05,12,0)" xlink:href="#aS"/><use transform="matrix(0.05,0,0,0.05,22,0)" xlink:href="#ba"/><use transform="matrix(0.05,0,0,0.05,27,0)" xlink:href="#bu"/><use transform="matrix(0.05,0,0,0.05,39,0)" xlink:href="#aW"/><use transform="matrix(0.05,0,0,0.05,49,0)" xlink:href="#bc"/><use transform="matrix(0.05,0,0,0.05,59,0)" xlink:href="#bF"/><use transform="matrix(0.05,0,0,0.05,62.95,0)" xlink:href="#aS"/><use transform="matrix(0.05,0,0,0.05,72.95,0)" xlink:href="#bq"/><use transform="matrix(0.05,0,0,0.05,78.9,0)" xlink:href="#br"/></g><path d="M143 4C61 4 22-44 18-125c-5-107 100-154 193-111 17 8 29 25 37 43l-32 9c-13-25-37-40-76-40-61 0-88 39-88 99 0 61 29 100 91 101 35 0 62-11 79-27v-45h-74v-28h105v86C228-13 192 4 143 4" id="bN"/><g id="aj"><use transform="matrix(0.05,0,0,0.05,0,0)" xlink:href="#bN"/><use transform="matrix(0.05,0,0,0.05,14,0)" xlink:href="#aS"/><use transform="matrix(0.05,0,0,0.05,24,0)" xlink:href="#ba"/><use transform="matrix(0.05,0,0,0.05,29,0)" xlink:href="#bu"/><use transform="matrix(0.05,0,0,0.05,41,0)" xlink:href="#aW"/><use transform="matrix(0.05,0,0,0.05,51,0)" xlink:href="#bc"/><use transform="matrix(0.05,0,0,0.05,61,0)" xlink:href="#bF"/><use transform="matrix(0.05,0,0,0.05,64.95,0)" xlink:href="#aS"/><use transform="matrix(0.05,0,0,0.05,74.95,0)" xlink:href="#bq"/><use transform="matrix(0.05,0,0,0.05,80.9,0)" xlink:href="#br"/></g><g id="ak"><use transform="matrix(0.05,0,0,0.05,0,0)" xlink:href="#aZ"/><use transform="matrix(0.05,0,0,0.05,5,0)" xlink:href="#bg"/><use transform="matrix(0.05,0,0,0.05,15,0)" xlink:href="#bf"/><use transform="matrix(0.05,0,0,0.05,25,0)" xlink:href="#aV"/><use transform="matrix(0.05,0,0,0.05,35,0)" xlink:href="#bJ"/><use transform="matrix(0.05,0,0,0.05,45,0)" xlink:href="#bF"/><use transform="matrix(0.05,0,0,0.05,48.95,0)" xlink:href="#aS"/></g><g id="al"><use transform="matrix(0.05,0,0,0.05,0,0)" xlink:href="#bt"/><use transform="matrix(0.05,0,0,0.05,10.5,0)" xlink:href="#aP"/><use transform="matrix(0.05,0,0,0.05,23.450000000000003,0)" xlink:href="#bu"/><use transform="matrix(0.05,0,0,0.05,35.45,0)" xlink:href="#bz"/><use transform="matrix(0.05,0,0,0.05,44.45,0)" xlink:href="#aS"/><use transform="matrix(0.05,0,0,0.05,54.45,0)" xlink:href="#bq"/><use transform="matrix(0.05,0,0,0.05,60.400000000000006,0)" xlink:href="#br"/></g><g id="am"><use transform="matrix(0.05,0,0,0.05,0,0)" xlink:href="#aY"/><use transform="matrix(0.05,0,0,0.05,14.950000000000001,0)" xlink:href="#bi"/><use transform="matrix(0.05,0,0,0.05,24.950000000000003,0)" xlink:href="#aX"/><use transform="matrix(0.05,0,0,0.05,34.95,0)" xlink:href="#bz"/><use transform="matrix(0.05,0,0,0.05,43.95,0)" xlink:href="#aS"/><use transform="matrix(0.05,0,0,0.05,53.95,0)" xlink:href="#aR"/></g><g id="an"><use transform="matrix(0.05,0,0,0.05,0,0)" xlink:href="#aP"/><use transform="matrix(0.05,0,0,0.05,12.950000000000001,0)" xlink:href="#aP"/><use transform="matrix(0.05,0,0,0.05,25.900000000000002,0)" xlink:href="#aX"/><use transform="matrix(0.05,0,0,0.05,35.900000000000006,0)" xlink:href="#bd"/><use transform="matrix(0.05,0,0,0.05,45.900000000000006,0)" xlink:href="#ba"/><use transform="matrix(0.05,0,0,0.05,50.900000000000006,0)" xlink:href="#aV"/><use transform="matrix(0.05,0,0,0.05,60.900000000000006,0)" xlink:href="#aT"/><use transform="matrix(0.05,0,0,0.05,66.85000000000001,0)" xlink:href="#aS"/></g><use transform="matrix(0.05,0,0,0.05,0,0)" xlink:href="#bh" id="ao"/><g id="ap"><use transform="matrix(0.05,0,0,0.05,0,0)" xlink:href="#aY"/><use transform="matrix(0.05,0,0,0.05,14.950000000000001,0)" xlink:href="#bi"/><use transform="matrix(0.05,0,0,0.05,24.950000000000003,0)" xlink:href="#aX"/><use transform="matrix(0.05,0,0,0.05,34.95,0)" xlink:href="#aW"/><use transform="matrix(0.05,0,0,0.05,44.95,0)" xlink:href="#bc"/><use transform="matrix(0.05,0,0,0.05,54.95,0)" xlink:href="#bF"/><use transform="matrix(0.05,0,0,0.05,58.900000000000006,0)" xlink:href="#aS"/><use transform="matrix(0.05,0,0,0.05,68.9,0)" xlink:href="#aR"/></g><use transform="matrix(0.05,0,0,0.05,0,0)" xlink:href="#aZ" id="aq"/><g id="ar"><use transform="matrix(0.05,0,0,0.05,0,0)" xlink:href="#bs"/><use transform="matrix(0.05,0,0,0.05,9,0)" xlink:href="#aS"/><use transform="matrix(0.05,0,0,0.05,19,0)" xlink:href="#bk"/><use transform="matrix(0.05,0,0,0.05,28,0)" xlink:href="#ba"/><use transform="matrix(0.05,0,0,0.05,33,0)" xlink:href="#bf"/><use transform="matrix(0.05,0,0,0.05,43,0)" xlink:href="#aT"/><use transform="matrix(0.05,0,0,0.05,48.95,0)" xlink:href="#bA"/><use transform="matrix(0.05,0,0,0.05,59.45,0)" xlink:href="#bg"/><use transform="matrix(0.05,0,0,0.05,69.45,0)" xlink:href="#bf"/><use transform="matrix(0.05,0,0,0.05,79.45,0)" xlink:href="#aV"/><use transform="matrix(0.05,0,0,0.05,89.45,0)" xlink:href="#bJ"/><use transform="matrix(0.05,0,0,0.05,99.45,0)" xlink:href="#bF"/><use transform="matrix(0.05,0,0,0.05,103.4,0)" xlink:href="#aS"/><use transform="matrix(0.05,0,0,0.05,113.4,0)" xlink:href="#bB"/></g><g id="as"><use transform="matrix(0.05,0,0,0.05,0,0)" xlink:href="#ba"/><use transform="matrix(0.05,0,0,0.05,5,0)" xlink:href="#bb"/><use transform="matrix(0.05,0,0,0.05,8.95,0)" xlink:href="#aY"/><use transform="matrix(0.05,0,0,0.05,23.9,0)" xlink:href="#aS"/><use transform="matrix(0.05,0,0,0.05,33.9,0)" xlink:href="#bw"/><use transform="matrix(0.05,0,0,0.05,45.9,0)" xlink:href="#ba"/><use transform="matrix(0.05,0,0,0.05,50.9,0)" xlink:href="#aX"/><use transform="matrix(0.05,0,0,0.05,60.900000000000006,0)" xlink:href="#aY"/><use transform="matrix(0.05,0,0,0.05,75.85,0)" xlink:href="#bd"/></g><g id="at"><use transform="matrix(0.05,0,0,0.05,0,0)" xlink:href="#bg"/><use transform="matrix(0.05,0,0,0.05,10,0)" xlink:href="#aX"/><use transform="matrix(0.05,0,0,0.05,20,0)" xlink:href="#ba"/><use transform="matrix(0.05,0,0,0.05,25,0)" xlink:href="#aS"/><use transform="matrix(0.05,0,0,0.05,35,0)" xlink:href="#ba"/><use transform="matrix(0.05,0,0,0.05,40,0)" xlink:href="#bb"/><use transform="matrix(0.05,0,0,0.05,43.95,0)" xlink:href="#aY"/><use transform="matrix(0.05,0,0,0.05,58.900000000000006,0)" xlink:href="#aS"/></g><g id="au"><use transform="matrix(0.05,0,0,0.05,0,0)" xlink:href="#aP"/><use transform="matrix(0.05,0,0,0.05,12.950000000000001,0)" xlink:href="#aP"/><use transform="matrix(0.05,0,0,0.05,25.900000000000002,0)" xlink:href="#aX"/><use transform="matrix(0.05,0,0,0.05,35.900000000000006,0)" xlink:href="#bd"/><use transform="matrix(0.05,0,0,0.05,45.900000000000006,0)" xlink:href="#ba"/><use transform="matrix(0.05,0,0,0.05,50.900000000000006,0)" xlink:href="#aV"/><use transform="matrix(0.05,0,0,0.05,60.900000000000006,0)" xlink:href="#aT"/><use transform="matrix(0.05,0,0,0.05,66.85000000000001,0)" xlink:href="#aS"/><use transform="matrix(0.05,0,0,0.05,76.85000000000001,0)" xlink:href="#bq"/><use transform="matrix(0.05,0,0,0.05,82.80000000000001,0)" xlink:href="#br"/></g><use transform="matrix(0.05,0,0,0.05,0,0)" xlink:href="#bo" id="av"/><g id="aw"><use transform="matrix(0.05,0,0,0.05,0,0)" xlink:href="#aP"/><use transform="matrix(0.05,0,0,0.05,12.950000000000001,0)" xlink:href="#aP"/><use transform="matrix(0.05,0,0,0.05,25.900000000000002,0)" xlink:href="#aX"/><use transform="matrix(0.05,0,0,0.05,35.900000000000006,0)" xlink:href="#bd"/><use transform="matrix(0.05,0,0,0.05,45.900000000000006,0)" xlink:href="#ba"/><use transform="matrix(0.05,0,0,0.05,50.900000000000006,0)" xlink:href="#aV"/><use transform="matrix(0.05,0,0,0.05,60.900000000000006,0)" xlink:href="#aT"/><use transform="matrix(0.05,0,0,0.05,66.85000000000001,0)" xlink:href="#aS"/><use transform="matrix(0.05,0,0,0.05,76.85000000000001,0)" xlink:href="#bq"/><use transform="matrix(0.05,0,0,0.05,82.80000000000001,0)" xlink:href="#aY"/><use transform="matrix(0.05,0,0,0.05,97.75000000000001,0)" xlink:href="#bi"/><use transform="matrix(0.05,0,0,0.05,107.75,0)" xlink:href="#aX"/><use transform="matrix(0.05,0,0,0.05,117.75,0)" xlink:href="#aW"/><use transform="matrix(0.05,0,0,0.05,127.75,0)" xlink:href="#bc"/><use transform="matrix(0.05,0,0,0.05,137.75,0)" xlink:href="#bF"/><use transform="matrix(0.05,0,0,0.05,141.7,0)" xlink:href="#aS"/><use transform="matrix(0.05,0,0,0.05,151.7,0)" xlink:href="#aR"/></g><path d="M234-2c-28 10-62 0-77-18C117 19 8 12 13-65c3-43 29-61 60-76-25-40-17-114 47-108 35 3 59 15 59 50 0 44-40 53-71 69 14 26 32 50 51 72 14-21 24-43 30-72l26 8c-9 33-21 57-38 82 13 13 33 22 57 15v23zM97-151c25-10 52-18 56-48-1-18-13-29-33-29-42 0-39 50-23 77zM42-66c-3 51 71 58 98 28-20-24-41-51-56-80-23 10-40 24-42 52" id="bO"/><g id="ax"><use transform="matrix(0.05,0,0,0.05,0,0)" xlink:href="#bO"/><use transform="matrix(0.05,0,0,0.05,12,0)" xlink:href="#bs"/><use transform="matrix(0.05,0,0,0.05,21,0)" xlink:href="#aS"/><use transform="matrix(0.05,0,0,0.05,31,0)" xlink:href="#bk"/><use transform="matrix(0.05,0,0,0.05,40,0)" xlink:href="#ba"/><use transform="matrix(0.05,0,0,0.05,45,0)" xlink:href="#bf"/><use transform="matrix(0.05,0,0,0.05,55,0)" xlink:href="#aT"/><use transform="matrix(0.05,0,0,0.05,60.95,0)" xlink:href="#bA"/><use transform="matrix(0.05,0,0,0.05,71.45,0)" xlink:href="#bg"/><use transform="matrix(0.05,0,0,0.05,81.45,0)" xlink:href="#bf"/><use transform="matrix(0.05,0,0,0.05,91.45,0)" xlink:href="#aV"/><use transform="matrix(0.05,0,0,0.05,101.45,0)" xlink:href="#bJ"/><use transform="matrix(0.05,0,0,0.05,111.45,0)" xlink:href="#bF"/><use transform="matrix(0.05,0,0,0.05,115.4,0)" xlink:href="#aS"/><use transform="matrix(0.05,0,0,0.05,125.4,0)" xlink:href="#bB"/><use transform="matrix(0.05,0,0,0.05,135.9,0)" xlink:href="#br"/></g><g id="ay"><use transform="matrix(0.05,0,0,0.05,0,0)" xlink:href="#bt"/><use transform="matrix(0.05,0,0,0.05,10.5,0)" xlink:href="#aP"/><use transform="matrix(0.05,0,0,0.05,23.450000000000003,0)" xlink:href="#aP"/><use transform="matrix(0.05,0,0,0.05,36.400000000000006,0)" xlink:href="#aX"/><use transform="matrix(0.05,0,0,0.05,46.400000000000006,0)" xlink:href="#bd"/><use transform="matrix(0.05,0,0,0.05,56.400000000000006,0)" xlink:href="#ba"/><use transform="matrix(0.05,0,0,0.05,61.400000000000006,0)" xlink:href="#aV"/><use transform="matrix(0.05,0,0,0.05,71.4,0)" xlink:href="#aT"/><use transform="matrix(0.05,0,0,0.05,77.35000000000001,0)" xlink:href="#aS"/><use transform="matrix(0.05,0,0,0.05,87.35000000000001,0)" xlink:href="#bq"/><use transform="matrix(0.05,0,0,0.05,93.30000000000001,0)" xlink:href="#br"/></g><g id="az"><use transform="matrix(0.05,0,0,0.05,0,0)" xlink:href="#aY"/><use transform="matrix(0.05,0,0,0.05,14.950000000000001,0)" xlink:href="#bi"/><use transform="matrix(0.05,0,0,0.05,24.950000000000003,0)" xlink:href="#bk"/><use transform="matrix(0.05,0,0,0.05,33.95,0)" xlink:href="#aX"/><use transform="matrix(0.05,0,0,0.05,43.95,0)" xlink:href="#bd"/><use transform="matrix(0.05,0,0,0.05,53.95,0)" xlink:href="#ba"/><use transform="matrix(0.05,0,0,0.05,58.95,0)" xlink:href="#aV"/><use transform="matrix(0.05,0,0,0.05,68.95,0)" xlink:href="#aT"/><use transform="matrix(0.05,0,0,0.05,74.9,0)" xlink:href="#aS"/><use transform="matrix(0.05,0,0,0.05,84.9,0)" xlink:href="#aR"/></g><g id="aA"><use transform="matrix(0.05,0,0,0.05,0,0)" xlink:href="#aP"/><use transform="matrix(0.05,0,0,0.05,12.950000000000001,0)" xlink:href="#bG"/><use transform="matrix(0.05,0,0,0.05,23.900000000000002,0)" xlink:href="#bF"/><use transform="matrix(0.05,0,0,0.05,27.85,0)" xlink:href="#aV"/><use transform="matrix(0.05,0,0,0.05,37.85,0)" xlink:href="#bz"/></g><g id="aB"><use transform="matrix(0.05,0,0,0.05,0,0)" xlink:href="#aP"/><use transform="matrix(0.05,0,0,0.05,12.950000000000001,0)" xlink:href="#bG"/><use transform="matrix(0.05,0,0,0.05,23.900000000000002,0)" xlink:href="#bF"/><use transform="matrix(0.05,0,0,0.05,27.85,0)" xlink:href="#aV"/><use transform="matrix(0.05,0,0,0.05,37.85,0)" xlink:href="#bz"/><use transform="matrix(0.05,0,0,0.05,46.85,0)" xlink:href="#bq"/><use transform="matrix(0.05,0,0,0.05,52.800000000000004,0)" xlink:href="#br"/></g><g id="aC"><use transform="matrix(0.05,0,0,0.05,0,0)" xlink:href="#bt"/><use transform="matrix(0.05,0,0,0.05,10.5,0)" xlink:href="#aP"/><use transform="matrix(0.05,0,0,0.05,23.450000000000003,0)" xlink:href="#bG"/><use transform="matrix(0.05,0,0,0.05,34.400000000000006,0)" xlink:href="#bF"/><use transform="matrix(0.05,0,0,0.05,38.35000000000001,0)" xlink:href="#aV"/><use transform="matrix(0.05,0,0,0.05,48.35000000000001,0)" xlink:href="#bz"/><use transform="matrix(0.05,0,0,0.05,57.35,0)" xlink:href="#bq"/><use transform="matrix(0.05,0,0,0.05,63.30000000000001,0)" xlink:href="#br"/></g><path d="M27 0v-27h64v-190l-56 39v-29l58-41h29v221h61V0H27" id="bP"/><path d="M33 0v-38h34V0H33" id="bQ"/><g id="aD"><use transform="matrix(0.05,0,0,0.05,0,0)" xlink:href="#bP"/><use transform="matrix(0.05,0,0,0.05,10,0)" xlink:href="#bQ"/><use transform="matrix(0.05,0,0,0.05,15,0)" xlink:href="#bQ"/><use transform="matrix(0.05,0,0,0.05,20,0)" xlink:href="#aW"/></g><use transform="matrix(0.05,0,0,0.05,0,0)" xlink:href="#bP" id="aE"/><g id="aF"><use transform="matrix(0.05,0,0,0.05,0,0)" xlink:href="#aY"/><use transform="matrix(0.05,0,0,0.05,14.950000000000001,0)" xlink:href="#bi"/><use transform="matrix(0.05,0,0,0.05,24.950000000000003,0)" xlink:href="#bj"/><use transform="matrix(0.05,0,0,0.05,29.950000000000003,0)" xlink:href="#bF"/><use transform="matrix(0.05,0,0,0.05,33.900000000000006,0)" xlink:href="#aV"/><use transform="matrix(0.05,0,0,0.05,43.900000000000006,0)" xlink:href="#bz"/></g><g id="aG"><use transform="matrix(0.05,0,0,0.05,0,0)" xlink:href="#aP"/><use transform="matrix(0.05,0,0,0.05,12.950000000000001,0)" xlink:href="#bn"/><use transform="matrix(0.05,0,0,0.05,17.950000000000003,0)" xlink:href="#aW"/><use transform="matrix(0.05,0,0,0.05,27.950000000000003,0)" xlink:href="#ba"/><use transform="matrix(0.05,0,0,0.05,32.95,0)" xlink:href="#aS"/><use transform="matrix(0.05,0,0,0.05,42.95,0)" xlink:href="#aT"/><use transform="matrix(0.05,0,0,0.05,48.900000000000006,0)" xlink:href="#bj"/><use transform="matrix(0.05,0,0,0.05,53.900000000000006,0)" xlink:href="#aX"/><use transform="matrix(0.05,0,0,0.05,63.900000000000006,0)" xlink:href="#bk"/><use transform="matrix(0.05,0,0,0.05,72.9,0)" xlink:href="#aS"/><use transform="matrix(0.05,0,0,0.05,82.9,0)" xlink:href="#bl"/><use transform="matrix(0.05,0,0,0.05,94.9,0)" xlink:href="#bm"/><use transform="matrix(0.05,0,0,0.05,107.85000000000001,0)" xlink:href="#bm"/></g><g id="aH"><use transform="matrix(0.05,0,0,0.05,0,0)" xlink:href="#aY"/><use transform="matrix(0.05,0,0,0.05,14.950000000000001,0)" xlink:href="#bi"/><use transform="matrix(0.05,0,0,0.05,24.950000000000003,0)" xlink:href="#aV"/><use transform="matrix(0.05,0,0,0.05,34.95,0)" xlink:href="#aR"/><use transform="matrix(0.05,0,0,0.05,43.95,0)" xlink:href="#aS"/><use transform="matrix(0.05,0,0,0.05,53.95,0)" xlink:href="#aT"/></g><g id="aI"><use transform="matrix(0.05,0,0,0.05,0,0)" xlink:href="#aQ"/><use transform="matrix(0.05,0,0,0.05,12.950000000000001,0)" xlink:href="#aR"/><use transform="matrix(0.05,0,0,0.05,21.950000000000003,0)" xlink:href="#aS"/><use transform="matrix(0.05,0,0,0.05,31.950000000000003,0)" xlink:href="#aT"/></g><g id="aJ"><use transform="matrix(0.05,0,0,0.05,0,0)" xlink:href="#bw"/><use transform="matrix(0.05,0,0,0.05,12,0)" xlink:href="#aS"/><use transform="matrix(0.05,0,0,0.05,22,0)" xlink:href="#bC"/><use transform="matrix(0.05,0,0,0.05,32,0)" xlink:href="#aV"/><use transform="matrix(0.05,0,0,0.05,42,0)" xlink:href="#aS"/><use transform="matrix(0.05,0,0,0.05,52,0)" xlink:href="#aW"/><use transform="matrix(0.05,0,0,0.05,62,0)" xlink:href="#bk"/><use transform="matrix(0.05,0,0,0.05,71,0)" xlink:href="#aS"/></g><g id="aK"><use transform="matrix(0.05,0,0,0.05,0,0)" xlink:href="#aP"/><use transform="matrix(0.05,0,0,0.05,12.950000000000001,0)" xlink:href="#bn"/><use transform="matrix(0.05,0,0,0.05,17.950000000000003,0)" xlink:href="#aW"/><use transform="matrix(0.05,0,0,0.05,27.950000000000003,0)" xlink:href="#ba"/><use transform="matrix(0.05,0,0,0.05,32.95,0)" xlink:href="#aS"/><use transform="matrix(0.05,0,0,0.05,42.95,0)" xlink:href="#aT"/><use transform="matrix(0.05,0,0,0.05,48.900000000000006,0)" xlink:href="#bj"/><use transform="matrix(0.05,0,0,0.05,53.900000000000006,0)" xlink:href="#aX"/><use transform="matrix(0.05,0,0,0.05,63.900000000000006,0)" xlink:href="#bk"/><use transform="matrix(0.05,0,0,0.05,72.9,0)" xlink:href="#aS"/><use transform="matrix(0.05,0,0,0.05,82.9,0)" xlink:href="#bl"/><use transform="matrix(0.05,0,0,0.05,94.9,0)" xlink:href="#bm"/><use transform="matrix(0.05,0,0,0.05,107.85000000000001,0)" xlink:href="#bm"/><use transform="matrix(0.05,0,0,0.05,120.80000000000001,0)" xlink:href="#bq"/><use transform="matrix(0.05,0,0,0.05,126.75,0)" xlink:href="#br"/></g><g id="aL"><use transform="matrix(0.05,0,0,0.05,0,0)" xlink:href="#bt"/><use transform="matrix(0.05,0,0,0.05,10.5,0)" xlink:href="#aP"/><use transform="matrix(0.05,0,0,0.05,23.450000000000003,0)" xlink:href="#bn"/><use transform="matrix(0.05,0,0,0.05,28.450000000000003,0)" xlink:href="#aW"/><use transform="matrix(0.05,0,0,0.05,38.45,0)" xlink:href="#ba"/><use transform="matrix(0.05,0,0,0.05,43.45,0)" xlink:href="#aS"/><use transform="matrix(0.05,0,0,0.05,53.45,0)" xlink:href="#aT"/><use transform="matrix(0.05,0,0,0.05,59.400000000000006,0)" xlink:href="#bj"/><use transform="matrix(0.05,0,0,0.05,64.4,0)" xlink:href="#aX"/><use transform="matrix(0.05,0,0,0.05,74.4,0)" xlink:href="#bk"/><use transform="matrix(0.05,0,0,0.05,83.4,0)" xlink:href="#aS"/><use transform="matrix(0.05,0,0,0.05,93.4,0)" xlink:href="#bl"/><use transform="matrix(0.05,0,0,0.05,105.4,0)" xlink:href="#bm"/><use transform="matrix(0.05,0,0,0.05,118.35000000000001,0)" xlink:href="#bm"/><use transform="matrix(0.05,0,0,0.05,131.3,0)" xlink:href="#bq"/><use transform="matrix(0.05,0,0,0.05,137.25,0)" xlink:href="#br"/></g><g id="aM"><use transform="matrix(0.05,0,0,0.05,0,0)" xlink:href="#aY"/><use transform="matrix(0.05,0,0,0.05,14.950000000000001,0)" xlink:href="#bi"/><use transform="matrix(0.05,0,0,0.05,24.950000000000003,0)" xlink:href="#bb"/><use transform="matrix(0.05,0,0,0.05,28.900000000000002,0)" xlink:href="#aW"/><use transform="matrix(0.05,0,0,0.05,38.900000000000006,0)" xlink:href="#ba"/><use transform="matrix(0.05,0,0,0.05,43.900000000000006,0)" xlink:href="#aS"/><use transform="matrix(0.05,0,0,0.05,53.900000000000006,0)" xlink:href="#aT"/><use transform="matrix(0.05,0,0,0.05,59.85,0)" xlink:href="#bj"/><use transform="matrix(0.05,0,0,0.05,64.85000000000001,0)" xlink:href="#aX"/><use transform="matrix(0.05,0,0,0.05,74.85000000000001,0)" xlink:href="#bk"/><use transform="matrix(0.05,0,0,0.05,83.85000000000001,0)" xlink:href="#aS"/><use transform="matrix(0.05,0,0,0.05,93.85000000000001,0)" xlink:href="#bl"/><use transform="matrix(0.05,0,0,0.05,105.85000000000001,0)" xlink:href="#bm"/><use transform="matrix(0.05,0,0,0.05,118.80000000000001,0)" xlink:href="#bm"/></g><g id="aN"><use transform="matrix(0.05,0,0,0.05,0,0)" xlink:href="#aY"/><use transform="matrix(0.05,0,0,0.05,14.950000000000001,0)" xlink:href="#bi"/><use transform="matrix(0.05,0,0,0.05,24.950000000000003,0)" xlink:href="#aR"/><use transform="matrix(0.05,0,0,0.05,33.95,0)" xlink:href="#aS"/><use transform="matrix(0.05,0,0,0.05,43.95,0)" xlink:href="#bC"/><use transform="matrix(0.05,0,0,0.05,53.95,0)" xlink:href="#aV"/><use transform="matrix(0.05,0,0,0.05,63.95,0)" xlink:href="#aS"/><use transform="matrix(0.05,0,0,0.05,73.95,0)" xlink:href="#aW"/><use transform="matrix(0.05,0,0,0.05,83.95,0)" xlink:href="#bk"/><use transform="matrix(0.05,0,0,0.05,92.95,0)" xlink:href="#aS"/></g><use transform="matrix(0.05,0,0,0.05,0,0)" xlink:href="#aW" id="aO"/></defs></g></svg>